<svg fill="#FF3366" xmlns:dc="http://purl.org/dc/elements/1.1/" xmlns:cc="http://creativecommons.org/ns#" xmlns:rdf="http://www.w3.org/1999/02/22-rdf-syntax-ns#" xmlns:svg="http://www.w3.org/2000/svg" xmlns="http://www.w3.org/2000/svg" xmlns:sodipodi="http://sodipodi.sourceforge.net/DTD/sodipodi-0.dtd" xmlns:inkscape="http://www.inkscape.org/namespaces/inkscape" viewBox="0 0 8.4666665 8.4666669" version="1.1" x="0px" y="0px"><g transform="translate(0,-288.53332)"><path style="color:#000000;font-style:normal;font-variant:normal;font-weight:normal;font-stretch:normal;font-size:medium;line-height:normal;font-family:sans-serif;text-indent:0;text-align:start;text-decoration:none;text-decoration-line:none;text-decoration-style:solid;text-decoration-color:#000000;letter-spacing:normal;word-spacing:normal;text-transform:none;direction:ltr;block-progression:tb;writing-mode:lr-tb;baseline-shift:baseline;text-anchor:start;white-space:normal;clip-rule:nonzero;display:inline;overflow:visible;visibility:visible;opacity:1;isolation:auto;mix-blend-mode:normal;color-interpolation:sRGB;color-interpolation-filters:linearRGB;solid-color:#000000;solid-opacity:1;fill:#FF3366;fill-opacity:1;fill-rule:nonzero;stroke:none;stroke-width:0.26458332;stroke-linecap:round;stroke-linejoin:round;stroke-miterlimit:4;stroke-dasharray:none;stroke-dashoffset:0;stroke-opacity:1;color-rendering:auto;image-rendering:auto;shape-rendering:auto;text-rendering:auto;enable-background:accumulate" d="m 4.2324219,289.5918 c -1.7519379,0 -3.1738291,1.42384 -3.1738281,3.17578 -10e-7,1.75194 1.4218902,3.17383 3.1738281,3.17383 1.7519378,0 3.1757822,-1.42189 3.1757812,-3.17383 1e-6,-1.75194 -1.4238434,-3.17578 -3.1757812,-3.17578 z m 0,0.26367 c 1.6089463,0 2.9121102,1.30316 2.9121093,2.91211 9e-7,1.60894 -1.303163,2.91015 -2.9121093,2.91015 -1.6089464,0 -2.9101572,-1.30121 -2.9101563,-2.91015 -9e-7,-1.60895 1.3012099,-2.91211 2.9101563,-2.91211 z"></path><path style="color:#000000;font-style:normal;font-variant:normal;font-weight:normal;font-stretch:normal;font-size:medium;line-height:normal;font-family:sans-serif;text-indent:0;text-align:start;text-decoration:none;text-decoration-line:none;text-decoration-style:solid;text-decoration-color:#000000;letter-spacing:normal;word-spacing:normal;text-transform:none;direction:ltr;block-progression:tb;writing-mode:lr-tb;baseline-shift:baseline;text-anchor:start;white-space:normal;clip-rule:nonzero;display:inline;overflow:visible;visibility:visible;opacity:1;isolation:auto;mix-blend-mode:normal;color-interpolation:sRGB;color-interpolation-filters:linearRGB;solid-color:#000000;solid-opacity:1;fill:#FF3366;fill-opacity:1;fill-rule:evenodd;stroke:none;stroke-width:0.26458332px;stroke-linecap:round;stroke-linejoin:round;stroke-miterlimit:4;stroke-dasharray:none;stroke-dashoffset:0;stroke-opacity:1;color-rendering:auto;image-rendering:auto;shape-rendering:auto;text-rendering:auto;enable-background:accumulate" d="m 4.15625,289.5918 a 0.13230489,0.13230489 0 0 0 -0.1074219,0.19336 l 0.1308594,0.26172 a 0.13233262,0.13233262 0 1 0 0.2363281,-0.11915 L 4.2871094,289.66602 A 0.13230489,0.13230489 0 0 0 4.15625,289.5918 Z"></path><path style="color:#000000;font-style:normal;font-variant:normal;font-weight:normal;font-stretch:normal;font-size:medium;line-height:normal;font-family:sans-serif;text-indent:0;text-align:start;text-decoration:none;text-decoration-line:none;text-decoration-style:solid;text-decoration-color:#000000;letter-spacing:normal;word-spacing:normal;text-transform:none;direction:ltr;block-progression:tb;writing-mode:lr-tb;baseline-shift:baseline;text-anchor:start;white-space:normal;clip-rule:nonzero;display:inline;overflow:visible;visibility:visible;opacity:1;isolation:auto;mix-blend-mode:normal;color-interpolation:sRGB;color-interpolation-filters:linearRGB;solid-color:#000000;solid-opacity:1;fill:#FF3366;fill-opacity:1;fill-rule:evenodd;stroke:none;stroke-width:0.26458332px;stroke-linecap:round;stroke-linejoin:round;stroke-miterlimit:4;stroke-dasharray:none;stroke-dashoffset:0;stroke-opacity:1;color-rendering:auto;image-rendering:auto;shape-rendering:auto;text-rendering:auto;enable-background:accumulate" d="m 3.0351562,289.85547 a 0.13230489,0.13230489 0 0 0 -0.072266,0.23828 l 0.265625,0.19922 a 0.13230489,0.13230489 0 1 0 0.1582032,-0.21094 l -0.2636719,-0.19922 a 0.13230489,0.13230489 0 0 0 -0.087891,-0.0273 z"></path><path style="color:#000000;font-style:normal;font-variant:normal;font-weight:normal;font-stretch:normal;font-size:medium;line-height:normal;font-family:sans-serif;text-indent:0;text-align:start;text-decoration:none;text-decoration-line:none;text-decoration-style:solid;text-decoration-color:#000000;letter-spacing:normal;word-spacing:normal;text-transform:none;direction:ltr;block-progression:tb;writing-mode:lr-tb;baseline-shift:baseline;text-anchor:start;white-space:normal;clip-rule:nonzero;display:inline;overflow:visible;visibility:visible;opacity:1;isolation:auto;mix-blend-mode:normal;color-interpolation:sRGB;color-interpolation-filters:linearRGB;solid-color:#000000;solid-opacity:1;fill:#FF3366;fill-opacity:1;fill-rule:evenodd;stroke:none;stroke-width:0.26458332px;stroke-linecap:round;stroke-linejoin:round;stroke-miterlimit:4;stroke-dasharray:none;stroke-dashoffset:0;stroke-opacity:1;color-rendering:auto;image-rendering:auto;shape-rendering:auto;text-rendering:auto;enable-background:accumulate" d="m 2.0742188,290.55078 a 0.13230489,0.13230489 0 0 0 -0.013672,0.26172 l 0.3242187,0.0664 A 0.13253431,0.13253431 0 0 0 2.4375,290.61914 l -0.3242188,-0.0664 a 0.13230489,0.13230489 0 0 0 -0.039062,-0.002 z"></path><path style="color:#000000;font-style:normal;font-variant:normal;font-weight:normal;font-stretch:normal;font-size:medium;line-height:normal;font-family:sans-serif;text-indent:0;text-align:start;text-decoration:none;text-decoration-line:none;text-decoration-style:solid;text-decoration-color:#000000;letter-spacing:normal;word-spacing:normal;text-transform:none;direction:ltr;block-progression:tb;writing-mode:lr-tb;baseline-shift:baseline;text-anchor:start;white-space:normal;clip-rule:nonzero;display:inline;overflow:visible;visibility:visible;opacity:1;isolation:auto;mix-blend-mode:normal;color-interpolation:sRGB;color-interpolation-filters:linearRGB;solid-color:#000000;solid-opacity:1;fill:#FF3366;fill-opacity:1;fill-rule:evenodd;stroke:none;stroke-width:0.26458332px;stroke-linecap:round;stroke-linejoin:round;stroke-miterlimit:4;stroke-dasharray:none;stroke-dashoffset:0;stroke-opacity:1;color-rendering:auto;image-rendering:auto;shape-rendering:auto;text-rendering:auto;enable-background:accumulate" d="m 1.7460938,291.47656 a 0.13230489,0.13230489 0 0 0 -0.023438,0.004 l -0.3242187,0.0644 a 0.13253431,0.13253431 0 0 0 0.052734,0.25977 l 0.3242187,-0.0664 a 0.13230489,0.13230489 0 0 0 -0.029297,-0.26172 z"></path><path style="color:#000000;font-style:normal;font-variant:normal;font-weight:normal;font-stretch:normal;font-size:medium;line-height:normal;font-family:sans-serif;text-indent:0;text-align:start;text-decoration:none;text-decoration-line:none;text-decoration-style:solid;text-decoration-color:#000000;letter-spacing:normal;word-spacing:normal;text-transform:none;direction:ltr;block-progression:tb;writing-mode:lr-tb;baseline-shift:baseline;text-anchor:start;white-space:normal;clip-rule:nonzero;display:inline;overflow:visible;visibility:visible;opacity:1;isolation:auto;mix-blend-mode:normal;color-interpolation:sRGB;color-interpolation-filters:linearRGB;solid-color:#000000;solid-opacity:1;fill:#FF3366;fill-opacity:1;fill-rule:evenodd;stroke:none;stroke-width:0.26458332px;stroke-linecap:round;stroke-linejoin:round;stroke-miterlimit:4;stroke-dasharray:none;stroke-dashoffset:0;stroke-opacity:1;color-rendering:auto;image-rendering:auto;shape-rendering:auto;text-rendering:auto;enable-background:accumulate" d="m 1.4824219,292.43555 a 0.13230489,0.13230489 0 0 0 -0.070312,0.0273 l -0.2636719,0.19727 a 0.13261822,0.13261822 0 1 0 0.1582031,0.21289 l 0.2636719,-0.19922 a 0.13230489,0.13230489 0 0 0 -0.087891,-0.23828 z"></path><path style="color:#000000;font-style:normal;font-variant:normal;font-weight:normal;font-stretch:normal;font-size:medium;line-height:normal;font-family:sans-serif;text-indent:0;text-align:start;text-decoration:none;text-decoration-line:none;text-decoration-style:solid;text-decoration-color:#000000;letter-spacing:normal;word-spacing:normal;text-transform:none;direction:ltr;block-progression:tb;writing-mode:lr-tb;baseline-shift:baseline;text-anchor:start;white-space:normal;clip-rule:nonzero;display:inline;overflow:visible;visibility:visible;opacity:1;isolation:auto;mix-blend-mode:normal;color-interpolation:sRGB;color-interpolation-filters:linearRGB;solid-color:#000000;solid-opacity:1;fill:#FF3366;fill-opacity:1;fill-rule:evenodd;stroke:none;stroke-width:0.26458332px;stroke-linecap:round;stroke-linejoin:round;stroke-miterlimit:4;stroke-dasharray:none;stroke-dashoffset:0;stroke-opacity:1;color-rendering:auto;image-rendering:auto;shape-rendering:auto;text-rendering:auto;enable-background:accumulate" d="m 1.6503906,293.625 a 0.13230489,0.13230489 0 0 0 -0.089844,0.041 l -0.1992188,0.19726 a 0.13258252,0.13258252 0 1 0 0.1875,0.1875 l 0.1992188,-0.19922 A 0.13230489,0.13230489 0 0 0 1.6503906,293.625 Z"></path><path style="color:#000000;font-style:normal;font-variant:normal;font-weight:normal;font-stretch:normal;font-size:medium;line-height:normal;font-family:sans-serif;text-indent:0;text-align:start;text-decoration:none;text-decoration-line:none;text-decoration-style:solid;text-decoration-color:#000000;letter-spacing:normal;word-spacing:normal;text-transform:none;direction:ltr;block-progression:tb;writing-mode:lr-tb;baseline-shift:baseline;text-anchor:start;white-space:normal;clip-rule:nonzero;display:inline;overflow:visible;visibility:visible;opacity:1;isolation:auto;mix-blend-mode:normal;color-interpolation:sRGB;color-interpolation-filters:linearRGB;solid-color:#000000;solid-opacity:1;fill:#FF3366;fill-opacity:1;fill-rule:evenodd;stroke:none;stroke-width:0.26458332px;stroke-linecap:round;stroke-linejoin:round;stroke-miterlimit:4;stroke-dasharray:none;stroke-dashoffset:0;stroke-opacity:1;color-rendering:auto;image-rendering:auto;shape-rendering:auto;text-rendering:auto;enable-background:accumulate" d="m 2.1816406,294.41797 a 0.13230489,0.13230489 0 0 0 -0.1289062,0.10937 l -0.066406,0.33008 a 0.13253276,0.13253276 0 0 0 0.2597657,0.0527 L 2.3125,294.57812 a 0.13230489,0.13230489 0 0 0 -0.1308594,-0.16015 z"></path><path style="color:#000000;font-style:normal;font-variant:normal;font-weight:normal;font-stretch:normal;font-size:medium;line-height:normal;font-family:sans-serif;text-indent:0;text-align:start;text-decoration:none;text-decoration-line:none;text-decoration-style:solid;text-decoration-color:#000000;letter-spacing:normal;word-spacing:normal;text-transform:none;direction:ltr;block-progression:tb;writing-mode:lr-tb;baseline-shift:baseline;text-anchor:start;white-space:normal;clip-rule:nonzero;display:inline;overflow:visible;visibility:visible;opacity:1;isolation:auto;mix-blend-mode:normal;color-interpolation:sRGB;color-interpolation-filters:linearRGB;solid-color:#000000;solid-opacity:1;fill:#FF3366;fill-opacity:1;fill-rule:evenodd;stroke:none;stroke-width:0.26458332px;stroke-linecap:round;stroke-linejoin:round;stroke-miterlimit:4;stroke-dasharray:none;stroke-dashoffset:0;stroke-opacity:1;color-rendering:auto;image-rendering:auto;shape-rendering:auto;text-rendering:auto;enable-background:accumulate" d="m 3.0292969,295.14648 a 0.13230489,0.13230489 0 0 0 -0.109375,0.1836 l 0.1328125,0.33008 a 0.13230489,0.13230489 0 1 0 0.2441406,-0.0977 l -0.1308594,-0.33203 a 0.13230489,0.13230489 0 0 0 -0.1367187,-0.084 z"></path><path style="color:#000000;font-style:normal;font-variant:normal;font-weight:normal;font-stretch:normal;font-size:medium;line-height:normal;font-family:sans-serif;text-indent:0;text-align:start;text-decoration:none;text-decoration-line:none;text-decoration-style:solid;text-decoration-color:#000000;letter-spacing:normal;word-spacing:normal;text-transform:none;direction:ltr;block-progression:tb;writing-mode:lr-tb;baseline-shift:baseline;text-anchor:start;white-space:normal;clip-rule:nonzero;display:inline;overflow:visible;visibility:visible;opacity:1;isolation:auto;mix-blend-mode:normal;color-interpolation:sRGB;color-interpolation-filters:linearRGB;solid-color:#000000;solid-opacity:1;fill:#FF3366;fill-opacity:1;fill-rule:evenodd;stroke:none;stroke-width:0.26458332px;stroke-linecap:round;stroke-linejoin:round;stroke-miterlimit:4;stroke-dasharray:none;stroke-dashoffset:0;stroke-opacity:1;color-rendering:auto;image-rendering:auto;shape-rendering:auto;text-rendering:auto;enable-background:accumulate" d="m 4.09375,295.41211 a 0.13230489,0.13230489 0 0 0 -0.097656,0.21289 l 0.1972656,0.26172 a 0.13230489,0.13230489 0 1 0 0.2109375,-0.1582 L 4.2089844,295.4668 A 0.13230489,0.13230489 0 0 0 4.09375,295.41211 Z"></path><path style="color:#000000;font-style:normal;font-variant:normal;font-weight:normal;font-stretch:normal;font-size:medium;line-height:normal;font-family:sans-serif;text-indent:0;text-align:start;text-decoration:none;text-decoration-line:none;text-decoration-style:solid;text-decoration-color:#000000;letter-spacing:normal;word-spacing:normal;text-transform:none;direction:ltr;block-progression:tb;writing-mode:lr-tb;baseline-shift:baseline;text-anchor:start;white-space:normal;clip-rule:nonzero;display:inline;overflow:visible;visibility:visible;opacity:1;isolation:auto;mix-blend-mode:normal;color-interpolation:sRGB;color-interpolation-filters:linearRGB;solid-color:#000000;solid-opacity:1;fill:#FF3366;fill-opacity:1;fill-rule:evenodd;stroke:none;stroke-width:0.26458332px;stroke-linecap:round;stroke-linejoin:round;stroke-miterlimit:4;stroke-dasharray:none;stroke-dashoffset:0;stroke-opacity:1;color-rendering:auto;image-rendering:auto;shape-rendering:auto;text-rendering:auto;enable-background:accumulate" d="m 5.140625,295.21484 a 0.13230489,0.13230489 0 0 0 -0.058594,0.23828 l 0.2617188,0.19727 a 0.13261822,0.13261822 0 1 0 0.1582031,-0.21289 l -0.2617187,-0.19531 a 0.13230489,0.13230489 0 0 0 -0.099609,-0.0274 z"></path><path style="color:#000000;font-style:normal;font-variant:normal;font-weight:normal;font-stretch:normal;font-size:medium;line-height:normal;font-family:sans-serif;text-indent:0;text-align:start;text-decoration:none;text-decoration-line:none;text-decoration-style:solid;text-decoration-color:#000000;letter-spacing:normal;word-spacing:normal;text-transform:none;direction:ltr;block-progression:tb;writing-mode:lr-tb;baseline-shift:baseline;text-anchor:start;white-space:normal;clip-rule:nonzero;display:inline;overflow:visible;visibility:visible;opacity:1;isolation:auto;mix-blend-mode:normal;color-interpolation:sRGB;color-interpolation-filters:linearRGB;solid-color:#000000;solid-opacity:1;fill:#FF3366;fill-opacity:1;fill-rule:evenodd;stroke:none;stroke-width:0.26458332px;stroke-linecap:round;stroke-linejoin:round;stroke-miterlimit:4;stroke-dasharray:none;stroke-dashoffset:0;stroke-opacity:1;color-rendering:auto;image-rendering:auto;shape-rendering:auto;text-rendering:auto;enable-background:accumulate" d="m 6.0078125,294.68555 a 0.13230489,0.13230489 0 0 0 -0.011719,0.26172 l 0.3261718,0.0645 A 0.13230489,0.13230489 0 1 0 6.375,294.75391 l -0.328125,-0.0664 a 0.13230489,0.13230489 0 0 0 -0.039063,-0.002 z"></path><path style="color:#000000;font-style:normal;font-variant:normal;font-weight:normal;font-stretch:normal;font-size:medium;line-height:normal;font-family:sans-serif;text-indent:0;text-align:start;text-decoration:none;text-decoration-line:none;text-decoration-style:solid;text-decoration-color:#000000;letter-spacing:normal;word-spacing:normal;text-transform:none;direction:ltr;block-progression:tb;writing-mode:lr-tb;baseline-shift:baseline;text-anchor:start;white-space:normal;clip-rule:nonzero;display:inline;overflow:visible;visibility:visible;opacity:1;isolation:auto;mix-blend-mode:normal;color-interpolation:sRGB;color-interpolation-filters:linearRGB;solid-color:#000000;solid-opacity:1;fill:#FF3366;fill-opacity:1;fill-rule:evenodd;stroke:none;stroke-width:0.26458332px;stroke-linecap:round;stroke-linejoin:round;stroke-miterlimit:4;stroke-dasharray:none;stroke-dashoffset:0;stroke-opacity:1;color-rendering:auto;image-rendering:auto;shape-rendering:auto;text-rendering:auto;enable-background:accumulate" d="m 6.9921875,293.75977 a 0.13230489,0.13230489 0 0 0 -0.00781,0.002 l -0.328125,0.0664 a 0.13230489,0.13230489 0 1 0 0.052734,0.25782 l 0.3261718,-0.0645 a 0.13260697,0.13260697 0 0 0 -0.042969,-0.26171 z"></path><path style="color:#000000;font-style:normal;font-variant:normal;font-weight:normal;font-stretch:normal;font-size:medium;line-height:normal;font-family:sans-serif;text-indent:0;text-align:start;text-decoration:none;text-decoration-line:none;text-decoration-style:solid;text-decoration-color:#000000;letter-spacing:normal;word-spacing:normal;text-transform:none;direction:ltr;block-progression:tb;writing-mode:lr-tb;baseline-shift:baseline;text-anchor:start;white-space:normal;clip-rule:nonzero;display:inline;overflow:visible;visibility:visible;opacity:1;isolation:auto;mix-blend-mode:normal;color-interpolation:sRGB;color-interpolation-filters:linearRGB;solid-color:#000000;solid-opacity:1;fill:#FF3366;fill-opacity:1;fill-rule:evenodd;stroke:none;stroke-width:0.26458332px;stroke-linecap:round;stroke-linejoin:round;stroke-miterlimit:4;stroke-dasharray:none;stroke-dashoffset:0;stroke-opacity:1;color-rendering:auto;image-rendering:auto;shape-rendering:auto;text-rendering:auto;enable-background:accumulate" d="m 7.2304688,292.63281 a 0.13230489,0.13230489 0 0 0 -0.070313,0.0274 l -0.2636718,0.19922 a 0.13230489,0.13230489 0 1 0 0.1582031,0.21093 l 0.2636719,-0.19726 a 0.13230489,0.13230489 0 0 0 -0.087891,-0.24024 z"></path><path style="color:#000000;font-style:normal;font-variant:normal;font-weight:normal;font-stretch:normal;font-size:medium;line-height:normal;font-family:sans-serif;text-indent:0;text-align:start;text-decoration:none;text-decoration-line:none;text-decoration-style:solid;text-decoration-color:#000000;letter-spacing:normal;word-spacing:normal;text-transform:none;direction:ltr;block-progression:tb;writing-mode:lr-tb;baseline-shift:baseline;text-anchor:start;white-space:normal;clip-rule:nonzero;display:inline;overflow:visible;visibility:visible;opacity:1;isolation:auto;mix-blend-mode:normal;color-interpolation:sRGB;color-interpolation-filters:linearRGB;solid-color:#000000;solid-opacity:1;fill:#FF3366;fill-opacity:1;fill-rule:evenodd;stroke:none;stroke-width:0.26458332px;stroke-linecap:round;stroke-linejoin:round;stroke-miterlimit:4;stroke-dasharray:none;stroke-dashoffset:0;stroke-opacity:1;color-rendering:auto;image-rendering:auto;shape-rendering:auto;text-rendering:auto;enable-background:accumulate" d="m 6.9960938,291.44336 a 0.13230489,0.13230489 0 0 0 -0.078125,0.0391 L 6.71875,291.68164 a 0.13230489,0.13230489 0 1 0 0.1875,0.18555 l 0.1992188,-0.19727 a 0.13230489,0.13230489 0 0 0 -0.109375,-0.22656 z"></path><path style="color:#000000;font-style:normal;font-variant:normal;font-weight:normal;font-stretch:normal;font-size:medium;line-height:normal;font-family:sans-serif;text-indent:0;text-align:start;text-decoration:none;text-decoration-line:none;text-decoration-style:solid;text-decoration-color:#000000;letter-spacing:normal;word-spacing:normal;text-transform:none;direction:ltr;block-progression:tb;writing-mode:lr-tb;baseline-shift:baseline;text-anchor:start;white-space:normal;clip-rule:nonzero;display:inline;overflow:visible;visibility:visible;opacity:1;isolation:auto;mix-blend-mode:normal;color-interpolation:sRGB;color-interpolation-filters:linearRGB;solid-color:#000000;solid-opacity:1;fill:#FF3366;fill-opacity:1;fill-rule:evenodd;stroke:none;stroke-width:0.26458332px;stroke-linecap:round;stroke-linejoin:round;stroke-miterlimit:4;stroke-dasharray:none;stroke-dashoffset:0;stroke-opacity:1;color-rendering:auto;image-rendering:auto;shape-rendering:auto;text-rendering:auto;enable-background:accumulate" d="M 6.3476562,290.51562 A 0.13230489,0.13230489 0 0 0 6.2207031,290.625 l -0.066406,0.33008 a 0.1323412,0.1323412 0 0 0 0.2597656,0.0508 l 0.066406,-0.33008 a 0.13230489,0.13230489 0 0 0 -0.1328126,-0.16016 z"></path><path style="color:#000000;font-style:normal;font-variant:normal;font-weight:normal;font-stretch:normal;font-size:medium;line-height:normal;font-family:sans-serif;text-indent:0;text-align:start;text-decoration:none;text-decoration-line:none;text-decoration-style:solid;text-decoration-color:#000000;letter-spacing:normal;word-spacing:normal;text-transform:none;direction:ltr;block-progression:tb;writing-mode:lr-tb;baseline-shift:baseline;text-anchor:start;white-space:normal;clip-rule:nonzero;display:inline;overflow:visible;visibility:visible;opacity:1;isolation:auto;mix-blend-mode:normal;color-interpolation:sRGB;color-interpolation-filters:linearRGB;solid-color:#000000;solid-opacity:1;fill:#FF3366;fill-opacity:1;fill-rule:evenodd;stroke:none;stroke-width:0.26458332px;stroke-linecap:round;stroke-linejoin:round;stroke-miterlimit:4;stroke-dasharray:none;stroke-dashoffset:0;stroke-opacity:1;color-rendering:auto;image-rendering:auto;shape-rendering:auto;text-rendering:auto;enable-background:accumulate" d="m 5.2792969,289.78906 a 0.13230489,0.13230489 0 0 0 -0.1113281,0.18164 l 0.1328124,0.33203 a 0.13274441,0.13274441 0 0 0 0.2460938,-0.0996 l -0.1328125,-0.33007 a 0.13230489,0.13230489 0 0 0 -0.1347656,-0.084 z"></path><path style="color:#000000;font-style:normal;font-variant:normal;font-weight:normal;font-stretch:normal;font-size:medium;line-height:normal;font-family:sans-serif;text-indent:0;text-align:start;text-decoration:none;text-decoration-line:none;text-decoration-style:solid;text-decoration-color:#000000;letter-spacing:normal;word-spacing:normal;text-transform:none;direction:ltr;block-progression:tb;writing-mode:lr-tb;baseline-shift:baseline;text-anchor:start;white-space:normal;clip-rule:nonzero;display:inline;overflow:visible;visibility:visible;opacity:1;isolation:auto;mix-blend-mode:normal;color-interpolation:sRGB;color-interpolation-filters:linearRGB;solid-color:#000000;solid-opacity:1;fill:#FF3366;fill-opacity:1;fill-rule:evenodd;stroke:none;stroke-width:0.26458332px;stroke-linecap:butt;stroke-linejoin:round;stroke-miterlimit:4;stroke-dasharray:none;stroke-dashoffset:0;stroke-opacity:1;color-rendering:auto;image-rendering:auto;shape-rendering:auto;text-rendering:auto;enable-background:accumulate" d="m 3.96875,291.44336 a 0.13230489,0.13230489 0 0 0 -0.1328125,0.13281 l 0,0.59571 0.265625,0 0,-0.4629 0.2636719,0 0,0.4629 0.265625,0 0,-0.59571 a 0.13230489,0.13230489 0 0 0 -0.1328125,-0.13281 l -0.5292969,0 z"></path><path style="color:#000000;font-style:normal;font-variant:normal;font-weight:normal;font-stretch:normal;font-size:medium;line-height:normal;font-family:sans-serif;text-indent:0;text-align:start;text-decoration:none;text-decoration-line:none;text-decoration-style:solid;text-decoration-color:#000000;letter-spacing:normal;word-spacing:normal;text-transform:none;direction:ltr;block-progression:tb;writing-mode:lr-tb;baseline-shift:baseline;text-anchor:start;white-space:normal;clip-rule:nonzero;display:inline;overflow:visible;visibility:visible;opacity:1;isolation:auto;mix-blend-mode:normal;color-interpolation:sRGB;color-interpolation-filters:linearRGB;solid-color:#000000;solid-opacity:1;fill:#FF3366;fill-opacity:1;fill-rule:nonzero;stroke:none;stroke-width:0.26458332;stroke-linecap:round;stroke-linejoin:round;stroke-miterlimit:4;stroke-dasharray:none;stroke-dashoffset:0;stroke-opacity:1;color-rendering:auto;image-rendering:auto;shape-rendering:auto;text-rendering:auto;enable-background:accumulate" d="m 4.2324219,291.97266 c -0.4368091,0 -0.7929688,0.35811 -0.7929688,0.79492 0,0.43681 0.3561597,0.79297 0.7929688,0.79297 0.436809,0 0.7949219,-0.35616 0.7949219,-0.79297 0,-0.43681 -0.3581129,-0.79492 -0.7949219,-0.79492 z m 0,0.26562 c 0.2938176,0 0.5292969,0.23548 0.5292969,0.5293 0,0.29382 -0.2354793,0.52734 -0.5292969,0.52734 -0.2938176,0 -0.5273438,-0.23352 -0.5273438,-0.52734 0,-0.29382 0.2335262,-0.5293 0.5273438,-0.5293 z"></path><path style="color:#000000;font-style:normal;font-variant:normal;font-weight:normal;font-stretch:normal;font-size:medium;line-height:normal;font-family:sans-serif;text-indent:0;text-align:start;text-decoration:none;text-decoration-line:none;text-decoration-style:solid;text-decoration-color:#000000;letter-spacing:normal;word-spacing:normal;text-transform:none;direction:ltr;block-progression:tb;writing-mode:lr-tb;baseline-shift:baseline;text-anchor:start;white-space:normal;clip-rule:nonzero;display:inline;overflow:visible;visibility:visible;opacity:1;isolation:auto;mix-blend-mode:normal;color-interpolation:sRGB;color-interpolation-filters:linearRGB;solid-color:#000000;solid-opacity:1;fill:#FF3366;fill-opacity:1;fill-rule:evenodd;stroke:none;stroke-width:0.26458332px;stroke-linecap:butt;stroke-linejoin:round;stroke-miterlimit:4;stroke-dasharray:none;stroke-dashoffset:0;stroke-opacity:1;color-rendering:auto;image-rendering:auto;shape-rendering:auto;text-rendering:auto;enable-background:accumulate" d="m 3.171875,292.01562 a 0.13230489,0.13230489 0 0 0 -0.1152344,0.0899 l -0.1640625,0.50391 a 0.13230489,0.13230489 0 0 0 0.085937,0.16601 l 0.5664063,0.18555 0.082031,-0.25196 -0.4414062,-0.14257 0.082031,-0.25196 0.4414063,0.14258 0.080078,-0.25195 -0.5644531,-0.1836 a 0.13230489,0.13230489 0 0 0 -0.052734,-0.006 z"></path><path style="color:#000000;font-style:normal;font-variant:normal;font-weight:normal;font-stretch:normal;font-size:medium;line-height:normal;font-family:sans-serif;text-indent:0;text-align:start;text-decoration:none;text-decoration-line:none;text-decoration-style:solid;text-decoration-color:#000000;letter-spacing:normal;word-spacing:normal;text-transform:none;direction:ltr;block-progression:tb;writing-mode:lr-tb;baseline-shift:baseline;text-anchor:start;white-space:normal;clip-rule:nonzero;display:inline;overflow:visible;visibility:visible;opacity:1;isolation:auto;mix-blend-mode:normal;color-interpolation:sRGB;color-interpolation-filters:linearRGB;solid-color:#000000;solid-opacity:1;fill:#FF3366;fill-opacity:1;fill-rule:evenodd;stroke:none;stroke-width:0.26458332px;stroke-linecap:butt;stroke-linejoin:round;stroke-miterlimit:4;stroke-dasharray:none;stroke-dashoffset:0;stroke-opacity:1;color-rendering:auto;image-rendering:auto;shape-rendering:auto;text-rendering:auto;enable-background:accumulate" d="m 5.265625,292.01562 a 0.13230489,0.13230489 0 0 0 -0.023437,0.006 l -0.5644531,0.1836 0.080078,0.25195 0.4414063,-0.14258 0.082031,0.25196 -0.4414062,0.14257 0.082031,0.25196 0.5664062,-0.18555 a 0.13230489,0.13230489 0 0 0 0.085938,-0.16601 l -0.1640626,-0.50391 a 0.13230489,0.13230489 0 0 0 -0.1445312,-0.0899 z"></path><path style="color:#000000;font-style:normal;font-variant:normal;font-weight:normal;font-stretch:normal;font-size:medium;line-height:normal;font-family:sans-serif;text-indent:0;text-align:start;text-decoration:none;text-decoration-line:none;text-decoration-style:solid;text-decoration-color:#000000;letter-spacing:normal;word-spacing:normal;text-transform:none;direction:ltr;block-progression:tb;writing-mode:lr-tb;baseline-shift:baseline;text-anchor:start;white-space:normal;clip-rule:nonzero;display:inline;overflow:visible;visibility:visible;opacity:1;isolation:auto;mix-blend-mode:normal;color-interpolation:sRGB;color-interpolation-filters:linearRGB;solid-color:#000000;solid-opacity:1;fill:#FF3366;fill-opacity:1;fill-rule:evenodd;stroke:none;stroke-width:0.26458332px;stroke-linecap:butt;stroke-linejoin:round;stroke-miterlimit:4;stroke-dasharray:none;stroke-dashoffset:0;stroke-opacity:1;color-rendering:auto;image-rendering:auto;shape-rendering:auto;text-rendering:auto;enable-background:accumulate" d="m 3.5625,293.01367 -0.3496094,0.48242 a 0.13230489,0.13230489 0 0 0 0.029297,0.18555 l 0.4277344,0.31055 a 0.13230489,0.13230489 0 0 0 0.1855469,-0.0293 l 0.3496093,-0.48242 -0.2148437,-0.1543 -0.2714844,0.37305 -0.2128906,-0.1543 0.2714844,-0.375 L 3.5625,293.01367 Z"></path><path style="color:#000000;font-style:normal;font-variant:normal;font-weight:normal;font-stretch:normal;font-size:medium;line-height:normal;font-family:sans-serif;text-indent:0;text-align:start;text-decoration:none;text-decoration-line:none;text-decoration-style:solid;text-decoration-color:#000000;letter-spacing:normal;word-spacing:normal;text-transform:none;direction:ltr;block-progression:tb;writing-mode:lr-tb;baseline-shift:baseline;text-anchor:start;white-space:normal;clip-rule:nonzero;display:inline;overflow:visible;visibility:visible;opacity:1;isolation:auto;mix-blend-mode:normal;color-interpolation:sRGB;color-interpolation-filters:linearRGB;solid-color:#000000;solid-opacity:1;fill:#FF3366;fill-opacity:1;fill-rule:evenodd;stroke:none;stroke-width:0.26458332px;stroke-linecap:butt;stroke-linejoin:round;stroke-miterlimit:4;stroke-dasharray:none;stroke-dashoffset:0;stroke-opacity:1;color-rendering:auto;image-rendering:auto;shape-rendering:auto;text-rendering:auto;enable-background:accumulate" d="m 4.9042969,293.01367 -0.2128907,0.15625 0.2714844,0.375 -0.2148437,0.15625 -0.2714844,-0.375 -0.2128906,0.1543 0.3496093,0.48242 a 0.13230489,0.13230489 0 0 0 0.1835938,0.0293 l 0.4296875,-0.31055 a 0.13230489,0.13230489 0 0 0 0.029297,-0.18555 l -0.3515625,-0.48242 z"></path><path d="m 5.0932284,291.77448 a 0.13229166,0.13229166 0 0 1 -0.1322917,0.13229 0.13229166,0.13229166 0 0 1 -0.1322916,-0.13229 0.13229166,0.13229166 0 0 1 0.1322916,-0.1323 0.13229166,0.13229166 0 0 1 0.1322917,0.1323 z" style="opacity:1;fill:#FF3366;fill-opacity:1;stroke:none;stroke-width:0.26458332;stroke-linecap:round;stroke-linejoin:round;stroke-miterlimit:4;stroke-dasharray:none;stroke-opacity:1"></path><path style="opacity:1;fill:#FF3366;fill-opacity:1;stroke:none;stroke-width:0.26458332;stroke-linecap:round;stroke-linejoin:round;stroke-miterlimit:4;stroke-dasharray:none;stroke-opacity:1" d="m 3.6380201,291.77448 a 0.13229166,0.13229166 0 0 1 -0.1322917,0.13229 0.13229166,0.13229166 0 0 1 -0.1322917,-0.13229 0.13229166,0.13229166 0 0 1 0.1322917,-0.1323 0.13229166,0.13229166 0 0 1 0.1322917,0.1323 z"></path><path d="m 4.3656242,293.95729 a 0.13229166,0.13229166 0 0 1 -0.1322916,0.13229 0.13229166,0.13229166 0 0 1 -0.1322917,-0.13229 0.13229166,0.13229166 0 0 1 0.1322917,-0.13229 0.13229166,0.13229166 0 0 1 0.1322916,0.13229 z" style="opacity:1;fill:#FF3366;fill-opacity:1;stroke:none;stroke-width:0.26458332;stroke-linecap:round;stroke-linejoin:round;stroke-miterlimit:4;stroke-dasharray:none;stroke-opacity:1"></path><path style="opacity:1;fill:#FF3366;fill-opacity:1;stroke:none;stroke-width:0.26458332;stroke-linecap:round;stroke-linejoin:round;stroke-miterlimit:4;stroke-dasharray:none;stroke-opacity:1" d="m 5.4901034,293.09739 a 0.13229166,0.13229166 0 0 1 -0.1322917,0.13229 0.13229166,0.13229166 0 0 1 -0.1322916,-0.13229 0.13229166,0.13229166 0 0 1 0.1322916,-0.13229 0.13229166,0.13229166 0 0 1 0.1322917,0.13229 z"></path><path d="m 3.2411448,293.09739 a 0.13229166,0.13229166 0 0 1 -0.1322917,0.13229 0.13229166,0.13229166 0 0 1 -0.1322916,-0.13229 0.13229166,0.13229166 0 0 1 0.1322916,-0.13229 0.13229166,0.13229166 0 0 1 0.1322917,0.13229 z" style="opacity:1;fill:#FF3366;fill-opacity:1;stroke:none;stroke-width:0.26458332;stroke-linecap:round;stroke-linejoin:round;stroke-miterlimit:4;stroke-dasharray:none;stroke-opacity:1"></path><path style="opacity:1;fill:#FF3366;fill-opacity:1;stroke:none;stroke-width:0.26458332;stroke-linecap:round;stroke-linejoin:round;stroke-miterlimit:4;stroke-dasharray:none;stroke-opacity:1" d="m 5.9531242,292.2375 a 0.13229166,0.13229166 0 0 1 -0.1322917,0.13229 0.13229166,0.13229166 0 0 1 -0.1322916,-0.13229 0.13229166,0.13229166 0 0 1 0.1322916,-0.1323 0.13229166,0.13229166 0 0 1 0.1322917,0.1323 z"></path><path d="m 2.5135425,292.2375 a 0.13229166,0.13229166 0 0 0 0.1322917,0.13229 0.13229166,0.13229166 0 0 0 0.1322916,-0.13229 0.13229166,0.13229166 0 0 0 -0.1322916,-0.1323 0.13229166,0.13229166 0 0 0 -0.1322917,0.1323 z" style="opacity:1;fill:#FF3366;fill-opacity:1;stroke:none;stroke-width:0.26458332;stroke-linecap:round;stroke-linejoin:round;stroke-miterlimit:4;stroke-dasharray:none;stroke-opacity:1"></path><path style="color:#000000;font-style:normal;font-variant:normal;font-weight:normal;font-stretch:normal;font-size:medium;line-height:normal;font-family:sans-serif;text-indent:0;text-align:start;text-decoration:none;text-decoration-line:none;text-decoration-style:solid;text-decoration-color:#000000;letter-spacing:normal;word-spacing:normal;text-transform:none;direction:ltr;block-progression:tb;writing-mode:lr-tb;baseline-shift:baseline;text-anchor:start;white-space:normal;clip-rule:nonzero;display:inline;overflow:visible;visibility:visible;opacity:1;isolation:auto;mix-blend-mode:normal;color-interpolation:sRGB;color-interpolation-filters:linearRGB;solid-color:#000000;solid-opacity:1;fill:#FF3366;fill-opacity:1;fill-rule:nonzero;stroke:none;stroke-width:0.26458329;stroke-linecap:round;stroke-linejoin:round;stroke-miterlimit:4;stroke-dasharray:none;stroke-dashoffset:0;stroke-opacity:1;color-rendering:auto;image-rendering:auto;shape-rendering:auto;text-rendering:auto;enable-background:accumulate" d="m 4.2324219,290.51758 c -1.2404957,0 -2.248043,1.0095 -2.2480469,2.25 -2e-6,1.2405 1.0075471,2.24804 2.2480469,2.24804 1.2404998,10e-6 2.250002,-1.00754 2.25,-2.24804 -3.9e-6,-1.2405 -1.0095044,-2.25 -2.25,-2.25 z m 0,0.26562 c 1.0975045,0 1.9843716,0.88687 1.984375,1.98438 1.7e-6,1.09751 -0.8868668,1.98437 -1.984375,1.98437 -1.0975082,0 -1.9843768,-0.88686 -1.984375,-1.98437 3.4e-6,-1.09751 0.8868705,-1.98438 1.984375,-1.98438 z"></path><path style="opacity:1;fill:#FF3366;fill-opacity:1;stroke:none;stroke-width:0.26458332;stroke-linecap:round;stroke-linejoin:round;stroke-miterlimit:4;stroke-dasharray:none;stroke-opacity:1" d="m 3.1088534,294.15572 a 0.13229166,0.13229166 0 0 0 0.1322917,0.1323 0.13229166,0.13229166 0 0 0 0.1322916,-0.1323 0.13229166,0.13229166 0 0 0 -0.1322916,-0.13229 0.13229166,0.13229166 0 0 0 -0.1322917,0.13229 z"></path><path d="m 5.3578133,294.15572 a 0.13229166,0.13229166 0 0 1 -0.1322917,0.1323 0.13229166,0.13229166 0 0 1 -0.1322916,-0.1323 0.13229166,0.13229166 0 0 1 0.1322916,-0.13229 0.13229166,0.13229166 0 0 1 0.1322917,0.13229 z" style="opacity:1;fill:#FF3366;fill-opacity:1;stroke:none;stroke-width:0.26458332;stroke-linecap:round;stroke-linejoin:round;stroke-miterlimit:4;stroke-dasharray:none;stroke-opacity:1"></path><path style="opacity:1;fill:#FF3366;fill-opacity:1;stroke:none;stroke-width:0.26458332;stroke-linecap:round;stroke-linejoin:round;stroke-miterlimit:4;stroke-dasharray:none;stroke-opacity:1" d="m 4.3656242,291.11302 a 0.13229166,0.13229166 0 0 1 -0.1322916,0.13229 0.13229166,0.13229166 0 0 1 -0.1322917,-0.13229 0.13229166,0.13229166 0 0 1 0.1322917,-0.13229 0.13229166,0.13229166 0 0 1 0.1322916,0.13229 z"></path><path d="m 4.365625,292.76666 a 0.13229166,0.13229166 0 0 1 -0.1322916,0.13229 0.13229166,0.13229166 0 0 1 -0.1322917,-0.13229 0.13229166,0.13229166 0 0 1 0.1322917,-0.13229 0.13229166,0.13229166 0 0 1 0.1322916,0.13229 z" style="opacity:1;fill:#FF3366;fill-opacity:1;stroke:none;stroke-width:0.26458332;stroke-linecap:round;stroke-linejoin:round;stroke-miterlimit:4;stroke-dasharray:none;stroke-opacity:1"></path></g></svg>