<svg fill="#FF3366" xmlns="http://www.w3.org/2000/svg" xmlns:xlink="http://www.w3.org/1999/xlink" version="1.2" baseProfile="tiny" x="0px" y="0px" viewBox="0 0 128 128" xml:space="preserve"><path fill="none" stroke="#FF3366" stroke-width="4" stroke-linecap="square" stroke-linejoin="round" stroke-miterlimit="10" d="  M59,46.2c3.5-3.5,0-7.1,0-7.1S35.7,15.8,32.1,12.3s-7.1,0-7.1,0L5.3,32.1c0,0-3.5,3.5,0,7.1S32.1,66,32.1,66s3.5,3.5,7.1,0L59,46.2z  "></path><line fill="none" stroke="#FF3366" stroke-width="4" stroke-linecap="square" stroke-linejoin="round" stroke-miterlimit="10" x1="7.4" y1="41.3" x2="34.3" y2="14.4"></line><line fill="none" stroke="#FF3366" stroke-width="4" stroke-linecap="square" stroke-linejoin="round" stroke-miterlimit="10" x1="13" y1="46.9" x2="39.9" y2="20"></line><ellipse transform="matrix(0.7071 -0.7071 0.7071 0.7071 -20.6016 39.837)" fill="none" stroke="#FF3366" stroke-width="4" stroke-linecap="square" stroke-linejoin="round" stroke-miterlimit="10" cx="37.8" cy="44.8" rx="8" ry="8"></ellipse><ellipse transform="matrix(0.7071 -0.7071 0.7071 0.7071 -41.9828 91.4558)" fill="none" stroke="#FF3366" stroke-width="4" stroke-linecap="square" stroke-linejoin="round" stroke-miterlimit="10" cx="89.4" cy="96.4" rx="12" ry="12"></ellipse><path fill="none" stroke="#FF3366" stroke-width="4" stroke-linecap="square" stroke-linejoin="round" stroke-miterlimit="10" d="  M96,116.6l13.6-13.6c-1-3.7-0.2-7.8,2.4-10.8L93.6,73.7c-3.1,2.6-7.1,3.4-10.8,2.4L69.2,89.8c1,3.7,0.2,7.8-2.4,10.8l18.5,18.5  C88.3,116.5,92.3,115.7,96,116.6z"></path><line fill="none" stroke="#FF3366" stroke-width="4" stroke-linecap="square" stroke-linejoin="round" stroke-miterlimit="10" x1="76.7" y1="109.1" x2="80.9" y2="104.9"></line><line fill="none" stroke="#FF3366" stroke-width="4" stroke-linecap="square" stroke-linejoin="round" stroke-miterlimit="10" x1="97.9" y1="87.9" x2="102.1" y2="83.7"></line><line fill="none" stroke="#FF3366" stroke-width="4" stroke-linecap="square" stroke-linejoin="round" stroke-miterlimit="10" x1="45.6" y1="59.6" x2="72.4" y2="86.5"></line><line fill="none" stroke="#FF3366" stroke-width="4" stroke-linecap="square" stroke-linejoin="round" stroke-miterlimit="10" x1="52.6" y1="52.6" x2="79.5" y2="79.4"></line><path fill="none" stroke="#FF3366" stroke-width="4" stroke-linecap="square" stroke-linejoin="round" stroke-miterlimit="10" d="  M88.8,66c3.5,3.5,7.1,0,7.1,0s23.3-23.3,26.9-26.9c3.5-3.5,0-7.1,0-7.1l-19.8-19.8c0,0-3.5-3.5-7.1,0C92.3,15.8,69,39.1,69,39.1  s-3.5,3.5,0,7.1L88.8,66z"></path><line fill="none" stroke="#FF3366" stroke-width="4" stroke-linecap="square" stroke-linejoin="round" stroke-miterlimit="10" x1="93.7" y1="14.4" x2="120.6" y2="41.3"></line><line fill="none" stroke="#FF3366" stroke-width="4" stroke-linecap="square" stroke-linejoin="round" stroke-miterlimit="10" x1="88.1" y1="20" x2="115" y2="46.9"></line><ellipse transform="matrix(0.7071 -0.7071 0.7071 0.7071 -5.2462 76.9081)" fill="none" stroke="#FF3366" stroke-width="4" stroke-linecap="square" stroke-linejoin="round" stroke-miterlimit="10" cx="90.2" cy="44.8" rx="8" ry="8"></ellipse><ellipse transform="matrix(0.7071 -0.7071 0.7071 0.7071 -56.865 55.5269)" fill="none" stroke="#FF3366" stroke-width="4" stroke-linecap="square" stroke-linejoin="round" stroke-miterlimit="10" cx="38.6" cy="96.4" rx="12" ry="12"></ellipse><path fill="none" stroke="#FF3366" stroke-width="4" stroke-linecap="square" stroke-linejoin="round" stroke-miterlimit="10" d="  M18.4,103L32,116.6c3.7-1,7.8-0.2,10.8,2.4l18.5-18.5c-2.6-3.1-3.4-7.1-2.4-10.8L45.2,76.2c-3.7,1-7.8,0.2-10.8-2.4L15.9,92.2  C18.5,95.3,19.3,99.3,18.4,103z"></path><line fill="none" stroke="#FF3366" stroke-width="4" stroke-linecap="square" stroke-linejoin="round" stroke-miterlimit="10" x1="25.9" y1="83.7" x2="30.1" y2="87.9"></line><line fill="none" stroke="#FF3366" stroke-width="4" stroke-linecap="square" stroke-linejoin="round" stroke-miterlimit="10" x1="47.1" y1="104.9" x2="51.3" y2="109.1"></line><line fill="none" stroke="#FF3366" stroke-width="4" stroke-linecap="square" stroke-linejoin="round" stroke-miterlimit="10" x1="56.9" y1="71" x2="48.5" y2="79.4"></line><line fill="none" stroke="#FF3366" stroke-width="4" stroke-linecap="square" stroke-linejoin="round" stroke-miterlimit="10" x1="75.4" y1="52.6" x2="64.2" y2="63.7"></line><line fill="none" stroke="#FF3366" stroke-width="4" stroke-linecap="square" stroke-linejoin="round" stroke-miterlimit="10" x1="64" y1="78.1" x2="55.6" y2="86.5"></line><line fill="none" stroke="#FF3366" stroke-width="4" stroke-linecap="square" stroke-linejoin="round" stroke-miterlimit="10" x1="82.4" y1="59.6" x2="71.3" y2="70.8"></line></svg>