<svg fill="#FF3366" xmlns:dc="http://purl.org/dc/elements/1.1/" xmlns:cc="http://creativecommons.org/ns#" xmlns:rdf="http://www.w3.org/1999/02/22-rdf-syntax-ns#" xmlns:svg="http://www.w3.org/2000/svg" xmlns="http://www.w3.org/2000/svg" xmlns:sodipodi="http://sodipodi.sourceforge.net/DTD/sodipodi-0.dtd" xmlns:inkscape="http://www.inkscape.org/namespaces/inkscape" viewBox="0 0 8.4666665 8.4666669" version="1.1" x="0px" y="0px"><g transform="translate(0,-288.53332)"><path d="m 1.7057699,293.83789 -0.092488,-0.2461 0.5605469,-0.22265 c 0.3456603,-0.13764 0.7305116,-0.13764 1.0761719,0 l 0.5429688,0.21484 -0.089388,0.24507 -0.5512369,-0.21577 c -0.2828849,-0.11265 -0.5979745,-0.11265 -0.8808594,0 z" style="color:#000000;font-style:normal;font-variant:normal;font-weight:normal;font-stretch:normal;font-size:medium;line-height:normal;font-family:sans-serif;text-indent:0;text-align:start;text-decoration:none;text-decoration-line:none;text-decoration-style:solid;text-decoration-color:#000000;letter-spacing:normal;word-spacing:normal;text-transform:none;direction:ltr;block-progression:tb;writing-mode:lr-tb;baseline-shift:baseline;text-anchor:start;white-space:normal;clip-rule:nonzero;display:inline;overflow:visible;visibility:visible;opacity:1;isolation:auto;mix-blend-mode:normal;color-interpolation:sRGB;color-interpolation-filters:linearRGB;solid-color:#000000;solid-opacity:1;fill:#FF3366;fill-opacity:1;fill-rule:evenodd;stroke:none;stroke-width:0.26458332px;stroke-linecap:butt;stroke-linejoin:miter;stroke-miterlimit:4;stroke-dasharray:none;stroke-dashoffset:0;stroke-opacity:1;color-rendering:auto;image-rendering:auto;shape-rendering:auto;text-rendering:auto;enable-background:accumulate"></path><path d="m 6.761027,293.83686 -0.5657145,-0.22358 c -0.2828849,-0.11265 -0.5979745,-0.11265 -0.8808594,0 l -0.5440022,0.21163 -0.096623,-0.24093 0.5429688,-0.21484 c 0.3456603,-0.13764 0.7305115,-0.13764 1.0761719,0 l 0.5605468,0.22265 z" style="color:#000000;font-style:normal;font-variant:normal;font-weight:normal;font-stretch:normal;font-size:medium;line-height:normal;font-family:sans-serif;text-indent:0;text-align:start;text-decoration:none;text-decoration-line:none;text-decoration-style:solid;text-decoration-color:#000000;letter-spacing:normal;word-spacing:normal;text-transform:none;direction:ltr;block-progression:tb;writing-mode:lr-tb;baseline-shift:baseline;text-anchor:start;white-space:normal;clip-rule:nonzero;display:inline;overflow:visible;visibility:visible;opacity:1;isolation:auto;mix-blend-mode:normal;color-interpolation:sRGB;color-interpolation-filters:linearRGB;solid-color:#000000;solid-opacity:1;fill:#FF3366;fill-opacity:1;fill-rule:evenodd;stroke:none;stroke-width:0.26458332px;stroke-linecap:butt;stroke-linejoin:miter;stroke-miterlimit:4;stroke-dasharray:none;stroke-dashoffset:0;stroke-opacity:1;color-rendering:auto;image-rendering:auto;shape-rendering:auto;text-rendering:auto;enable-background:accumulate"></path><path style="color:#000000;font-style:normal;font-variant:normal;font-weight:normal;font-stretch:normal;font-size:medium;line-height:normal;font-family:sans-serif;text-indent:0;text-align:start;text-decoration:none;text-decoration-line:none;text-decoration-style:solid;text-decoration-color:#000000;letter-spacing:normal;word-spacing:normal;text-transform:none;direction:ltr;block-progression:tb;writing-mode:lr-tb;baseline-shift:baseline;text-anchor:start;white-space:normal;clip-rule:nonzero;display:inline;overflow:visible;visibility:visible;opacity:1;isolation:auto;mix-blend-mode:normal;color-interpolation:sRGB;color-interpolation-filters:linearRGB;solid-color:#000000;solid-opacity:1;fill:#FF3366;fill-opacity:1;fill-rule:nonzero;stroke:none;stroke-width:0.26458332;stroke-linecap:round;stroke-linejoin:round;stroke-miterlimit:4;stroke-dasharray:none;stroke-dashoffset:0;stroke-opacity:1;color-rendering:auto;image-rendering:auto;shape-rendering:auto;text-rendering:auto;enable-background:accumulate" d="m 4.2324219,291.57617 c -0.6559957,0 -1.1894511,0.53541 -1.1894531,1.19141 -4.2e-6,0.656 0.5334531,1.18945 1.1894531,1.18945 0.6559999,0 1.1914104,-0.53345 1.1914062,-1.18945 -2e-6,-0.656 -0.5354106,-1.19141 -1.1914062,-1.19141 z m 0,0.26367 c 0.5130045,0 0.9277328,0.41473 0.9277343,0.92774 3.3e-6,0.51301 -0.4147264,0.92578 -0.9277343,0.92578 -0.513008,0 -0.9257845,-0.41277 -0.9257813,-0.92578 1.6e-6,-0.51301 0.4127768,-0.92774 0.9257813,-0.92774 z"></path><path style="color:#000000;font-style:normal;font-variant:normal;font-weight:normal;font-stretch:normal;font-size:medium;line-height:normal;font-family:sans-serif;text-indent:0;text-align:start;text-decoration:none;text-decoration-line:none;text-decoration-style:solid;text-decoration-color:#000000;letter-spacing:normal;word-spacing:normal;text-transform:none;direction:ltr;block-progression:tb;writing-mode:lr-tb;baseline-shift:baseline;text-anchor:start;white-space:normal;clip-rule:nonzero;display:inline;overflow:visible;visibility:visible;opacity:1;isolation:auto;mix-blend-mode:normal;color-interpolation:sRGB;color-interpolation-filters:linearRGB;solid-color:#000000;solid-opacity:1;fill:#FF3366;fill-opacity:1;fill-rule:nonzero;stroke:none;stroke-width:0.26458332;stroke-linecap:round;stroke-linejoin:round;stroke-miterlimit:4;stroke-dasharray:none;stroke-dashoffset:0;stroke-opacity:1;color-rendering:auto;image-rendering:auto;shape-rendering:auto;text-rendering:auto;enable-background:accumulate" d="m 4.2324219,292.23828 c -0.2906812,0 -0.5273401,0.23862 -0.5273438,0.5293 -3.6e-6,0.29068 0.2366575,0.52734 0.5273438,0.52734 0.2906862,0 0.5293005,-0.23666 0.5292969,-0.52734 -3.7e-6,-0.29068 -0.2386157,-0.5293 -0.5292969,-0.5293 z m 0,0.26367 c 0.1476909,0 0.2656231,0.11794 0.265625,0.26563 1.8e-6,0.14769 -0.1179314,0.26367 -0.265625,0.26367 -0.1476937,0 -0.2636738,-0.11598 -0.2636719,-0.26367 1.9e-6,-0.14769 0.1159809,-0.26563 0.2636719,-0.26563 z"></path><path style="color:#000000;font-style:normal;font-variant:normal;font-weight:normal;font-stretch:normal;font-size:medium;line-height:normal;font-family:sans-serif;text-indent:0;text-align:start;text-decoration:none;text-decoration-line:none;text-decoration-style:solid;text-decoration-color:#000000;letter-spacing:normal;word-spacing:normal;text-transform:none;direction:ltr;block-progression:tb;writing-mode:lr-tb;baseline-shift:baseline;text-anchor:start;white-space:normal;clip-rule:nonzero;display:inline;overflow:visible;visibility:visible;opacity:1;isolation:auto;mix-blend-mode:normal;color-interpolation:sRGB;color-interpolation-filters:linearRGB;solid-color:#000000;solid-opacity:1;fill:#FF3366;fill-opacity:1;fill-rule:nonzero;stroke:none;stroke-width:0.26458332;stroke-linecap:round;stroke-linejoin:round;stroke-miterlimit:4;stroke-dasharray:none;stroke-dashoffset:0;stroke-opacity:1;color-rendering:auto;image-rendering:auto;shape-rendering:auto;text-rendering:auto;enable-background:accumulate" d="m 1.1914062,292.23828 c -0.29068112,0 -0.52929316,0.23862 -0.52929682,0.5293 -3.67e-6,0.29068 0.23861062,0.52734 0.52929682,0.52734 0.2906863,0 0.5293006,-0.23666 0.5292969,-0.52734 -3.6e-6,-0.29068 -0.2386157,-0.5293 -0.5292969,-0.5293 z m 0,0.26367 c 0.147691,0 0.2636701,0.11794 0.2636719,0.26563 1.9e-6,0.14769 -0.1159782,0.26367 -0.2636719,0.26367 -0.1476936,0 -0.26562681,-0.11598 -0.26562495,-0.26367 1.86e-6,-0.14769 0.11793405,-0.26563 0.26562495,-0.26563 z"></path><path style="color:#000000;font-style:normal;font-variant:normal;font-weight:normal;font-stretch:normal;font-size:medium;line-height:normal;font-family:sans-serif;text-indent:0;text-align:start;text-decoration:none;text-decoration-line:none;text-decoration-style:solid;text-decoration-color:#000000;letter-spacing:normal;word-spacing:normal;text-transform:none;direction:ltr;block-progression:tb;writing-mode:lr-tb;baseline-shift:baseline;text-anchor:start;white-space:normal;clip-rule:nonzero;display:inline;overflow:visible;visibility:visible;opacity:1;isolation:auto;mix-blend-mode:normal;color-interpolation:sRGB;color-interpolation-filters:linearRGB;solid-color:#000000;solid-opacity:1;fill:#FF3366;fill-opacity:1;fill-rule:nonzero;stroke:none;stroke-width:0.26458332;stroke-linecap:round;stroke-linejoin:round;stroke-miterlimit:4;stroke-dasharray:none;stroke-dashoffset:0;stroke-opacity:1;color-rendering:auto;image-rendering:auto;shape-rendering:auto;text-rendering:auto;enable-background:accumulate" d="m 1.1914062,291.57617 c -0.65599557,0 -1.1914041545333,0.53541 -1.1914062,1.19141 -4.1529448e-6,0.656 0.53540628,1.18945 1.1914062,1.18945 0.6560001,0 1.1894573,-0.53345 1.1894532,-1.18945 -2.1e-6,-0.656 -0.5334575,-1.19141 -1.1894532,-1.19141 z m 0,0.26367 c 0.5130046,0 0.9257797,0.41473 0.9257813,0.92774 3.2e-6,0.51301 -0.4127733,0.92578 -0.9257813,0.92578 -0.51300789,0 -0.92773757,-0.41277 -0.92773432,-0.92578 1.59e-6,-0.51301 0.4147299,-0.92774 0.92773432,-0.92774 z"></path><path style="color:#000000;font-style:normal;font-variant:normal;font-weight:normal;font-stretch:normal;font-size:medium;line-height:normal;font-family:sans-serif;text-indent:0;text-align:start;text-decoration:none;text-decoration-line:none;text-decoration-style:solid;text-decoration-color:#000000;letter-spacing:normal;word-spacing:normal;text-transform:none;direction:ltr;block-progression:tb;writing-mode:lr-tb;baseline-shift:baseline;text-anchor:start;white-space:normal;clip-rule:nonzero;display:inline;overflow:visible;visibility:visible;opacity:1;isolation:auto;mix-blend-mode:normal;color-interpolation:sRGB;color-interpolation-filters:linearRGB;solid-color:#000000;solid-opacity:1;fill:#FF3366;fill-opacity:1;fill-rule:evenodd;stroke:none;stroke-width:0.26458332px;stroke-linecap:butt;stroke-linejoin:miter;stroke-miterlimit:4;stroke-dasharray:none;stroke-dashoffset:0;stroke-opacity:1;color-rendering:auto;image-rendering:auto;shape-rendering:auto;text-rendering:auto;enable-background:accumulate" d="m 1.7057699,291.69531 -0.092488,0.2461 0.5605469,0.22265 c 0.3456603,0.13764 0.7305116,0.13764 1.0761719,0 l 0.5429688,-0.21484 -0.089388,-0.24507 -0.5512369,0.21577 c -0.2828849,0.11265 -0.5979745,0.11265 -0.8808594,0 z"></path><path style="color:#000000;font-style:normal;font-variant:normal;font-weight:normal;font-stretch:normal;font-size:medium;line-height:normal;font-family:sans-serif;text-indent:0;text-align:start;text-decoration:none;text-decoration-line:none;text-decoration-style:solid;text-decoration-color:#000000;letter-spacing:normal;word-spacing:normal;text-transform:none;direction:ltr;block-progression:tb;writing-mode:lr-tb;baseline-shift:baseline;text-anchor:start;white-space:normal;clip-rule:nonzero;display:inline;overflow:visible;visibility:visible;opacity:1;isolation:auto;mix-blend-mode:normal;color-interpolation:sRGB;color-interpolation-filters:linearRGB;solid-color:#000000;solid-opacity:1;fill:#FF3366;fill-opacity:1;fill-rule:nonzero;stroke:none;stroke-width:0.26458332;stroke-linecap:round;stroke-linejoin:round;stroke-miterlimit:4;stroke-dasharray:none;stroke-dashoffset:0;stroke-opacity:1;color-rendering:auto;image-rendering:auto;shape-rendering:auto;text-rendering:auto;enable-background:accumulate" d="m 7.2753906,291.57617 c -0.6559956,0 -1.1894511,0.53541 -1.1894531,1.19141 -4.2e-6,0.656 0.5334532,1.18945 1.1894531,1.18945 0.656,0 1.1914104,-0.53345 1.1914063,-1.18945 -2.1e-6,-0.656 -0.5354106,-1.19141 -1.1914063,-1.19141 z m 0,0.26367 c 0.5130045,0 0.9257797,0.41473 0.9257813,0.92774 3.2e-6,0.51301 -0.4127733,0.92578 -0.9257813,0.92578 -0.5130079,0 -0.9257845,-0.41277 -0.9257812,-0.92578 1.6e-6,-0.51301 0.4127767,-0.92774 0.9257812,-0.92774 z"></path><path style="color:#000000;font-style:normal;font-variant:normal;font-weight:normal;font-stretch:normal;font-size:medium;line-height:normal;font-family:sans-serif;text-indent:0;text-align:start;text-decoration:none;text-decoration-line:none;text-decoration-style:solid;text-decoration-color:#000000;letter-spacing:normal;word-spacing:normal;text-transform:none;direction:ltr;block-progression:tb;writing-mode:lr-tb;baseline-shift:baseline;text-anchor:start;white-space:normal;clip-rule:nonzero;display:inline;overflow:visible;visibility:visible;opacity:1;isolation:auto;mix-blend-mode:normal;color-interpolation:sRGB;color-interpolation-filters:linearRGB;solid-color:#000000;solid-opacity:1;fill:#FF3366;fill-opacity:1;fill-rule:evenodd;stroke:none;stroke-width:0.26458332px;stroke-linecap:butt;stroke-linejoin:miter;stroke-miterlimit:4;stroke-dasharray:none;stroke-dashoffset:0;stroke-opacity:1;color-rendering:auto;image-rendering:auto;shape-rendering:auto;text-rendering:auto;enable-background:accumulate" d="m 6.761027,291.69634 -0.5657145,0.22358 c -0.2828849,0.11265 -0.5979745,0.11265 -0.8808594,0 l -0.5440022,-0.21163 -0.096623,0.24093 0.5429688,0.21484 c 0.3456603,0.13764 0.7305115,0.13764 1.0761719,0 l 0.5605468,-0.22265 z"></path><path style="color:#000000;font-style:normal;font-variant:normal;font-weight:normal;font-stretch:normal;font-size:medium;line-height:normal;font-family:sans-serif;text-indent:0;text-align:start;text-decoration:none;text-decoration-line:none;text-decoration-style:solid;text-decoration-color:#000000;letter-spacing:normal;word-spacing:normal;text-transform:none;direction:ltr;block-progression:tb;writing-mode:lr-tb;baseline-shift:baseline;text-anchor:start;white-space:normal;clip-rule:nonzero;display:inline;overflow:visible;visibility:visible;opacity:1;isolation:auto;mix-blend-mode:normal;color-interpolation:sRGB;color-interpolation-filters:linearRGB;solid-color:#000000;solid-opacity:1;fill:#FF3366;fill-opacity:1;fill-rule:nonzero;stroke:none;stroke-width:0.26458332;stroke-linecap:round;stroke-linejoin:round;stroke-miterlimit:4;stroke-dasharray:none;stroke-dashoffset:0;stroke-opacity:1;color-rendering:auto;image-rendering:auto;shape-rendering:auto;text-rendering:auto;enable-background:accumulate" d="m 7.2753906,292.23828 c -0.2906812,0 -0.5292932,0.23862 -0.5292968,0.5293 -3.7e-6,0.29068 0.2386106,0.52734 0.5292968,0.52734 0.2906863,0 0.5293006,-0.23666 0.5292969,-0.52734 -3.7e-6,-0.29068 -0.2386157,-0.5293 -0.5292969,-0.5293 z m 0,0.26367 c 0.147691,0 0.2656232,0.11794 0.265625,0.26563 1.9e-6,0.14769 -0.1179313,0.26367 -0.265625,0.26367 -0.1476936,0 -0.2636737,-0.11598 -0.2636718,-0.26367 1.8e-6,-0.14769 0.1159809,-0.26563 0.2636718,-0.26563 z"></path></g></svg>