<svg fill="#FF3366" xmlns:dc="http://purl.org/dc/elements/1.1/" xmlns:cc="http://creativecommons.org/ns#" xmlns:rdf="http://www.w3.org/1999/02/22-rdf-syntax-ns#" xmlns:svg="http://www.w3.org/2000/svg" xmlns="http://www.w3.org/2000/svg" xmlns:sodipodi="http://sodipodi.sourceforge.net/DTD/sodipodi-0.dtd" xmlns:inkscape="http://www.inkscape.org/namespaces/inkscape" viewBox="0 0 8.4666665 8.4666669" version="1.1" x="0px" y="0px"><g transform="translate(0,-288.53332)"><path style="color:#000000;font-style:normal;font-variant:normal;font-weight:normal;font-stretch:normal;font-size:medium;line-height:normal;font-family:sans-serif;text-indent:0;text-align:start;text-decoration:none;text-decoration-line:none;text-decoration-style:solid;text-decoration-color:#000000;letter-spacing:normal;word-spacing:normal;text-transform:none;direction:ltr;block-progression:tb;writing-mode:lr-tb;baseline-shift:baseline;text-anchor:start;white-space:normal;clip-rule:nonzero;display:inline;overflow:visible;visibility:visible;opacity:1;isolation:auto;mix-blend-mode:normal;color-interpolation:sRGB;color-interpolation-filters:linearRGB;solid-color:#000000;solid-opacity:1;fill:#FF3366;fill-opacity:1;fill-rule:evenodd;stroke:none;stroke-width:0.26458335;stroke-linecap:round;stroke-linejoin:round;stroke-miterlimit:4;stroke-dasharray:none;stroke-dashoffset:0;stroke-opacity:1;color-rendering:auto;image-rendering:auto;shape-rendering:auto;text-rendering:auto;enable-background:accumulate" d="m 6.4801703,288.53371 a 0.13230677,0.1323049 0 0 0 -0.091798,0.0391 l -0.2636755,0.26364 a 0.13230677,0.1323049 0 1 0 0.1855495,0.1875 l 0.1718774,-0.16992 0.2089873,0.20898 -0.2636755,0.26367 -3.6504421,0 a 0.13230677,0.1323049 0 0 0 -0.093751,0.0391 l -0.3964901,0.39649 a 0.13230677,0.1323049 0 0 0 0,0.1875 l 0.3984431,0.39648 a 0.13230677,0.1323049 0 0 0 0.0918,0.0391 l 3.1211376,0 0.1328145,0.13281 -0.1718774,0.16992 a 0.1325844,0.13258252 0 1 0 0.1875025,0.1875 l 0.2636757,-0.26562 a 0.13230677,0.1323049 0 0 0 0,-0.18555 l -0.2636758,-0.2657 a 0.13230677,0.1323049 0 0 0 -0.093751,-0.0371 l -3.1211379,0 -0.2636755,-0.26562 0.2636755,-0.26367 3.6504423,0 a 0.13230677,0.1323049 0 0 0 0.093751,-0.0391 l 0.3964898,-0.39648 a 0.13230677,0.1323049 0 0 0 0,-0.1875 l -0.3964898,-0.39648 a 0.13230677,0.1323049 0 0 0 -0.095704,-0.0391 z"></path><path style="color:#000000;font-style:normal;font-variant:normal;font-weight:normal;font-stretch:normal;font-size:medium;line-height:normal;font-family:sans-serif;text-indent:0;text-align:start;text-decoration:none;text-decoration-line:none;text-decoration-style:solid;text-decoration-color:#000000;letter-spacing:normal;word-spacing:normal;text-transform:none;direction:ltr;block-progression:tb;writing-mode:lr-tb;baseline-shift:baseline;text-anchor:start;white-space:normal;clip-rule:nonzero;display:inline;overflow:visible;visibility:visible;opacity:1;isolation:auto;mix-blend-mode:normal;color-interpolation:sRGB;color-interpolation-filters:linearRGB;solid-color:#000000;solid-opacity:1;fill:#FF3366;fill-opacity:1;fill-rule:evenodd;stroke:none;stroke-width:0.26458335;stroke-linecap:round;stroke-linejoin:round;stroke-miterlimit:4;stroke-dasharray:none;stroke-dashoffset:0;stroke-opacity:1;color-rendering:auto;image-rendering:auto;shape-rendering:auto;text-rendering:auto;enable-background:accumulate" d="m 7.0114278,289.45949 a 0.13230677,0.1323049 0 0 0 -0.091798,0.22852 l 0.1679711,0.16797 -0.1679711,0.16992 a 0.13230677,0.1323049 0 1 0 0.1855496,0.1875 l 0.2636755,-0.26367 a 0.13230677,0.1323049 0 0 0 0,-0.1875 l -0.2636754,-0.26172 a 0.13230677,0.1323049 0 0 0 -0.093751,-0.041 z"></path><path style="color:#000000;font-style:normal;font-variant:normal;font-weight:normal;font-stretch:normal;font-size:medium;line-height:normal;font-family:sans-serif;text-indent:0;text-align:start;text-decoration:none;text-decoration-line:none;text-decoration-style:solid;text-decoration-color:#000000;letter-spacing:normal;word-spacing:normal;text-transform:none;direction:ltr;block-progression:tb;writing-mode:lr-tb;baseline-shift:baseline;text-anchor:start;white-space:normal;clip-rule:nonzero;display:inline;overflow:visible;visibility:visible;opacity:1;isolation:auto;mix-blend-mode:normal;color-interpolation:sRGB;color-interpolation-filters:linearRGB;solid-color:#000000;solid-opacity:1;fill:#FF3366;fill-opacity:1;fill-rule:evenodd;stroke:none;stroke-width:0.26458335;stroke-linecap:round;stroke-linejoin:round;stroke-miterlimit:4;stroke-dasharray:none;stroke-dashoffset:0;stroke-opacity:1;color-rendering:auto;image-rendering:auto;shape-rendering:auto;text-rendering:auto;enable-background:accumulate" d="m 1.5855698,289.98879 a 0.13230677,0.1323049 0 0 0 -0.091799,0.0391 l -0.39649,0.39649 a 0.13230677,0.1323049 0 0 0 0,0.1875 l 0.39649,0.39648 a 0.13230677,0.1323049 0 0 0 0.093751,0.0391 l 1.3203313,0 a 0.13230677,0.1323049 0 1 0 0,-0.26368 l -1.2656429,0 -0.2656289,-0.26562 0.2109405,-0.20899 0.1699244,0.16993 a 0.1325844,0.13258252 0 1 0 0.1875025,-0.1875 l -0.2636755,-0.26368 a 0.13230677,0.1323049 0 0 0 -0.095704,-0.0391 z"></path><path style="color:#000000;font-style:normal;font-variant:normal;font-weight:normal;font-stretch:normal;font-size:medium;line-height:normal;font-family:sans-serif;text-indent:0;text-align:start;text-decoration:none;text-decoration-line:none;text-decoration-style:solid;text-decoration-color:#000000;letter-spacing:normal;word-spacing:normal;text-transform:none;direction:ltr;block-progression:tb;writing-mode:lr-tb;baseline-shift:baseline;text-anchor:start;white-space:normal;clip-rule:nonzero;display:inline;overflow:visible;visibility:visible;opacity:1;isolation:auto;mix-blend-mode:normal;color-interpolation:sRGB;color-interpolation-filters:linearRGB;solid-color:#000000;solid-opacity:1;fill:#FF3366;fill-opacity:1;fill-rule:evenodd;stroke:none;stroke-width:0.26458335;stroke-linecap:butt;stroke-linejoin:miter;stroke-miterlimit:4;stroke-dasharray:none;stroke-dashoffset:0;stroke-opacity:1;color-rendering:auto;image-rendering:auto;shape-rendering:auto;text-rendering:auto;enable-background:accumulate" d="m 4.0250573,291.06106 c -0.2500644,0.0248 -0.5160232,0.14265 -0.7890736,0.39843 l -0.4492249,0.42188 c -0.2169438,0.20324 -0.2219289,0.54957 -0.011719,0.75976 L 3.81607,293.6841 4.0035726,293.4966 3.8356015,293.32668 4.929367,292.27395 C 5.2734662,291.9426 5.1565939,291.3497 4.7086606,291.1802 4.5003794,291.1014 4.2751217,291.03628 4.0250571,291.06106 Z m 0.025391,0.26367 c 0.1882714,-0.0187 0.3705415,0.0301 0.5644612,0.10351 0.2739475,0.10367 0.3427237,0.45029 0.1308612,0.6543 l -1.0976719,1.05859 -0.6855565,-0.6875 c -0.1069293,-0.10692 -0.1045068,-0.2755 0.00586,-0.3789 l 0.4492253,-0.42188 c 0.2417582,-0.22646 0.4445499,-0.30947 0.6328212,-0.32812 z"></path><path style="color:#000000;font-style:normal;font-variant:normal;font-weight:normal;font-stretch:normal;font-size:medium;line-height:normal;font-family:sans-serif;text-indent:0;text-align:start;text-decoration:none;text-decoration-line:none;text-decoration-style:solid;text-decoration-color:#000000;letter-spacing:normal;word-spacing:normal;text-transform:none;direction:ltr;block-progression:tb;writing-mode:lr-tb;baseline-shift:baseline;text-anchor:start;white-space:normal;clip-rule:nonzero;display:inline;overflow:visible;visibility:visible;opacity:1;isolation:auto;mix-blend-mode:normal;color-interpolation:sRGB;color-interpolation-filters:linearRGB;solid-color:#000000;solid-opacity:1;fill:#FF3366;fill-opacity:1;fill-rule:evenodd;stroke:none;stroke-width:0.26458335;stroke-linecap:butt;stroke-linejoin:miter;stroke-miterlimit:4;stroke-dasharray:none;stroke-dashoffset:0;stroke-opacity:1;color-rendering:auto;image-rendering:auto;shape-rendering:auto;text-rendering:auto;enable-background:accumulate" d="m 5.6520336,292.45363 -1.0410304,1.04297 0.1875026,0.1875 0.1699243,-0.16992 1.0527493,1.09375 c 0.3313496,0.34412 0.9223124,0.22916 1.0918122,-0.21875 0.078813,-0.20827 0.1458692,-0.43548 0.1210956,-0.68555 -0.024774,-0.25006 -0.1446077,-0.51406 -0.4003963,-0.7871 L 6.413763,292.46731 c -0.2033034,-0.21661 -0.5515276,-0.22388 -0.7617294,-0.0137 z m 0.1875026,0.1875 c 0.1069323,-0.10693 0.2775118,-0.10425 0.3808647,0.006 l 0.4199279,0.44922 c 0.2264742,0.24176 0.311431,0.44455 0.3300827,0.63282 0.018652,0.18827 -0.032092,0.37249 -0.1054702,0.5664 -0.1036601,0.27393 -0.4502902,0.34079 -0.654306,0.12891 l -1.0566556,-1.09766 0.6855565,-0.68555 z"></path><path style="color:#000000;font-style:normal;font-variant:normal;font-weight:normal;font-stretch:normal;font-size:medium;line-height:normal;font-family:sans-serif;text-indent:0;text-align:start;text-decoration:none;text-decoration-line:none;text-decoration-style:solid;text-decoration-color:#000000;letter-spacing:normal;word-spacing:normal;text-transform:none;direction:ltr;block-progression:tb;writing-mode:lr-tb;baseline-shift:baseline;text-anchor:start;white-space:normal;clip-rule:nonzero;display:inline;overflow:visible;visibility:visible;opacity:1;isolation:auto;mix-blend-mode:normal;color-interpolation:sRGB;color-interpolation-filters:linearRGB;solid-color:#000000;solid-opacity:1;fill:#FF3366;fill-opacity:1;fill-rule:evenodd;stroke:none;stroke-width:0.26458335;stroke-linecap:butt;stroke-linejoin:miter;stroke-miterlimit:4;stroke-dasharray:none;stroke-dashoffset:0;stroke-opacity:1;color-rendering:auto;image-rendering:auto;shape-rendering:auto;text-rendering:auto;enable-background:accumulate" d="m 4.8004589,294.22707 -0.1933619,0.18164 0.2793008,0.29492 -1.1172034,1.07813 c -0.3440994,0.33135 -0.22918,0.92425 0.218753,1.09375 0.2082814,0.0788 0.4354918,0.14392 0.6855566,0.11914 0.250065,-0.0248 0.5140706,-0.14265 0.7871207,-0.39844 l 0.4492249,-0.42187 c 0.2169367,-0.20325 0.2219219,-0.54956 0.011719,-0.75977 l 0.00391,0.002 -1.1250158,-1.18946 z m 0.2695352,0.66992 0.6640718,0.70313 0.00195,0.002 c 0.1069362,0.10694 0.1025606,0.2755 -0.00781,0.37891 l -0.4492249,0.42187 c -0.2417587,0.22648 -0.4445506,0.30948 -0.6328215,0.32813 -0.1882711,0.0186 -0.3705414,-0.0301 -0.5644612,-0.10352 -0.2739477,-0.10366 -0.3407706,-0.45028 -0.1289081,-0.65429 l 1.1172033,-1.07618 z"></path><path style="color:#000000;font-style:normal;font-variant:normal;font-weight:normal;font-stretch:normal;font-size:medium;line-height:normal;font-family:sans-serif;text-indent:0;text-align:start;text-decoration:none;text-decoration-line:none;text-decoration-style:solid;text-decoration-color:#000000;letter-spacing:normal;word-spacing:normal;text-transform:none;direction:ltr;block-progression:tb;writing-mode:lr-tb;baseline-shift:baseline;text-anchor:start;white-space:normal;clip-rule:nonzero;display:inline;overflow:visible;visibility:visible;opacity:1;isolation:auto;mix-blend-mode:normal;color-interpolation:sRGB;color-interpolation-filters:linearRGB;solid-color:#000000;solid-opacity:1;fill:#FF3366;fill-opacity:1;fill-rule:evenodd;stroke:none;stroke-width:0.26458335;stroke-linecap:butt;stroke-linejoin:miter;stroke-miterlimit:4;stroke-dasharray:none;stroke-dashoffset:0;stroke-opacity:1;color-rendering:auto;image-rendering:auto;shape-rendering:auto;text-rendering:auto;enable-background:accumulate" d="m 1.8375266,293.32668 c -0.2106405,0.0418 -0.399632,0.1823 -0.4843819,0.40625 -0.078812,0.20828 -0.1458691,0.43549 -0.1210954,0.68555 0.024773,0.25006 0.1446076,0.51406 0.4003961,0.78711 l 0.419928,0.45117 c 0.2033052,0.21661 0.5515279,0.22191 0.7617293,0.0117 l 1.18947,-1.19141 -0.1875026,-0.1875 -0.3164107,0.31838 -1.0547024,-1.09375 c -0.1656748,-0.17206 -0.3967901,-0.22931 -0.6074304,-0.1875 z m 0.4179746,0.3711 1.0566555,1.09765 -0.6855565,0.68555 c -0.1069325,0.10693 -0.2775138,0.10425 -0.3808648,-0.006 l -0.4218809,-0.44922 c -0.2264744,-0.24175 -0.3094779,-0.44454 -0.3281296,-0.63281 -0.018652,-0.18827 0.030138,-0.37249 0.103517,-0.56641 0.1036599,-0.27393 0.4522435,-0.34078 0.6562593,-0.1289 z"></path><path style="color:#000000;font-style:normal;font-variant:normal;font-weight:normal;font-stretch:normal;font-size:medium;line-height:normal;font-family:sans-serif;text-indent:0;text-align:start;text-decoration:none;text-decoration-line:none;text-decoration-style:solid;text-decoration-color:#000000;letter-spacing:normal;word-spacing:normal;text-transform:none;direction:ltr;block-progression:tb;writing-mode:lr-tb;baseline-shift:baseline;text-anchor:start;white-space:normal;clip-rule:nonzero;display:inline;overflow:visible;visibility:visible;opacity:1;isolation:auto;mix-blend-mode:normal;color-interpolation:sRGB;color-interpolation-filters:linearRGB;solid-color:#000000;solid-opacity:1;fill:#FF3366;fill-opacity:1;fill-rule:nonzero;stroke:none;stroke-width:0.26458335;stroke-linecap:butt;stroke-linejoin:round;stroke-miterlimit:4;stroke-dasharray:none;stroke-dashoffset:0;stroke-opacity:1;color-rendering:auto;image-rendering:auto;shape-rendering:auto;text-rendering:auto;enable-background:accumulate" d="m 4.3082646,293.32473 c -0.3637531,0 -0.662121,0.29836 -0.6621187,0.66211 4.6e-6,0.36374 0.2983703,0.66211 0.6621187,0.66211 0.3637483,0 0.6601609,-0.29837 0.6601655,-0.66211 2.4e-6,-0.36375 -0.2964124,-0.66211 -0.6601655,-0.66211 z m 0,0.26562 c 0.2207591,0 0.3964913,0.17573 0.3964898,0.39649 -2.8e-6,0.22075 -0.1757338,0.39648 -0.3964898,0.39648 -0.220756,0 -0.3984403,-0.17573 -0.3984432,-0.39648 -1.3e-6,-0.22076 0.1776841,-0.39649 0.3984432,-0.39649 z"></path></g></svg>