<svg fill="#20A4F3" xmlns="http://www.w3.org/2000/svg" xmlns:xlink="http://www.w3.org/1999/xlink" version="1.1" x="0px" y="0px" viewBox="0 0 100 100" enable-background="new 0 0 100 100" xml:space="preserve"><g><path d="M23.206,55.577c-0.965,11.6,5.276,25.109,18.313,26.243c12.065,1.049,16.058-12.574,16.667-22.19   c1.127-17.815-12.839-28.786-19.439-43.928c-0.643-1.475-2.796-0.201-2.159,1.262c0.272,0.624,0.563,1.239,0.862,1.849   c-0.069,0.064-0.135,0.138-0.195,0.223C29.794,29.647,24.287,42.584,23.206,55.577z M38.739,21.28   c6.282,11.316,16.208,20.745,16.964,34.357c0.5,9.004-2.514,25.548-14.824,23.573c-13.942-2.238-16.522-17.382-14.489-28.854   C28.216,40.059,32.842,29.92,38.739,21.28z"></path><path d="M76.072,29.495c7.437-8.524-16.369-20.283-22.073-21.7c-1.115-0.277-1.768,0.866-1.487,1.688   c0.231,6.752,3.222,13.845,7.472,19.01C64.074,33.462,71.527,34.705,76.072,29.495z M64.866,15.808   c3.391,2.12,9.596,5.893,9.897,10.429c0.184,2.767-4.315,4.118-6.346,4.239c-3.197,0.19-5.844-2.605-7.591-4.925   c-3.054-4.055-5.248-9.623-5.718-14.813C58.554,11.916,61.838,13.916,64.866,15.808z"></path><path d="M38.001,65.539c1.543,0.482,2.198-1.931,0.665-2.411c-2.881-0.9-3.172-4.71-2.46-7.129c0.456-1.55-1.956-2.208-2.411-0.665   C32.673,59.147,33.779,64.219,38.001,65.539z"></path></g></svg>