<svg fill="#FF3366" xmlns:dc="http://purl.org/dc/elements/1.1/" xmlns:cc="http://creativecommons.org/ns#" xmlns:rdf="http://www.w3.org/1999/02/22-rdf-syntax-ns#" xmlns:svg="http://www.w3.org/2000/svg" xmlns="http://www.w3.org/2000/svg" xmlns:sodipodi="http://sodipodi.sourceforge.net/DTD/sodipodi-0.dtd" xmlns:inkscape="http://www.inkscape.org/namespaces/inkscape" viewBox="0 0 8.4666665 8.4666669" version="1.1" x="0px" y="0px"><g transform="translate(0,-288.53332)"><path style="color:#000000;font-style:normal;font-variant:normal;font-weight:normal;font-stretch:normal;font-size:medium;line-height:normal;font-family:sans-serif;text-indent:0;text-align:start;text-decoration:none;text-decoration-line:none;text-decoration-style:solid;text-decoration-color:#000000;letter-spacing:normal;word-spacing:normal;text-transform:none;direction:ltr;block-progression:tb;writing-mode:lr-tb;baseline-shift:baseline;text-anchor:start;white-space:normal;clip-rule:nonzero;display:inline;overflow:visible;visibility:visible;opacity:1;isolation:auto;mix-blend-mode:normal;color-interpolation:sRGB;color-interpolation-filters:linearRGB;solid-color:#000000;solid-opacity:1;fill:#FF3366;fill-opacity:1;fill-rule:evenodd;stroke:none;stroke-width:0.26458335;stroke-linecap:round;stroke-linejoin:round;stroke-miterlimit:4;stroke-dasharray:none;stroke-dashoffset:0;stroke-opacity:1;color-rendering:auto;image-rendering:auto;shape-rendering:auto;text-rendering:auto;enable-background:accumulate" d="m 1.7734375,290.7832 c -0.1924837,0 -0.3577944,0.13846 -0.390625,0.32813 l -0.84765625,4.89648 c -0.0414955,0.2397 0.14735782,0.46289 0.390625,0.46289 l 6.61523435,0 c 0.2432672,0 0.4321205,-0.22319 0.390625,-0.46289 L 7.0839844,291.11133 C 7.0511537,290.92167 6.885843,290.7832 6.6933594,290.7832 l -4.9199219,0 z m 0,0.26368 4.9199219,0 c 0.065547,0 0.1196795,0.0448 0.1308594,0.10937 l 0.8476562,4.89648 c 0.01438,0.0831 -0.046558,0.1543 -0.1308594,0.1543 l -6.61523435,0 c -0.0843009,0 -0.14523908,-0.0712 -0.13085937,-0.1543 l 0.84765622,-4.89648 c 0.01118,-0.0646 0.065313,-0.10937 0.1308594,-0.10937 z"></path><path style="color:#000000;font-style:normal;font-variant:normal;font-weight:normal;font-stretch:normal;font-size:medium;line-height:normal;font-family:sans-serif;text-indent:0;text-align:start;text-decoration:none;text-decoration-line:none;text-decoration-style:solid;text-decoration-color:#000000;letter-spacing:normal;word-spacing:normal;text-transform:none;direction:ltr;block-progression:tb;writing-mode:lr-tb;baseline-shift:baseline;text-anchor:start;white-space:normal;clip-rule:nonzero;display:inline;overflow:visible;visibility:visible;opacity:1;isolation:auto;mix-blend-mode:normal;color-interpolation:sRGB;color-interpolation-filters:linearRGB;solid-color:#000000;solid-opacity:1;fill:#FF3366;fill-opacity:1;fill-rule:nonzero;stroke:none;stroke-width:0.26458335;stroke-linecap:round;stroke-linejoin:round;stroke-miterlimit:4;stroke-dasharray:none;stroke-dashoffset:0;stroke-opacity:1;color-rendering:auto;image-rendering:auto;shape-rendering:auto;text-rendering:auto;enable-background:accumulate" d="m 4.2324219,289.5918 c -0.4002766,0 -0.7265608,0.32628 -0.7265625,0.72656 -5e-6,0.40028 0.3262812,0.72851 0.7265625,0.72852 0.4002812,-10e-6 0.7285206,-0.32824 0.7285156,-0.72852 -1.7e-6,-0.40028 -0.3282391,-0.72656 -0.7285156,-0.72656 z m 0,0.26367 c 0.2572855,0 0.4648426,0.2056 0.4648437,0.46289 3.2e-6,0.25729 -0.2075551,0.46484 -0.4648437,0.46484 -0.2572886,0 -0.4628939,-0.20755 -0.4628907,-0.46484 1.2e-6,-0.25729 0.2056052,-0.46289 0.4628907,-0.46289 z"></path><path style="color:#000000;font-style:normal;font-variant:normal;font-weight:normal;font-stretch:normal;font-size:medium;line-height:normal;font-family:sans-serif;text-indent:0;text-align:start;text-decoration:none;text-decoration-line:none;text-decoration-style:solid;text-decoration-color:#000000;letter-spacing:normal;word-spacing:normal;text-transform:none;direction:ltr;block-progression:tb;writing-mode:lr-tb;baseline-shift:baseline;text-anchor:start;white-space:normal;clip-rule:nonzero;display:inline;overflow:visible;visibility:visible;opacity:1;isolation:auto;mix-blend-mode:normal;color-interpolation:sRGB;color-interpolation-filters:linearRGB;solid-color:#000000;solid-opacity:1;fill:#FF3366;fill-opacity:1;fill-rule:nonzero;stroke:none;stroke-width:0.26458335;stroke-linecap:butt;stroke-linejoin:round;stroke-miterlimit:4;stroke-dasharray:none;stroke-dashoffset:0;stroke-opacity:1;color-rendering:auto;image-rendering:auto;shape-rendering:auto;text-rendering:auto;enable-background:accumulate" d="m 4.2402344,289.0625 c -0.2949759,-0.002 -0.5906838,0.0997 -0.828125,0.30469 -0.4748706,0.40988 -0.5741913,1.1107 -0.2324219,1.63672 l 0.2207031,-0.14453 c -0.2707975,-0.41679 -0.1907121,-0.96626 0.1855469,-1.29102 0.3762684,-0.32475 0.9319552,-0.32295 1.3046875,0.006 0.3727299,0.32879 0.443231,0.88108 0.1679688,1.29492 l 0.2207031,0.14648 c 0.3474043,-0.5223 0.2555728,-1.2237 -0.2148438,-1.63867 -0.2352097,-0.20749 -0.5292428,-0.31285 -0.8242187,-0.31445 z"></path><path style="color:#000000;font-style:normal;font-variant:normal;font-weight:normal;font-stretch:normal;font-size:medium;line-height:normal;font-family:sans-serif;text-indent:0;text-align:start;text-decoration:none;text-decoration-line:none;text-decoration-style:solid;text-decoration-color:#000000;letter-spacing:normal;word-spacing:normal;text-transform:none;direction:ltr;block-progression:tb;writing-mode:lr-tb;baseline-shift:baseline;text-anchor:start;white-space:normal;clip-rule:nonzero;display:inline;overflow:visible;visibility:visible;opacity:1;isolation:auto;mix-blend-mode:normal;color-interpolation:sRGB;color-interpolation-filters:linearRGB;solid-color:#000000;solid-opacity:1;fill:#FF3366;fill-opacity:1;fill-rule:nonzero;stroke:none;stroke-width:0.26458335;stroke-linecap:round;stroke-linejoin:round;stroke-miterlimit:4;stroke-dasharray:none;stroke-dashoffset:0;stroke-opacity:1;color-rendering:auto;image-rendering:auto;shape-rendering:auto;text-rendering:auto;enable-background:accumulate" d="m 4.5449219,292.43555 a 0.1323049,0.1323049 0 0 0 -0.095703,0.0469 c 0,0 -0.3021379,0.35139 -0.5019532,0.70313 a 0.13251435,0.13251435 0 1 0 0.2304688,0.13086 c 0.1431656,-0.25202 0.2929816,-0.42755 0.375,-0.52735 0.057789,0.0706 0.1064055,0.12257 0.2109375,0.27344 0.077984,0.11255 0.1551412,0.23425 0.2109375,0.3457 0.055796,0.11146 0.085937,0.2145 0.085937,0.26368 0,0.28454 -0.226983,0.51171 -0.5097657,0.51171 -0.039091,0 -0.077091,-0.005 -0.1152343,-0.0137 A 0.13241216,0.13241216 0 1 0 4.375,294.42773 c 0.05581,0.0132 0.1142518,0.0215 0.1757812,0.0215 0.4262796,0 0.7734376,-0.35031 0.7734376,-0.77734 0,-0.12874 -0.048715,-0.25189 -0.1132813,-0.38086 -0.064567,-0.12898 -0.1479692,-0.25984 -0.2304687,-0.37891 -0.1649991,-0.23814 -0.3300782,-0.42969 -0.3300782,-0.42969 a 0.1323049,0.1323049 0 0 0 -0.1054687,-0.0469 z"></path><path style="color:#000000;font-style:normal;font-variant:normal;font-weight:normal;font-stretch:normal;font-size:medium;line-height:normal;font-family:sans-serif;text-indent:0;text-align:start;text-decoration:none;text-decoration-line:none;text-decoration-style:solid;text-decoration-color:#000000;letter-spacing:normal;word-spacing:normal;text-transform:none;direction:ltr;block-progression:tb;writing-mode:lr-tb;baseline-shift:baseline;text-anchor:start;white-space:normal;clip-rule:nonzero;display:inline;overflow:visible;visibility:visible;opacity:1;isolation:auto;mix-blend-mode:normal;color-interpolation:sRGB;color-interpolation-filters:linearRGB;solid-color:#000000;solid-opacity:1;fill:#FF3366;fill-opacity:1;fill-rule:nonzero;stroke:none;stroke-width:0.26458335;stroke-linecap:round;stroke-linejoin:round;stroke-miterlimit:4;stroke-dasharray:none;stroke-dashoffset:0;stroke-opacity:1;color-rendering:auto;image-rendering:auto;shape-rendering:auto;text-rendering:auto;enable-background:accumulate" d="m 3.7988281,292.80469 a 0.1323049,0.1323049 0 0 0 -0.082031,0.0449 c 0,0 -0.1650791,0.19155 -0.3300781,0.42969 -0.0825,0.11906 -0.1659021,0.24993 -0.2304688,0.3789 -0.064567,0.12897 -0.1132812,0.25409 -0.1132812,0.38282 0,0.42704 0.3471576,0.77539 0.7734374,0.77539 0.4262798,0 0.7753907,-0.34835 0.7753907,-0.77539 0,-0.12873 -0.050668,-0.25385 -0.1152344,-0.38282 -0.064567,-0.12897 -0.1479693,-0.25984 -0.2304687,-0.3789 -0.164999,-0.23814 -0.3281251,-0.42969 -0.328125,-0.42969 a 0.1323049,0.1323049 0 0 0 -0.1191407,-0.0449 z m 0.017578,0.34765 c 0.057222,0.0698 0.1068162,0.12426 0.2128907,0.27735 0.077984,0.11255 0.1551412,0.2362 0.2109375,0.34765 0.055796,0.11146 0.085937,0.21451 0.085937,0.26368 0,0.28457 -0.2269826,0.51171 -0.5097657,0.51171 -0.2827831,0 -0.5097656,-0.22714 -0.5097656,-0.51171 0,-0.0492 0.032094,-0.15222 0.087891,-0.26368 0.055796,-0.11145 0.1329531,-0.2351 0.2109376,-0.34765 0.1057142,-0.15257 0.153577,-0.20736 0.2109374,-0.27735 z"></path></g></svg>