<svg fill="#FF3366" xmlns="http://www.w3.org/2000/svg" viewBox="0 0 68 54" x="0px" y="0px"><path fill="#FF3366" d="M430,85.8340831 L430,97 L453,97 L453,84 C453,82.8954305 453.895431,82 455,82 C456.104569,82 457,82.8954305 457,84 L457,97 L480,97 L480,84 C480,82.8954305 480.895431,82 482,82 C483.104569,82 484,82.8954305 484,84 L484,98.8097834 C484.005907,98.8723938 484.008928,98.9358441 484.008928,99 C484.008928,99.0641559 484.005907,99.1276062 484,99.1902166 L484,114 C484,115.104569 483.104569,116 482,116 C480.895431,116 480,115.104569 480,114 L480,101 L457,101 L457,114 C457,115.104569 456.104569,116 455,116 C453.895431,116 453,115.104569 453,114 L453,101 L430,101 L430,114 C430,115.104569 429.104569,116 428,116 C426.895431,116 426,115.104569 426,114 L426,85.8340831 C420.324573,84.8819269 416,79.9459926 416,74 C416,67.372583 421.372583,62 428,62 C434.627417,62 440,67.372583 440,74 C440,79.9459926 435.675427,84.8819269 430,85.8340831 L430,85.8340831 Z M428,82 C432.418278,82 436,78.418278 436,74 C436,69.581722 432.418278,66 428,66 C423.581722,66 420,69.581722 420,74 C420,78.418278 423.581722,82 428,82 Z" transform="translate(-416 -62)"></path></svg>