<svg fill="#FF3366" xmlns:dc="http://purl.org/dc/elements/1.1/" xmlns:cc="http://creativecommons.org/ns#" xmlns:rdf="http://www.w3.org/1999/02/22-rdf-syntax-ns#" xmlns:svg="http://www.w3.org/2000/svg" xmlns="http://www.w3.org/2000/svg" xmlns:sodipodi="http://sodipodi.sourceforge.net/DTD/sodipodi-0.dtd" xmlns:inkscape="http://www.inkscape.org/namespaces/inkscape" viewBox="0 0 8.4666665 8.4666669" version="1.1" x="0px" y="0px"><g transform="translate(0,-288.53332)"><path style="color:#000000;font-style:normal;font-variant:normal;font-weight:normal;font-stretch:normal;font-size:medium;line-height:normal;font-family:sans-serif;text-indent:0;text-align:start;text-decoration:none;text-decoration-line:none;text-decoration-style:solid;text-decoration-color:#000000;letter-spacing:normal;word-spacing:normal;text-transform:none;direction:ltr;block-progression:tb;writing-mode:lr-tb;baseline-shift:baseline;text-anchor:start;white-space:normal;clip-rule:nonzero;display:inline;overflow:visible;visibility:visible;opacity:1;isolation:auto;mix-blend-mode:normal;color-interpolation:sRGB;color-interpolation-filters:linearRGB;solid-color:#000000;solid-opacity:1;fill:#FF3366;fill-opacity:1;fill-rule:evenodd;stroke:none;stroke-width:0.26458332px;stroke-linecap:round;stroke-linejoin:round;stroke-miterlimit:4;stroke-dasharray:none;stroke-dashoffset:0;stroke-opacity:1;color-rendering:auto;image-rendering:auto;shape-rendering:auto;text-rendering:auto;enable-background:accumulate" d="m 6.7070312,293.13281 a 0.13230489,0.13230489 0 0 0 -0.097656,0.0625 l -0.097656,0.15625 c -0.033186,0.009 -0.066627,0.019 -0.1054688,0.0312 -0.039001,0.0123 -0.0704,0.0231 -0.1035156,0.0352 l -0.1660156,-0.0742 a 0.13230489,0.13230489 0 0 0 -0.1386719,0.0195 l -0.1660157,0.13867 a 0.13230489,0.13230489 0 0 0 -0.042969,0.13086 l 0.041016,0.18164 c -0.017984,0.0298 -0.033763,0.0553 -0.052734,0.0918 -0.020013,0.0384 -0.0346,0.0695 -0.048828,0.10156 l -0.1699218,0.0684 a 0.13230489,0.13230489 0 0 0 -0.083984,0.11133 l -0.017578,0.21484 a 0.13230489,0.13230489 0 0 0 0.0625,0.125 l 0.1582032,0.0937 c 0.00889,0.0345 0.016589,0.0673 0.029297,0.10743 0.012401,0.0394 0.02301,0.0693 0.035156,0.10156 L 5.6699219,295 a 0.13230489,0.13230489 0 0 0 0.019531,0.13672 l 0.1386719,0.16601 a 0.13230489,0.13230489 0 0 0 0.1347656,0.043 l 0.1738282,-0.0449 c 0.028398,0.0177 0.051848,0.0335 0.087891,0.0527 0.041277,0.022 0.074527,0.0363 0.1074218,0.0508 l 0.068359,0.16992 a 0.13230489,0.13230489 0 0 0 0.1113282,0.084 l 0.2148437,0.0176 a 0.13230489,0.13230489 0 0 0 0.125,-0.0625 l 0.091797,-0.15625 c 0.033759,-0.008 0.062717,-0.0126 0.1035156,-0.0254 0.044641,-0.0139 0.076429,-0.0276 0.109375,-0.041 l 0.1679688,0.0723 a 0.13230489,0.13230489 0 0 0 0.1367187,-0.0195 l 0.1660156,-0.13867 a 0.13230489,0.13230489 0 0 0 0.042969,-0.13477 L 7.625,294.99609 c 0.017773,-0.0301 0.03518,-0.0602 0.054687,-0.0976 0.01958,-0.0375 0.032365,-0.0677 0.046875,-0.0996 l 0.1699219,-0.0645 a 0.13230489,0.13230489 0 0 0 0.085937,-0.11133 L 8,294.4082 a 0.13230489,0.13230489 0 0 0 -0.0625,-0.12304 l -0.15625,-0.0996 c -0.00915,-0.0336 -0.01894,-0.0665 -0.03125,-0.10547 -0.012071,-0.0383 -0.023415,-0.0709 -0.035156,-0.10352 l 0.074219,-0.16406 a 0.13230489,0.13230489 0 0 0 -0.019531,-0.14062 L 7.6308594,293.50781 A 0.13230489,0.13230489 0 0 0 7.5,293.46289 l -0.1796875,0.043 c -0.029804,-0.0172 -0.058912,-0.0337 -0.095703,-0.0527 a 0.13230489,0.13230489 0 0 0 -0.00195,0 c -0.037188,-0.0191 -0.067615,-0.0324 -0.099609,-0.0469 l -0.0625,-0.16992 a 0.13230489,0.13230489 0 0 0 -0.1132813,-0.0859 l -0.2148437,-0.0176 a 0.13230489,0.13230489 0 0 0 -0.025391,0 z m 0.083984,0.26953 0.050781,0.006 0.054687,0.14258 a 0.13230489,0.13230489 0 0 0 0.068359,0.0723 c 0,0 0.1001656,0.0447 0.1386718,0.0645 0.039091,0.0203 0.1289063,0.0742 0.1289063,0.0742 a 0.13230489,0.13230489 0 0 0 0.097656,0.0137 l 0.1503907,-0.0352 0.033203,0.0391 -0.0625,0.13867 a 0.13230489,0.13230489 0 0 0 -0.00391,0.0996 c 0,0 0.037406,0.10012 0.050781,0.14258 0.013517,0.0428 0.041016,0.14648 0.041016,0.14648 a 0.13230489,0.13230489 0 0 0 0.058594,0.0781 l 0.1328126,0.082 -0.00586,0.0508 -0.1425782,0.0527 a 0.13230489,0.13230489 0 0 0 -0.070312,0.0645 0.13230489,0.13230489 0 0 0 -0.00195,0.006 c 0,0 -0.044824,0.0991 -0.064453,0.13672 -0.019671,0.0378 -0.074219,0.13086 -0.074219,0.13086 a 0.13230489,0.13230489 0 0 0 -0.015625,0.0996 l 0.037109,0.14844 -0.039063,0.0312 -0.1425781,-0.0605 a 0.13230489,0.13230489 0 0 0 -0.1035156,-0.002 c 0,0 -0.1027641,0.0435 -0.1386719,0.0547 -0.034652,0.0108 -0.1386719,0.0332 -0.1386719,0.0332 a 0.13230489,0.13230489 0 0 0 -0.083984,0.0625 l -0.078125,0.13086 -0.050781,-0.006 -0.058594,-0.14453 a 0.13230489,0.13230489 0 0 0 -0.070313,-0.0723 c 0,0 -0.1031852,-0.0455 -0.1386718,-0.0644 -0.033011,-0.0176 -0.1210938,-0.0723 -0.1210938,-0.0723 A 0.13230489,0.13230489 0 0 0 6.125,295.03125 l -0.1484375,0.0371 -0.03125,-0.0391 0.060547,-0.14453 a 0.13230489,0.13230489 0 0 0 0.00195,-0.0977 c 0,0 -0.03655,-0.0996 -0.048828,-0.13867 -0.012953,-0.041 -0.041016,-0.14649 -0.041016,-0.14649 a 0.13230489,0.13230489 0 0 0 -0.060547,-0.082 l -0.1308594,-0.0781 0.00391,-0.0508 0.1464843,-0.0566 a 0.13230489,0.13230489 0 0 0 0.072266,-0.0703 c 0,0 0.043657,-0.0986 0.0625,-0.13476 0.018111,-0.0348 0.072266,-0.12696 0.072266,-0.12696 a 0.13230489,0.13230489 0 0 0 0.015625,-0.0996 l -0.035156,-0.15039 0.039063,-0.0332 0.1386719,0.0625 a 0.13230489,0.13230489 0 0 0 0.099609,0.004 c 0,0 0.1018971,-0.0373 0.1445312,-0.0508 0.041465,-0.0131 0.1445313,-0.041 0.1445313,-0.041 a 0.13230489,0.13230489 0 0 0 0.078125,-0.0586 l 0.082031,-0.13282 z"></path><path style="color:#000000;font-style:normal;font-variant:normal;font-weight:normal;font-stretch:normal;font-size:medium;line-height:normal;font-family:sans-serif;text-indent:0;text-align:start;text-decoration:none;text-decoration-line:none;text-decoration-style:solid;text-decoration-color:#000000;letter-spacing:normal;word-spacing:normal;text-transform:none;direction:ltr;block-progression:tb;writing-mode:lr-tb;baseline-shift:baseline;text-anchor:start;white-space:normal;clip-rule:nonzero;display:inline;overflow:visible;visibility:visible;opacity:1;isolation:auto;mix-blend-mode:normal;color-interpolation:sRGB;color-interpolation-filters:linearRGB;solid-color:#000000;solid-opacity:1;fill:#FF3366;fill-opacity:1;fill-rule:evenodd;stroke:none;stroke-width:0.26458332px;stroke-linecap:round;stroke-linejoin:round;stroke-miterlimit:4;stroke-dasharray:none;stroke-dashoffset:0;stroke-opacity:1;color-rendering:auto;image-rendering:auto;shape-rendering:auto;text-rendering:auto;enable-background:accumulate" d="m 1.6835938,293.13086 a 0.13230489,0.13230489 0 0 0 -0.015625,0.002 l -0.2148438,0.0176 a 0.13230489,0.13230489 0 0 0 -0.1113281,0.084 l -0.068359,0.17187 c -0.031191,0.0145 -0.061742,0.0282 -0.097656,0.0469 -0.036633,0.019 -0.067158,0.0352 -0.097656,0.0527 l -0.17578125,-0.043 a 0.13230489,0.13230489 0 0 0 -0.13476563,0.043 l -0.13671874,0.16406 a 0.13230489,0.13230489 0 0 0 -0.0214844,0.13672 l 0.0722656,0.16992 c -0.0124508,0.0321 -0.0224126,0.0611 -0.0351562,0.10156 -0.0128957,0.0409 -0.0208165,0.0732 -0.0292969,0.10743 l -0.15820312,0.0977 a 0.13230489,0.13230489 0 0 0 -0.0625,0.125 l 0.0195312,0.21485 a 0.13230489,0.13230489 0 0 0 0.0859375,0.11133 l 0.16796876,0.0645 c 0.0146893,0.0323 0.029174,0.0639 0.0488281,0.10156 0.0195087,0.0375 0.0373207,0.0664 0.0546875,0.0957 l -0.0429687,0.17774 a 0.13230489,0.13230489 0 0 0 0.0429687,0.13281 l 0.16601562,0.13672 a 0.13230489,0.13230489 0 0 0 0.13867188,0.0195 l 0.1640625,-0.0742 c 0.031595,0.0127 0.058752,0.0245 0.097656,0.0371 0.044506,0.0145 0.078466,0.0227 0.1132812,0.0312 l 0.097656,0.15625 a 0.13230489,0.13230489 0 0 0 0.1230469,0.0625 l 0.2148438,-0.0176 a 0.13230489,0.13230489 0 0 0 0.1132812,-0.0859 l 0.0625,-0.16797 c 0.031835,-0.0134 0.059298,-0.025 0.097656,-0.0449 0.040433,-0.021 0.067224,-0.0395 0.097656,-0.0586 l 0.1796875,0.043 a 0.13230489,0.13230489 0 0 0 0.1328125,-0.043 l 0.1386719,-0.16601 a 0.13230489,0.13230489 0 0 0 0.019531,-0.13868 l -0.076172,-0.16601 c 0.01233,-0.033 0.024578,-0.0638 0.037109,-0.10352 0.012685,-0.0402 0.020536,-0.0734 0.029297,-0.10742 l 0.15625,-0.0918 a 0.13230489,0.13230489 0 0 0 0.064453,-0.125 L 2.921875,294.1875 a 0.13230489,0.13230489 0 0 0 -0.082031,-0.11133 l -0.1738282,-0.0684 c -0.014845,-0.0315 -0.028005,-0.0634 -0.046875,-0.0996 -0.01812,-0.0348 -0.033426,-0.0634 -0.050781,-0.0937 l 0.042969,-0.17773 a 0.13230489,0.13230489 0 0 0 -0.042969,-0.13477 l -0.1640625,-0.13867 a 0.13230489,0.13230489 0 0 0 -0.1386719,-0.0195 l -0.1699219,0.0742 c -0.032512,-0.0118 -0.0644,-0.0249 -0.1035156,-0.0371 -0.03921,-0.0121 -0.071206,-0.0186 -0.1054687,-0.0273 l -0.09375,-0.15821 a 0.13230489,0.13230489 0 0 0 -0.109375,-0.0645 z m -0.076172,0.27148 0.078125,0.13086 a 0.13230489,0.13230489 0 0 0 0.082031,0.0605 c 0,0 0.1052165,0.0263 0.1464844,0.0391 0.041163,0.0128 0.140625,0.0508 0.140625,0.0508 a 0.13230489,0.13230489 0 0 0 0.097656,-0.004 l 0.1425781,-0.0605 0.039063,0.0332 -0.037109,0.14649 a 0.13230489,0.13230489 0 0 0 0.013672,0.0996 c 0,0 0.053642,0.0913 0.074219,0.13086 0.020799,0.0399 0.066406,0.13672 0.066406,0.13672 a 0.13230489,0.13230489 0 0 0 0.070312,0.0664 l 0.1445312,0.0586 0.00391,0.0508 -0.1191407,0.0723 a 0.13230489,0.13230489 0 0 0 -0.011719,0.006 0.13230489,0.13230489 0 0 0 -0.060547,0.082 c 0,0 -0.026211,0.1038 -0.039063,0.14453 -0.012817,0.0406 -0.050781,0.14258 -0.050781,0.14258 a 0.13230489,0.13230489 0 0 0 0.00391,0.0996 l 0.0625,0.13867 -0.033203,0.0391 -0.1523438,-0.0352 a 0.13230489,0.13230489 0 0 0 -0.1015624,0.0176 c 0,0 -0.093262,0.0587 -0.1269532,0.0762 -0.03216,0.0167 -0.1308593,0.0586 -0.1308594,0.0586 a 0.13230489,0.13230489 0 0 0 -0.072266,0.0742 l -0.054687,0.14258 -0.050781,0.006 -0.082031,-0.13281 a 0.13230489,0.13230489 0 0 0 -0.082031,-0.0605 c 0,0 -0.1079744,-0.0265 -0.1464844,-0.0391 -0.035478,-0.0115 -0.1328125,-0.0508 -0.1328125,-0.0508 a 0.13230489,0.13230489 0 0 0 -0.1054687,0.002 l -0.1386719,0.0625 -0.039063,-0.0312 0.035156,-0.15234 a 0.13230489,0.13230489 0 0 0 -0.013672,-0.0996 c 0,0 -0.0552883,-0.0906 -0.0742188,-0.12696 -0.0198836,-0.0381 -0.0644531,-0.13672 -0.0644531,-0.13672 a 0.13230489,0.13230489 0 0 0 -0.0742188,-0.0703 l -0.14257812,-0.0527 -0.003906,-0.0508 0.1328125,-0.082 a 0.13230489,0.13230489 0 0 0 0.0585938,-0.082 c 0,0 0.0267422,-0.10548 0.0390625,-0.14453 0.011789,-0.0375 0.0488281,-0.13672 0.0488281,-0.13672 a 0.13230489,0.13230489 0 0 0 0,-0.0996 l -0.0625,-0.14454 0.0332031,-0.0391 0.14648435,0.0371 a 0.13230489,0.13230489 0 0 0 0.099609,-0.0137 c 0,0 0.093581,-0.0539 0.1328125,-0.0742 0.038674,-0.0201 0.1347656,-0.0645 0.1347656,-0.0645 A 0.13230489,0.13230489 0 0 0 1.5,293.55273 l 0.056641,-0.14453 0.050781,-0.006 z"></path><path style="color:#000000;font-style:normal;font-variant:normal;font-weight:normal;font-stretch:normal;font-size:medium;line-height:normal;font-family:sans-serif;text-indent:0;text-align:start;text-decoration:none;text-decoration-line:none;text-decoration-style:solid;text-decoration-color:#000000;letter-spacing:normal;word-spacing:normal;text-transform:none;direction:ltr;block-progression:tb;writing-mode:lr-tb;baseline-shift:baseline;text-anchor:start;white-space:normal;clip-rule:nonzero;display:inline;overflow:visible;visibility:visible;opacity:1;isolation:auto;mix-blend-mode:normal;color-interpolation:sRGB;color-interpolation-filters:linearRGB;solid-color:#000000;solid-opacity:1;fill:#FF3366;fill-opacity:1;fill-rule:evenodd;stroke:none;stroke-width:0.26458335px;stroke-linecap:butt;stroke-linejoin:round;stroke-miterlimit:4;stroke-dasharray:none;stroke-dashoffset:0;stroke-opacity:1;color-rendering:auto;image-rendering:auto;shape-rendering:auto;text-rendering:auto;enable-background:accumulate" d="m 3.28125,290.06055 a 0.1323049,0.1323049 0 0 0 -0.1171875,0.0879 l -0.9921875,2.77929 0.25,0.0879 0.9375,-2.625 0.5234375,0.3125 0.1347656,-0.22656 -0.6601562,-0.39648 a 0.1323049,0.1323049 0 0 0 -0.076172,-0.0195 z"></path><path style="color:#000000;font-style:normal;font-variant:normal;font-weight:normal;font-stretch:normal;font-size:medium;line-height:normal;font-family:sans-serif;text-indent:0;text-align:start;text-decoration:none;text-decoration-line:none;text-decoration-style:solid;text-decoration-color:#000000;letter-spacing:normal;word-spacing:normal;text-transform:none;direction:ltr;block-progression:tb;writing-mode:lr-tb;baseline-shift:baseline;text-anchor:start;white-space:normal;clip-rule:nonzero;display:inline;overflow:visible;visibility:visible;opacity:1;isolation:auto;mix-blend-mode:normal;color-interpolation:sRGB;color-interpolation-filters:linearRGB;solid-color:#000000;solid-opacity:1;fill:#FF3366;fill-opacity:1;fill-rule:evenodd;stroke:none;stroke-width:0.26458335px;stroke-linecap:round;stroke-linejoin:round;stroke-miterlimit:4;stroke-dasharray:none;stroke-dashoffset:0;stroke-opacity:1;color-rendering:auto;image-rendering:auto;shape-rendering:auto;text-rendering:auto;enable-background:accumulate" d="m 2.8261719,291.44922 a 0.13281,0.13281 0 1 0 0,0.26562 l 1.125,0 c 0.1417706,0 0.2791174,0.0472 0.390625,0.13477 l 0.7167969,0.56445 a 0.1323049,0.1323049 0 0 0 0.1171874,0.0234 L 6.84375,291.97656 c 0.1184684,-0.0327 0.2453013,-0.007 0.34375,0.0664 l 0.2324219,0.17383 -0.5117188,-0.0312 c -0.1005463,-0.006 -0.2012409,0.0248 -0.2792969,0.0898 l -0.6386718,0.45703 a 0.1323049,0.1323049 0 0 0 -0.00781,0.006 c -0.023807,0.0198 -0.053007,0.0293 -0.083984,0.0293 l -0.2832031,0 c -0.2563761,0 -0.4329756,0.20023 -0.5429688,0.36523 l -0.3867187,0.58008 c -0.049159,0.0737 -0.1320819,0.11914 -0.2207031,0.11914 l -0.4511719,0 c -0.1064991,0 -0.2005481,-0.0641 -0.2421875,-0.16211 l -0.078125,-0.18164 C 3.6008802,293.27058 3.4381255,292.94543 3.25,292.75586 c -0.3459685,-0.34859 -0.7936336,-0.56289 -1.2636719,-0.625 -0.2349638,-0.0311 -0.4759806,-0.024 -0.7128906,0.0234 -0.1184382,0.0236 -0.2345092,0.0555 -0.34960938,0.0996 a 0.1325829,0.1325829 0 0 0 0.09375,0.24804 c 0.1011386,-0.0387 0.204655,-0.0691 0.3085938,-0.0898 0.2078439,-0.0416 0.4182948,-0.0469 0.625,-0.0195 0.4132889,0.0546 0.8074852,0.24268 1.1113281,0.54883 0.1284167,0.1294 0.3032299,0.45385 0.3867188,0.65039 l 0.078125,0.18164 c 0.082857,0.19503 0.2743694,0.32226 0.4863281,0.32226 l 0.4511719,0 c 0.1767665,0 0.3433452,-0.0892 0.4414062,-0.23632 l 0.3867188,-0.57813 c 0.086291,-0.12944 0.2247824,-0.24805 0.3222656,-0.24805 l 0.2832031,0 c 0.092816,0 0.1826112,-0.0324 0.2539063,-0.0918 l 0.6386718,-0.45703 a 0.1323049,0.1323049 0 0 0 0.00781,-0.006 c 0.025298,-0.0211 0.058136,-0.0308 0.091797,-0.0293 l 0.9550781,0.0586 a 0.1323049,0.1323049 0 0 0 0.085937,-0.23828 l -0.5859375,-0.43945 c -0.1636899,-0.12264 -0.3748586,-0.16192 -0.5722656,-0.10742 l -1.6035156,0.4414 -0.6660157,-0.52148 C 4.345851,291.51844 4.1522164,291.44922 3.9511719,291.44922 l -1.125,0 z"></path><path style="color:#000000;font-style:normal;font-variant:normal;font-weight:normal;font-stretch:normal;font-size:medium;line-height:normal;font-family:sans-serif;text-indent:0;text-align:start;text-decoration:none;text-decoration-line:none;text-decoration-style:solid;text-decoration-color:#000000;letter-spacing:normal;word-spacing:normal;text-transform:none;direction:ltr;block-progression:tb;writing-mode:lr-tb;baseline-shift:baseline;text-anchor:start;white-space:normal;clip-rule:nonzero;display:inline;overflow:visible;visibility:visible;opacity:1;isolation:auto;mix-blend-mode:normal;color-interpolation:sRGB;color-interpolation-filters:linearRGB;solid-color:#000000;solid-opacity:1;fill:#FF3366;fill-opacity:1;fill-rule:evenodd;stroke:none;stroke-width:0.26458335px;stroke-linecap:round;stroke-linejoin:round;stroke-miterlimit:4;stroke-dasharray:none;stroke-dashoffset:0;stroke-opacity:1;color-rendering:auto;image-rendering:auto;shape-rendering:auto;text-rendering:auto;enable-background:accumulate" d="m 2.3515625,290.78711 a 0.1323049,0.1323049 0 0 0 -0.1132813,0.0918 l -0.1328124,0.39648 a 0.1323049,0.1323049 0 1 0 0.25,0.084 l 0.1328124,-0.39649 a 0.1323049,0.1323049 0 0 0 -0.1367187,-0.17578 z"></path><path d="m 6.5963159,294.40403 a 0.13229167,0.13229168 0 0 0 0.1322917,0.13229 0.13229167,0.13229168 0 0 0 0.1322917,-0.13229 0.13229167,0.13229168 0 0 0 -0.1322917,-0.13229 0.13229167,0.13229168 0 0 0 -0.1322917,0.13229 z" style="opacity:1;fill:#FF3366;fill-opacity:1;stroke:none;stroke-width:1;stroke-linecap:round;stroke-linejoin:round;stroke-miterlimit:4;stroke-dasharray:none;stroke-opacity:1"></path><path style="opacity:1;fill:#FF3366;fill-opacity:1;stroke:none;stroke-width:1;stroke-linecap:round;stroke-linejoin:round;stroke-miterlimit:4;stroke-dasharray:none;stroke-opacity:1" d="m 1.5374082,294.40387 a 0.13229167,0.13229168 0 0 0 0.1322917,0.13229 0.13229167,0.13229168 0 0 0 0.1322916,-0.13229 0.13229167,0.13229168 0 0 0 -0.1322916,-0.13229 0.13229167,0.13229168 0 0 0 -0.1322917,0.13229 z"></path><path style="color:#000000;font-style:normal;font-variant:normal;font-weight:normal;font-stretch:normal;font-size:medium;line-height:normal;font-family:sans-serif;text-indent:0;text-align:start;text-decoration:none;text-decoration-line:none;text-decoration-style:solid;text-decoration-color:#000000;letter-spacing:normal;word-spacing:normal;text-transform:none;direction:ltr;block-progression:tb;writing-mode:lr-tb;baseline-shift:baseline;text-anchor:start;white-space:normal;clip-rule:nonzero;display:inline;overflow:visible;visibility:visible;opacity:1;isolation:auto;mix-blend-mode:normal;color-interpolation:sRGB;color-interpolation-filters:linearRGB;solid-color:#000000;solid-opacity:1;fill:#FF3366;fill-opacity:1;fill-rule:evenodd;stroke:none;stroke-width:0.26458335px;stroke-linecap:butt;stroke-linejoin:miter;stroke-miterlimit:4;stroke-dasharray:none;stroke-dashoffset:0;stroke-opacity:1;color-rendering:auto;image-rendering:auto;shape-rendering:auto;text-rendering:auto;enable-background:accumulate" d="m 4.4628906,294.34766 0,0.26367 0.265625,0 0,0.79492 -0.265625,0 0,0.26367 0.265625,0 c 0.1445571,0 0.2636693,-0.11911 0.2636719,-0.26367 l 0,-0.79492 c 9.9e-6,-0.14457 -0.1191072,-0.26367 -0.2636719,-0.26367 l -0.265625,0 z"></path></g></svg>