<svg fill="#FF3366" xmlns:dc="http://purl.org/dc/elements/1.1/" xmlns:cc="http://creativecommons.org/ns#" xmlns:rdf="http://www.w3.org/1999/02/22-rdf-syntax-ns#" xmlns:svg="http://www.w3.org/2000/svg" xmlns="http://www.w3.org/2000/svg" xmlns:sodipodi="http://sodipodi.sourceforge.net/DTD/sodipodi-0.dtd" xmlns:inkscape="http://www.inkscape.org/namespaces/inkscape" viewBox="0 0 8.4666665 8.4666669" version="1.1" x="0px" y="0px"><g transform="translate(0,-288.53332)"><path style="color:#000000;font-style:normal;font-variant:normal;font-weight:normal;font-stretch:normal;font-size:medium;line-height:normal;font-family:sans-serif;text-indent:0;text-align:start;text-decoration:none;text-decoration-line:none;text-decoration-style:solid;text-decoration-color:#000000;letter-spacing:normal;word-spacing:normal;text-transform:none;direction:ltr;block-progression:tb;writing-mode:lr-tb;baseline-shift:baseline;text-anchor:start;white-space:normal;clip-rule:nonzero;display:inline;overflow:visible;visibility:visible;opacity:1;isolation:auto;mix-blend-mode:normal;color-interpolation:sRGB;color-interpolation-filters:linearRGB;solid-color:#000000;solid-opacity:1;fill:#FF3366;fill-opacity:1;fill-rule:evenodd;stroke:none;stroke-width:0.26458335px;stroke-linecap:butt;stroke-linejoin:round;stroke-miterlimit:4;stroke-dasharray:none;stroke-dashoffset:0;stroke-opacity:1;color-rendering:auto;image-rendering:auto;shape-rendering:auto;text-rendering:auto;enable-background:accumulate" d="M 4.0878906,288.79883 A 0.1323049,0.1323049 0 0 0 3.96875,288.92969 l 0,0.99219 a 0.1323049,0.1323049 0 0 0 0.021484,0.0742 l 0.1113281,0.16407 0,1.59375 -0.060547,0.17773 a 0.1323049,0.1323049 0 0 0 -0.00586,0.041 l 0,0.46289 a 0.1323049,0.1323049 0 0 0 0.00586,0.043 l 0.060547,0.17773 0,0.86328 -0.1113281,0.16602 a 0.1323049,0.1323049 0 0 0 0,0.14648 l 0.1113281,0.16602 0,0.7539 a 0.1323049,0.1323049 0 0 0 0.1308594,0.13086 l 0,0.5293 a 0.1323049,0.1323049 0 0 0 0.1328125,0.13281 l 0.5292968,0 a 0.1323049,0.1323049 0 0 0 0.1328126,-0.13281 l 0,-0.5293 a 0.1323049,0.1323049 0 0 0 0.1328124,-0.13086 l 0,-0.7539 0.109375,-0.16602 a 0.1323049,0.1323049 0 0 0 0,-0.14648 l -0.109375,-0.16602 0,-0.86328 0.058594,-0.17773 a 0.1323049,0.1323049 0 0 0 0.00586,-0.043 l 0,-0.46289 a 0.1323049,0.1323049 0 0 0 -0.00586,-0.041 l -0.058594,-0.17773 0,-1.59375 0.109375,-0.16407 a 0.1323049,0.1323049 0 0 0 0.021484,-0.0742 l 0,-0.99219 a 0.1323049,0.1323049 0 0 0 -0.1308594,-0.13086 l -1.0585937,0 a 0.1323049,0.1323049 0 0 0 -0.013672,0 z m 0.1445313,0.26367 0.7949219,0 0,0.82031 -0.109375,0.16407 a 0.1323049,0.1323049 0 0 0 -0.023438,0.0742 l 0,1.6543 a 0.1323049,0.1323049 0 0 0 0.00781,0.041 l 0.058594,0.17773 0,0.41992 -0.058594,0.17774 a 0.1323049,0.1323049 0 0 0 -0.00781,0.043 l 0,0.92578 a 0.1323049,0.1323049 0 0 0 0.023438,0.0723 L 5,293.75977 l -0.082031,0.125 a 0.1323049,0.1323049 0 0 0 -0.023438,0.0723 l 0,0.66211 a 0.1323049,0.1323049 0 0 0 -0.1328124,0.13281 l 0,0.52735 -0.2636719,0 0,-0.52735 a 0.1323049,0.1323049 0 0 0 -0.1328125,-0.13281 l 0,-0.66211 a 0.1323049,0.1323049 0 0 0 -0.021484,-0.0723 l -0.083984,-0.125 0.083984,-0.12696 a 0.1323049,0.1323049 0 0 0 0.021484,-0.0723 l 0,-0.92578 a 0.1323049,0.1323049 0 0 0 -0.00586,-0.043 l -0.060547,-0.17774 0,-0.41992 0.060547,-0.17773 a 0.1323049,0.1323049 0 0 0 0.00586,-0.041 l 0,-1.6543 a 0.1323049,0.1323049 0 0 0 -0.021484,-0.0742 l -0.1113281,-0.16407 0,-0.82031 z"></path><path style="color:#000000;font-style:normal;font-variant:normal;font-weight:normal;font-stretch:normal;font-size:medium;line-height:normal;font-family:sans-serif;text-indent:0;text-align:start;text-decoration:none;text-decoration-line:none;text-decoration-style:solid;text-decoration-color:#000000;letter-spacing:normal;word-spacing:normal;text-transform:none;direction:ltr;block-progression:tb;writing-mode:lr-tb;baseline-shift:baseline;text-anchor:start;white-space:normal;clip-rule:nonzero;display:inline;overflow:visible;visibility:visible;opacity:1;isolation:auto;mix-blend-mode:normal;color-interpolation:sRGB;color-interpolation-filters:linearRGB;solid-color:#000000;solid-opacity:1;fill:#FF3366;fill-opacity:1;fill-rule:evenodd;stroke:none;stroke-width:0.26458335px;stroke-linecap:butt;stroke-linejoin:round;stroke-miterlimit:4;stroke-dasharray:none;stroke-dashoffset:0;stroke-opacity:1;color-rendering:auto;image-rendering:auto;shape-rendering:auto;text-rendering:auto;enable-background:accumulate" d="m 3.5585938,288.79883 a 0.1323049,0.1323049 0 0 0 -0.1191407,0.13086 l 0,1.13281 -0.21875,-0.34375 a 0.1323049,0.1323049 0 0 0 -0.1972656,-0.0293 l -0.859375,0.72657 a 0.1323049,0.1323049 0 0 0 -0.03125,0.16601 l 0.9101563,1.62305 0,1.61914 a 0.1323049,0.1323049 0 0 0 0.025391,0.0801 l 0.3710937,0.49414 0,0.61718 a 0.1323049,0.1323049 0 0 0 0.039063,0.0938 L 3.875,295.50586 a 0.1323049,0.1323049 0 0 0 0.09375,0.0391 l 1.3222656,0 a 0.1323049,0.1323049 0 0 0 0.09375,-0.0391 L 5.78125,295.10938 a 0.1323049,0.1323049 0 0 0 0.039063,-0.0938 l 0,-0.61718 0.3710937,-0.49414 a 0.1323049,0.1323049 0 0 0 0.025391,-0.0801 l 0,-3.04102 a 0.1323049,0.1323049 0 0 0 -0.013672,-0.0605 l -0.1308594,-0.26368 a 0.1323049,0.1323049 0 0 0 -0.1191406,-0.0742 l -0.1328125,0 0,-1.45508 a 0.1323049,0.1323049 0 0 0 -0.1308594,-0.13086 l -2.1171875,0 a 0.1323049,0.1323049 0 0 0 -0.013672,0 z m 0.1464843,0.26367 1.8515625,0 0,1.45508 a 0.1323049,0.1323049 0 0 0 0.1328125,0.13281 l 0.1816407,0 0.082031,0.16406 0,2.9668 -0.3710938,0.49414 a 0.1323049,0.1323049 0 0 0 -0.025391,0.0781 l 0,0.60742 -0.3203125,0.31836 -1.2128906,0 -0.3183594,-0.31836 0,-0.60742 a 0.1323049,0.1323049 0 0 0 -0.027344,-0.0781 l -0.3710938,-0.49414 0,-1.60937 a 0.1323049,0.1323049 0 0 0 -0.015625,-0.0645 l -0.8730468,-1.55859 0.6601562,-0.56055 0.3828125,0.59961 a 0.1323049,0.1323049 0 0 0 0.2441406,-0.0703 l 0,-1.45508 z"></path><path style="color:#000000;font-style:normal;font-variant:normal;font-weight:normal;font-stretch:normal;font-size:medium;line-height:normal;font-family:sans-serif;text-indent:0;text-align:start;text-decoration:none;text-decoration-line:none;text-decoration-style:solid;text-decoration-color:#000000;letter-spacing:normal;word-spacing:normal;text-transform:none;direction:ltr;block-progression:tb;writing-mode:lr-tb;baseline-shift:baseline;text-anchor:start;white-space:normal;clip-rule:nonzero;display:inline;overflow:visible;visibility:visible;opacity:1;isolation:auto;mix-blend-mode:normal;color-interpolation:sRGB;color-interpolation-filters:linearRGB;solid-color:#000000;solid-opacity:1;fill:#FF3366;fill-opacity:1;fill-rule:nonzero;stroke:none;stroke-width:0.26458332;stroke-linecap:round;stroke-linejoin:round;stroke-miterlimit:4;stroke-dasharray:none;stroke-dashoffset:0;stroke-opacity:1;color-rendering:auto;image-rendering:auto;shape-rendering:auto;text-rendering:auto;enable-background:accumulate" d="m 4.6269531,295.80859 a 0.13230489,0.13230489 0 0 0 -0.097656,0.0488 c 0,0 -0.086759,0.10325 -0.1738281,0.23242 -0.043534,0.0646 -0.087823,0.13471 -0.1230469,0.20704 -0.035224,0.0723 -0.064453,0.14466 -0.064453,0.23046 0,0.25774 0.2064797,0.47266 0.4628906,0.47266 0.2564109,0 0.4628906,-0.21492 0.4628906,-0.47266 0,-0.0858 -0.031183,-0.15814 -0.066406,-0.23046 -0.035224,-0.0723 -0.079513,-0.14245 -0.1230469,-0.20704 -0.087069,-0.12917 -0.171875,-0.23242 -0.171875,-0.23242 a 0.13230489,0.13230489 0 0 0 -0.1054688,-0.0488 z m 0.00391,0.35547 c 0.024211,0.0324 0.02719,0.0334 0.054687,0.0742 0.039148,0.0581 0.078681,0.12078 0.1054687,0.17578 0.026788,0.055 0.037109,0.10488 0.037109,0.11328 0,0.11913 -0.088363,0.20899 -0.1972656,0.20899 -0.1089025,0 -0.1992188,-0.0899 -0.1992188,-0.20899 0,-0.008 0.012274,-0.0583 0.039063,-0.11328 0.026788,-0.055 0.064368,-0.1177 0.1035157,-0.17578 0.027723,-0.0411 0.032287,-0.0417 0.056641,-0.0742 z"></path></g></svg>