<svg fill="#FF3366" xmlns:dc="http://purl.org/dc/elements/1.1/" xmlns:cc="http://creativecommons.org/ns#" xmlns:rdf="http://www.w3.org/1999/02/22-rdf-syntax-ns#" xmlns:svg="http://www.w3.org/2000/svg" xmlns="http://www.w3.org/2000/svg" xmlns:sodipodi="http://sodipodi.sourceforge.net/DTD/sodipodi-0.dtd" xmlns:inkscape="http://www.inkscape.org/namespaces/inkscape" viewBox="0 0 8.4666665 8.4666669" version="1.1" x="0px" y="0px"><g transform="translate(0,-288.53332)"><path style="color:#000000;font-style:normal;font-variant:normal;font-weight:normal;font-stretch:normal;font-size:medium;line-height:normal;font-family:sans-serif;text-indent:0;text-align:start;text-decoration:none;text-decoration-line:none;text-decoration-style:solid;text-decoration-color:#000000;letter-spacing:normal;word-spacing:normal;text-transform:none;direction:ltr;block-progression:tb;writing-mode:lr-tb;baseline-shift:baseline;text-anchor:start;white-space:normal;clip-rule:nonzero;display:inline;overflow:visible;visibility:visible;opacity:1;isolation:auto;mix-blend-mode:normal;color-interpolation:sRGB;color-interpolation-filters:linearRGB;solid-color:#000000;solid-opacity:1;fill:#FF3366;fill-opacity:1;fill-rule:nonzero;stroke:none;stroke-width:0.26458335;stroke-linecap:round;stroke-linejoin:round;stroke-miterlimit:4;stroke-dasharray:none;stroke-dashoffset:0;stroke-opacity:1;color-rendering:auto;image-rendering:auto;shape-rendering:auto;text-rendering:auto;enable-background:accumulate" d="m 1.1914062,293.16406 c -0.65599557,0 -1.1914040925496,0.53346 -1.1914062,1.18946 2.1074504e-6,0.65599 0.53541063,1.1914 1.1914062,1.1914 0.6559957,0 1.1894511,-0.53541 1.1894532,-1.1914 -2.1e-6,-0.656 -0.5334575,-1.18946 -1.1894532,-1.18946 z m 0,0.26367 c 0.5130045,0 0.9257797,0.41278 0.9257813,0.92579 -1.6e-6,0.513 -0.4127768,0.92578 -0.9257813,0.92578 -0.51300442,0 -0.92773268,-0.41278 -0.92773432,-0.92578 1.64e-6,-0.51301 0.4147299,-0.92579 0.92773432,-0.92579 z"></path><path style="color:#000000;font-style:normal;font-variant:normal;font-weight:normal;font-stretch:normal;font-size:medium;line-height:normal;font-family:sans-serif;text-indent:0;text-align:start;text-decoration:none;text-decoration-line:none;text-decoration-style:solid;text-decoration-color:#000000;letter-spacing:normal;word-spacing:normal;text-transform:none;direction:ltr;block-progression:tb;writing-mode:lr-tb;baseline-shift:baseline;text-anchor:start;white-space:normal;clip-rule:nonzero;display:inline;overflow:visible;visibility:visible;opacity:1;isolation:auto;mix-blend-mode:normal;color-interpolation:sRGB;color-interpolation-filters:linearRGB;solid-color:#000000;solid-opacity:1;fill:#FF3366;fill-opacity:1;fill-rule:evenodd;stroke:none;stroke-width:0.26458335px;stroke-linecap:butt;stroke-linejoin:round;stroke-miterlimit:4;stroke-dasharray:none;stroke-dashoffset:0;stroke-opacity:1;color-rendering:auto;image-rendering:auto;shape-rendering:auto;text-rendering:auto;enable-background:accumulate" d="m 5.3847656,291.14453 c -0.2091969,-0.17135 -0.5429887,-0.0146 -0.5429687,0.25586 l 0,0.375 a 0.1323049,0.1323049 0 0 0 0.039063,0.0918 l 0.265625,0.26562 0.1875,-0.1875 -0.2265625,-0.22656 0,-0.31836 c -4.8e-6,-0.0647 0.058794,-0.0922 0.109375,-0.0508 l 0.8261719,0.67773 c 0.3128618,0.25623 0.3264883,0.72202 0.029297,0.9961 l -1.9453125,1.79297 -1.1425781,0 0,-0.46289 c 0,-0.985 -0.8037376,-1.78516 -1.7910156,-1.78516 l -0.1875,0 -0.39257815,-0.69336 1.01757815,0.33789 0.017578,0.0371 c 0.075032,0.14963 0.2179576,0.25615 0.3828125,0.28516 l 0.7832031,0.13672 c 0.1269285,0.0223 0.2571309,-0.001 0.3671875,-0.0684 l 0.4101563,-0.25 c 0.3604753,-0.21964 0.8133528,-0.21964 1.1738281,0 l 0.5390625,0.32812 0.1367187,-0.22656 -0.5390624,-0.32813 c -0.4445749,-0.27088 -1.0026908,-0.27088 -1.4472657,0 l -0.4121093,0.25 c -0.055185,0.0336 -0.1199491,0.0464 -0.1835938,0.0352 l -0.7832031,-0.13867 c -0.082655,-0.0145 -0.1537865,-0.0656 -0.1914063,-0.14063 l -0.017578,-0.0371 c -0.031455,-0.0626 -0.08779,-0.11073 -0.1542969,-0.13281 l -1.33984372,-0.44531 a 0.1323049,0.1323049 0 0 0 -0.15820313,0.18945 L 0.8125,292.76562 a 0.1323049,0.1323049 0 0 0 0.11523438,0.0664 l 0.26562502,0 c 0.8447102,0 1.5253906,0.6799 1.5253906,1.52149 l 0,0.5957 a 0.1323049,0.1323049 0 0 0 0.1328125,0.13281 l 1.3261719,0 a 0.1323049,0.1323049 0 0 0 0.089844,-0.0351 l 1.984375,-1.83008 c 0.411655,-0.37964 0.3922672,-1.03968 -0.041016,-1.39453 l -0.8261719,-0.67774 z"></path><path style="color:#000000;font-style:normal;font-variant:normal;font-weight:normal;font-stretch:normal;font-size:medium;line-height:normal;font-family:sans-serif;text-indent:0;text-align:start;text-decoration:none;text-decoration-line:none;text-decoration-style:solid;text-decoration-color:#000000;letter-spacing:normal;word-spacing:normal;text-transform:none;direction:ltr;block-progression:tb;writing-mode:lr-tb;baseline-shift:baseline;text-anchor:start;white-space:normal;clip-rule:nonzero;display:inline;overflow:visible;visibility:visible;opacity:1;isolation:auto;mix-blend-mode:normal;color-interpolation:sRGB;color-interpolation-filters:linearRGB;solid-color:#000000;solid-opacity:1;fill:#FF3366;fill-opacity:1;fill-rule:nonzero;stroke:none;stroke-width:0.26458335;stroke-linecap:round;stroke-linejoin:round;stroke-miterlimit:4;stroke-dasharray:none;stroke-dashoffset:0;stroke-opacity:1;color-rendering:auto;image-rendering:auto;shape-rendering:auto;text-rendering:auto;enable-background:accumulate" d="m 6.5019531,293.32031 a 0.1323049,0.1323049 0 0 0 -0.0625,0.2461 c 0.3334767,0.20576 0.5015613,0.59722 0.4199219,0.98047 -0.081633,0.38324 -0.3948256,0.6726 -0.7832031,0.7246 -0.3883785,0.052 -0.7657381,-0.14391 -0.9453125,-0.49218 a 0.13277218,0.13277218 0 1 0 -0.2363282,0.12109 c 0.2303932,0.44683 0.7185091,0.70148 1.2167969,0.63477 0.4982867,-0.0667 0.9011249,-0.4419 1.0058594,-0.9336 0.104743,-0.4917 -0.1112134,-0.99577 -0.5390625,-1.25976 a 0.1323049,0.1323049 0 0 0 -0.076172,-0.0215 z"></path><path style="opacity:1;fill:#FF3366;fill-opacity:1;stroke:none;stroke-width:1;stroke-linecap:round;stroke-linejoin:round;stroke-miterlimit:4;stroke-dasharray:none;stroke-opacity:1" d="m 6.0661581,294.35415 a 0.13229167,0.13229168 0 0 1 -0.1322917,0.13229 0.13229167,0.13229168 0 0 1 -0.1322917,-0.13229 0.13229167,0.13229168 0 0 1 0.1322917,-0.13229 0.13229167,0.13229168 0 0 1 0.1322917,0.13229 z"></path><path style="opacity:1;fill:#FF3366;fill-opacity:1;stroke:none;stroke-width:1;stroke-linecap:round;stroke-linejoin:round;stroke-miterlimit:4;stroke-dasharray:none;stroke-opacity:1" d="m 1.3421684,294.35415 a 0.13229167,0.13229168 0 0 1 -0.1322917,0.13229 0.13229167,0.13229168 0 0 1 -0.1322917,-0.13229 0.13229167,0.13229168 0 0 1 0.1322917,-0.13229 0.13229167,0.13229168 0 0 1 0.1322917,0.13229 z"></path><path style="color:#000000;font-style:normal;font-variant:normal;font-weight:normal;font-stretch:normal;font-size:medium;line-height:normal;font-family:sans-serif;text-indent:0;text-align:start;text-decoration:none;text-decoration-line:none;text-decoration-style:solid;text-decoration-color:#000000;letter-spacing:normal;word-spacing:normal;text-transform:none;direction:ltr;block-progression:tb;writing-mode:lr-tb;baseline-shift:baseline;text-anchor:start;white-space:normal;clip-rule:nonzero;display:inline;overflow:visible;visibility:visible;opacity:1;isolation:auto;mix-blend-mode:normal;color-interpolation:sRGB;color-interpolation-filters:linearRGB;solid-color:#000000;solid-opacity:1;fill:#FF3366;fill-opacity:1;fill-rule:evenodd;stroke:none;stroke-width:0.26458335px;stroke-linecap:butt;stroke-linejoin:miter;stroke-miterlimit:4;stroke-dasharray:none;stroke-dashoffset:0;stroke-opacity:1;color-rendering:auto;image-rendering:auto;shape-rendering:auto;text-rendering:auto;enable-background:accumulate" d="m 0.1328125,290.25391 0,0.26367 6.8789063,0 0,-0.26367 -6.8789063,0 z"></path><path style="color:#000000;font-style:normal;font-variant:normal;font-weight:normal;font-stretch:normal;font-size:medium;line-height:normal;font-family:sans-serif;text-indent:0;text-align:start;text-decoration:none;text-decoration-line:none;text-decoration-style:solid;text-decoration-color:#000000;letter-spacing:normal;word-spacing:normal;text-transform:none;direction:ltr;block-progression:tb;writing-mode:lr-tb;baseline-shift:baseline;text-anchor:start;white-space:normal;clip-rule:nonzero;display:inline;overflow:visible;visibility:visible;opacity:1;isolation:auto;mix-blend-mode:normal;color-interpolation:sRGB;color-interpolation-filters:linearRGB;solid-color:#000000;solid-opacity:1;fill:#FF3366;fill-opacity:1;fill-rule:evenodd;stroke:none;stroke-width:0.26458335px;stroke-linecap:butt;stroke-linejoin:miter;stroke-miterlimit:4;stroke-dasharray:none;stroke-dashoffset:0;stroke-opacity:1;color-rendering:auto;image-rendering:auto;shape-rendering:auto;text-rendering:auto;enable-background:accumulate" d="m 6.8789062,289.98828 0,0.79492 0.265625,0 0,-0.79492 -0.265625,0 z"></path><path style="color:#000000;font-style:normal;font-variant:normal;font-weight:normal;font-stretch:normal;font-size:medium;line-height:normal;font-family:sans-serif;text-indent:0;text-align:start;text-decoration:none;text-decoration-line:none;text-decoration-style:solid;text-decoration-color:#000000;letter-spacing:normal;word-spacing:normal;text-transform:none;direction:ltr;block-progression:tb;writing-mode:lr-tb;baseline-shift:baseline;text-anchor:start;white-space:normal;clip-rule:nonzero;display:inline;overflow:visible;visibility:visible;opacity:1;isolation:auto;mix-blend-mode:normal;color-interpolation:sRGB;color-interpolation-filters:linearRGB;solid-color:#000000;solid-opacity:1;fill:#FF3366;fill-opacity:1;fill-rule:evenodd;stroke:none;stroke-width:0.26458335px;stroke-linecap:butt;stroke-linejoin:miter;stroke-miterlimit:4;stroke-dasharray:none;stroke-dashoffset:0;stroke-opacity:1;color-rendering:auto;image-rendering:auto;shape-rendering:auto;text-rendering:auto;enable-background:accumulate" d="m 0,289.98828 0,0.79492 0.26367188,0 0,-0.79492 -0.26367188,0 z"></path><path style="color:#000000;font-style:normal;font-variant:normal;font-weight:normal;font-stretch:normal;font-size:medium;line-height:normal;font-family:sans-serif;text-indent:0;text-align:start;text-decoration:none;text-decoration-line:none;text-decoration-style:solid;text-decoration-color:#000000;letter-spacing:normal;word-spacing:normal;text-transform:none;direction:ltr;block-progression:tb;writing-mode:lr-tb;baseline-shift:baseline;text-anchor:start;white-space:normal;clip-rule:nonzero;display:inline;overflow:visible;visibility:visible;opacity:1;isolation:auto;mix-blend-mode:normal;color-interpolation:sRGB;color-interpolation-filters:linearRGB;solid-color:#000000;solid-opacity:1;fill:#FF3366;fill-opacity:1;fill-rule:evenodd;stroke:none;stroke-width:0.26458335px;stroke-linecap:butt;stroke-linejoin:miter;stroke-miterlimit:4;stroke-dasharray:none;stroke-dashoffset:0;stroke-opacity:1;color-rendering:auto;image-rendering:auto;shape-rendering:auto;text-rendering:auto;enable-background:accumulate" d="m 7.8046875,291.17969 0,4.23242 0.265625,0 0,-4.23242 -0.265625,0 z"></path><path style="color:#000000;font-style:normal;font-variant:normal;font-weight:normal;font-stretch:normal;font-size:medium;line-height:normal;font-family:sans-serif;text-indent:0;text-align:start;text-decoration:none;text-decoration-line:none;text-decoration-style:solid;text-decoration-color:#000000;letter-spacing:normal;word-spacing:normal;text-transform:none;direction:ltr;block-progression:tb;writing-mode:lr-tb;baseline-shift:baseline;text-anchor:start;white-space:normal;clip-rule:nonzero;display:inline;overflow:visible;visibility:visible;opacity:1;isolation:auto;mix-blend-mode:normal;color-interpolation:sRGB;color-interpolation-filters:linearRGB;solid-color:#000000;solid-opacity:1;fill:#FF3366;fill-opacity:1;fill-rule:evenodd;stroke:none;stroke-width:0.26458335px;stroke-linecap:butt;stroke-linejoin:miter;stroke-miterlimit:4;stroke-dasharray:none;stroke-dashoffset:0;stroke-opacity:1;color-rendering:auto;image-rendering:auto;shape-rendering:auto;text-rendering:auto;enable-background:accumulate" d="m 7.5410156,291.04688 0,0.26367 0.7929688,0 0,-0.26367 -0.7929688,0 z"></path><path style="color:#000000;font-style:normal;font-variant:normal;font-weight:normal;font-stretch:normal;font-size:medium;line-height:normal;font-family:sans-serif;text-indent:0;text-align:start;text-decoration:none;text-decoration-line:none;text-decoration-style:solid;text-decoration-color:#000000;letter-spacing:normal;word-spacing:normal;text-transform:none;direction:ltr;block-progression:tb;writing-mode:lr-tb;baseline-shift:baseline;text-anchor:start;white-space:normal;clip-rule:nonzero;display:inline;overflow:visible;visibility:visible;opacity:1;isolation:auto;mix-blend-mode:normal;color-interpolation:sRGB;color-interpolation-filters:linearRGB;solid-color:#000000;solid-opacity:1;fill:#FF3366;fill-opacity:1;fill-rule:evenodd;stroke:none;stroke-width:0.26458335px;stroke-linecap:butt;stroke-linejoin:miter;stroke-miterlimit:4;stroke-dasharray:none;stroke-dashoffset:0;stroke-opacity:1;color-rendering:auto;image-rendering:auto;shape-rendering:auto;text-rendering:auto;enable-background:accumulate" d="m 7.5410156,295.2793 0,0.26562 0.7929688,0 0,-0.26562 -0.7929688,0 z"></path></g></svg>