<svg fill="#FF3366" xmlns="http://www.w3.org/2000/svg" data-name="Layer 2" viewBox="0 0 100 100" x="0px" y="0px"><title>ecology-and-environment2</title><path d="M64.41,44.73H55.28L55.64,25.3a1.5,1.5,0,0,0-2.73-.88L34.32,51.22a1.5,1.5,0,0,0,1.23,2.35H46.4l0,21.16a1.5,1.5,0,0,0,2.8.75L65.71,47A1.5,1.5,0,0,0,64.41,44.73Zm-15,24.42,0-17.08a1.5,1.5,0,0,0-1.5-1.5H38.42L52.55,30.2l-0.3,16a1.5,1.5,0,0,0,1.5,1.53h8.06Z"></path><path d="M50,17.5A1.5,1.5,0,0,0,51.5,16V15a1.5,1.5,0,0,0-3,0v1A1.5,1.5,0,0,0,50,17.5Z"></path><path d="M48.5,11.21a1.5,1.5,0,0,0,3,0V7h0V6a1.5,1.5,0,0,0-3,0V7h0v4.2Z"></path><path d="M50,86.5A1.5,1.5,0,0,0,51.5,85V84a1.5,1.5,0,0,0-3,0v1A1.5,1.5,0,0,0,50,86.5Z"></path><path d="M50,87.29a1.5,1.5,0,0,0-1.5,1.5V93h0v1a1.5,1.5,0,1,0,3,0V93h0V88.79A1.5,1.5,0,0,0,50,87.29Z"></path><path d="M85,48.5H84a1.5,1.5,0,0,0,0,3h1A1.5,1.5,0,0,0,85,48.5Z"></path><path d="M94,48.5H88.79a1.5,1.5,0,0,0,0,3H94A1.5,1.5,0,0,0,94,48.5Z"></path><path d="M16,48.5H15a1.5,1.5,0,1,0,0,3h1A1.5,1.5,0,0,0,16,48.5Z"></path><path d="M11.21,48.5H6a1.5,1.5,0,0,0,0,3h5.21A1.5,1.5,0,0,0,11.21,48.5Z"></path><path d="M74,27.46A1.5,1.5,0,0,0,75.1,27l0.71-.71a1.5,1.5,0,0,0-2.12-2.12L73,24.9A1.5,1.5,0,0,0,74,27.46Z"></path><path d="M77.43,24.07a1.47,1.47,0,0,0,1.06-.44l3-3,0,0,0.71-.71a1.5,1.5,0,0,0-2.12-2.12l-0.69.69h0l-3,3A1.5,1.5,0,0,0,77.43,24.07Z"></path><path d="M24.9,73l-0.71.71a1.5,1.5,0,1,0,2.12,2.12L27,75.1A1.5,1.5,0,1,0,24.9,73Z"></path><path d="M21.51,76.36l-3,3v0l-0.69.69a1.5,1.5,0,1,0,2.12,2.12l0.71-.71,0,0,3-3a1.5,1.5,0,0,0,0-2.13A1.55,1.55,0,0,0,21.51,76.36Z"></path><path d="M75.81,73.69L75.1,73A1.5,1.5,0,0,0,73,75.1l0.71,0.71A1.5,1.5,0,0,0,75.81,73.69Z"></path><path d="M81.46,79.34h0l-3-3a1.56,1.56,0,0,0-2.13,0,1.52,1.52,0,0,0,0,2.13l3,3h0l0.71,0.71a1.5,1.5,0,0,0,2.12-2.12Z"></path><path d="M26.31,24.19a1.5,1.5,0,0,0-2.12,2.12L24.9,27A1.5,1.5,0,1,0,27,24.9Z"></path><path d="M18.54,20.66h0l3,3a1.5,1.5,0,1,0,2.12-2.12l-3-3h0l-0.71-.71a1.5,1.5,0,0,0-2.12,2.12Z"></path></svg>