<svg fill="#FF3366" xmlns:dc="http://purl.org/dc/elements/1.1/" xmlns:cc="http://creativecommons.org/ns#" xmlns:rdf="http://www.w3.org/1999/02/22-rdf-syntax-ns#" xmlns:svg="http://www.w3.org/2000/svg" xmlns="http://www.w3.org/2000/svg" xmlns:sodipodi="http://sodipodi.sourceforge.net/DTD/sodipodi-0.dtd" xmlns:inkscape="http://www.inkscape.org/namespaces/inkscape" viewBox="0 0 8.4666665 8.4666669" version="1.1" x="0px" y="0px"><g transform="translate(0,-288.53332)"><path d="m 4.8973247,291.79812 0.2030886,0.16949 c 0.2764556,-0.33163 0.6860194,-0.52337 1.1178075,-0.52345 l 1.3224042,0 0,-0.26458 -1.3229333,0 c -0.5101027,1.3e-4 -0.9937478,0.22674 -1.320367,0.61854 z" style="color:#000000;font-style:normal;font-variant:normal;font-weight:normal;font-stretch:normal;font-size:medium;line-height:normal;font-family:sans-serif;text-indent:0;text-align:start;text-decoration:none;text-decoration-line:none;text-decoration-style:solid;text-decoration-color:#000000;letter-spacing:normal;word-spacing:normal;text-transform:none;direction:ltr;writing-mode:lr-tb;baseline-shift:baseline;text-anchor:start;white-space:normal;clip-rule:nonzero;display:inline;overflow:visible;visibility:visible;opacity:1;isolation:auto;mix-blend-mode:normal;color-interpolation:sRGB;color-interpolation-filters:linearRGB;solid-color:#000000;solid-opacity:1;fill:#FF3366;fill-opacity:1;fill-rule:nonzero;stroke:none;stroke-width:1;stroke-linecap:butt;stroke-linejoin:round;stroke-miterlimit:4;stroke-dasharray:none;stroke-dashoffset:0;stroke-opacity:1;color-rendering:auto;image-rendering:auto;shape-rendering:auto;text-rendering:auto;enable-background:accumulate"></path><path d="m 4.8988857,294.13272 c 0.3262224,0.39135 0.8093118,0.61794 1.318806,0.61855 l 1.3229333,0 0,-0.26459 -1.3224042,0 0,0 c -0.4310738,0 -0.8396851,-0.19232 -1.1157438,-0.52345 z" style="color:#000000;font-style:normal;font-variant:normal;font-weight:normal;font-stretch:normal;font-size:medium;line-height:normal;font-family:sans-serif;text-indent:0;text-align:start;text-decoration:none;text-decoration-line:none;text-decoration-style:solid;text-decoration-color:#000000;letter-spacing:normal;word-spacing:normal;text-transform:none;direction:ltr;writing-mode:lr-tb;baseline-shift:baseline;text-anchor:start;white-space:normal;clip-rule:nonzero;display:inline;overflow:visible;visibility:visible;opacity:1;isolation:auto;mix-blend-mode:normal;color-interpolation:sRGB;color-interpolation-filters:linearRGB;solid-color:#000000;solid-opacity:1;fill:#FF3366;fill-opacity:1;fill-rule:nonzero;stroke:none;stroke-width:1;stroke-linecap:butt;stroke-linejoin:round;stroke-miterlimit:4;stroke-dasharray:none;stroke-dashoffset:0;stroke-opacity:1;color-rendering:auto;image-rendering:auto;shape-rendering:auto;text-rendering:auto;enable-background:accumulate"></path><path d="m 4.1009507,293.03155 c 0,0.65599 0.5346554,1.19058 1.1906718,1.19058 l 1.3229333,0 c 0.2176403,0 0.3968906,-0.17926 0.3968906,-0.39685 l 0,-1.71971 c 0,-0.2176 -0.1792503,-0.39685 -0.3968906,-0.39685 l -1.3229333,0 c -0.6560164,0 -1.1906718,0.53461 -1.1906718,1.19057 z m 0.2646026,0 0,-0.13226 c 0,-0.51298 0.4130562,-0.92599 0.9260692,-0.92599 l 1.3229333,0 c 0.074637,0 0.1323145,0.0577 0.1323145,0.13227 l 0,1.71971 c 0,0.0746 -0.057678,0.13229 -0.1323145,0.13229 l -1.3229333,0 c -0.513013,0 -0.9260692,-0.41302 -0.9260692,-0.92602 z" style="color:#000000;font-style:normal;font-variant:normal;font-weight:normal;font-stretch:normal;font-size:medium;line-height:normal;font-family:sans-serif;text-indent:0;text-align:start;text-decoration:none;text-decoration-line:none;text-decoration-style:solid;text-decoration-color:#000000;letter-spacing:normal;word-spacing:normal;text-transform:none;direction:ltr;writing-mode:lr-tb;baseline-shift:baseline;text-anchor:start;white-space:normal;clip-rule:nonzero;display:inline;overflow:visible;visibility:visible;opacity:1;isolation:auto;mix-blend-mode:normal;color-interpolation:sRGB;color-interpolation-filters:linearRGB;solid-color:#000000;solid-opacity:1;fill:#FF3366;fill-opacity:1;fill-rule:nonzero;stroke:none;stroke-width:1;stroke-linecap:butt;stroke-linejoin:round;stroke-miterlimit:4;stroke-dasharray:none;stroke-dashoffset:0;stroke-opacity:1;color-rendering:auto;image-rendering:auto;shape-rendering:auto;text-rendering:auto;enable-background:accumulate"></path><path d="m 4.7488182,293.19692 0.2645761,0 0,-0.52912 -0.2645761,0 z" style="color:#000000;font-style:normal;font-variant:normal;font-weight:normal;font-stretch:normal;font-size:medium;line-height:normal;font-family:sans-serif;text-indent:0;text-align:start;text-decoration:none;text-decoration-line:none;text-decoration-style:solid;text-decoration-color:#000000;letter-spacing:normal;word-spacing:normal;text-transform:none;direction:ltr;writing-mode:lr-tb;baseline-shift:baseline;text-anchor:start;white-space:normal;clip-rule:nonzero;display:inline;overflow:visible;visibility:visible;opacity:1;isolation:auto;mix-blend-mode:normal;color-interpolation:sRGB;color-interpolation-filters:linearRGB;solid-color:#000000;solid-opacity:1;fill:#FF3366;fill-opacity:1;fill-rule:evenodd;stroke:none;stroke-width:0.99999988px;stroke-linecap:butt;stroke-linejoin:miter;stroke-miterlimit:4;stroke-dasharray:none;stroke-dashoffset:0;stroke-opacity:1;color-rendering:auto;image-rendering:auto;shape-rendering:auto;text-rendering:auto;enable-background:accumulate"></path><path style="color:#000000;font-style:normal;font-variant:normal;font-weight:normal;font-stretch:normal;font-size:medium;line-height:normal;font-family:sans-serif;text-indent:0;text-align:start;text-decoration:none;text-decoration-line:none;text-decoration-style:solid;text-decoration-color:#000000;letter-spacing:normal;word-spacing:normal;text-transform:none;direction:ltr;writing-mode:lr-tb;baseline-shift:baseline;text-anchor:start;white-space:normal;clip-rule:nonzero;display:inline;overflow:visible;visibility:visible;opacity:1;isolation:auto;mix-blend-mode:normal;color-interpolation:sRGB;color-interpolation-filters:linearRGB;solid-color:#000000;solid-opacity:1;fill:#FF3366;fill-opacity:1;fill-rule:evenodd;stroke:none;stroke-width:1px;stroke-linecap:butt;stroke-linejoin:miter;stroke-miterlimit:4;stroke-dasharray:none;stroke-dashoffset:0;stroke-opacity:1;color-rendering:auto;image-rendering:auto;shape-rendering:auto;text-rendering:auto;enable-background:accumulate" d="m 1.4551899,289.85624 c -0.3637364,0 -0.66144012,0.29771 -0.66144012,0.66145 l 0,4.49792 c 0,0.36375 0.29770372,0.66146 0.66144012,0.66146 l 4.2993613,0 c 0.3272061,0 0.5952962,-0.2681 0.5952962,-0.59531 l 0,-0.0661 -0.2645761,0 0,0.0661 c 0,0.18423 -0.1465015,0.33073 -0.3307201,0.33073 l -4.2993613,0 c -0.2207488,0 -0.3968641,-0.17611 -0.3968641,-0.39688 l 0,-4.49792 c 0,-0.22074 0.1761153,-0.39687 0.3968641,-0.39687 l 4.2332173,0 c 0.2207488,0 0.3968641,0.17613 0.3968641,0.39687 l 0,0.39688 0.2645761,0 0,-0.39688 c 0,-0.36374 -0.2977036,-0.66145 -0.6614402,-0.66145 z"></path><path d="m 3.5678498,290.78281 a 0.13230127,0.13230491 0 0 0 -0.115752,0.0754 l -1.0583044,2.24896 a 0.13230127,0.13230491 0 0 0 0.1198861,0.18862 l 0.9260163,0 0,1.32292 a 0.13230127,0.13230491 0 0 0 0.252174,0.0563 l 0.3968641,-0.84336 a 0.13245961,0.13246326 0 1 0 -0.239772,-0.11266 l -0.1446901,0.30747 0,-0.86299 a 0.13230127,0.13230491 0 0 0 -0.132288,-0.13229 l -0.8495374,0 0.7172494,-1.52445 0,0.86299 a 0.13230127,0.13230491 0 0 0 0.132288,0.13229 l 0.3968641,0 a 0.13230127,0.13230491 0 1 0 0,-0.26458 l -0.2645761,0 0,-1.32292 a 0.13230127,0.13230491 0 0 0 -0.136422,-0.13176 z" style="color:#000000;font-style:normal;font-variant:normal;font-weight:normal;font-stretch:normal;font-size:medium;line-height:normal;font-family:sans-serif;text-indent:0;text-align:start;text-decoration:none;text-decoration-line:none;text-decoration-style:solid;text-decoration-color:#000000;letter-spacing:normal;word-spacing:normal;text-transform:none;direction:ltr;writing-mode:lr-tb;baseline-shift:baseline;text-anchor:start;white-space:normal;clip-rule:nonzero;display:inline;overflow:visible;visibility:visible;opacity:1;isolation:auto;mix-blend-mode:normal;color-interpolation:sRGB;color-interpolation-filters:linearRGB;solid-color:#000000;solid-opacity:1;fill:#FF3366;fill-opacity:1;fill-rule:evenodd;stroke:none;stroke-width:1px;stroke-linecap:round;stroke-linejoin:round;stroke-miterlimit:4;stroke-dasharray:none;stroke-dashoffset:0;stroke-opacity:1;color-rendering:auto;image-rendering:auto;shape-rendering:auto;text-rendering:auto;enable-background:accumulate"></path></g></svg>