<svg fill="#FF3366" xmlns:dc="http://purl.org/dc/elements/1.1/" xmlns:cc="http://creativecommons.org/ns#" xmlns:rdf="http://www.w3.org/1999/02/22-rdf-syntax-ns#" xmlns:svg="http://www.w3.org/2000/svg" xmlns="http://www.w3.org/2000/svg" xmlns:sodipodi="http://sodipodi.sourceforge.net/DTD/sodipodi-0.dtd" xmlns:inkscape="http://www.inkscape.org/namespaces/inkscape" viewBox="0 0 8.4666665 8.4666669" version="1.1" x="0px" y="0px"><g transform="translate(0,-288.53332)"><path style="color:#000000;font-style:normal;font-variant:normal;font-weight:normal;font-stretch:normal;font-size:medium;line-height:normal;font-family:sans-serif;text-indent:0;text-align:start;text-decoration:none;text-decoration-line:none;text-decoration-style:solid;text-decoration-color:#000000;letter-spacing:normal;word-spacing:normal;text-transform:none;direction:ltr;block-progression:tb;writing-mode:lr-tb;baseline-shift:baseline;text-anchor:start;white-space:normal;clip-rule:nonzero;display:inline;overflow:visible;visibility:visible;opacity:1;isolation:auto;mix-blend-mode:normal;color-interpolation:sRGB;color-interpolation-filters:linearRGB;solid-color:#000000;solid-opacity:1;fill:#FF3366;fill-opacity:1;fill-rule:evenodd;stroke:none;stroke-width:0.26458332px;stroke-linecap:butt;stroke-linejoin:miter;stroke-miterlimit:4;stroke-dasharray:none;stroke-dashoffset:0;stroke-opacity:1;color-rendering:auto;image-rendering:auto;shape-rendering:auto;text-rendering:auto;enable-background:accumulate" d="m 1.5214844,294.35352 c -0.092389,0 -0.2009606,0.0258 -0.2949219,0.0996 -0.093961,0.0738 -0.1628983,0.20044 -0.1679687,0.35938 -0.00371,0.11622 -0.0881045,0.20312 -0.1992188,0.20312 l -0.33007812,0 c -0.14452346,0 -0.26563412,0.11911 -0.265625,0.26368 l 0,0.79492 c 1.81e-6,0.14456 0.12110162,0.26367 0.265625,0.26367 l 0.92578122,0 c 0.2002581,0 0.390976,-0.16168 0.3964844,-0.39258 0.00274,-0.11496 0.08808,-0.20117 0.1992187,-0.20117 l 0.1972657,0 c 0.1445113,0 0.2656232,-0.12107 0.265625,-0.26562 l 0,-0.85938 c -1.8e-6,-0.14456 -0.1211017,-0.26562 -0.265625,-0.26562 l -0.7265625,0 z m 0,0.26562 0.7265625,0 0,0.85938 -0.1972657,0 c -0.2541755,0 -0.4569196,0.21068 -0.4628906,0.46093 -0.00225,0.0944 -0.068488,0.13477 -0.1328125,0.13477 l -0.92578122,0 0,-0.79492 0.33007812,0 c 0.2541997,0 0.4549526,-0.20814 0.4628906,-0.45703 0.00299,-0.0937 0.032227,-0.13373 0.068359,-0.16211 0.036132,-0.0284 0.090225,-0.041 0.1308594,-0.041 z"></path><path style="opacity:1;fill:#FF3366;fill-opacity:1;stroke:none;stroke-width:0.26458332;stroke-linecap:round;stroke-linejoin:round;stroke-miterlimit:4;stroke-dasharray:none;stroke-opacity:1" d="m 1.1244769,295.67707 a 0.13229166,0.13229166 0 0 1 -0.13229167,0.13229 0.13229166,0.13229166 0 0 1 -0.13229166,-0.13229 0.13229166,0.13229166 0 0 1 0.13229166,-0.13229 0.13229166,0.13229166 0 0 1 0.13229167,0.13229 z"></path><path style="opacity:1;fill:#FF3366;fill-opacity:1;stroke:none;stroke-width:0.26458332;stroke-linecap:round;stroke-linejoin:round;stroke-miterlimit:4;stroke-dasharray:none;stroke-opacity:1" d="m 1.9843727,295.08176 a 0.13229166,0.13229166 0 0 1 -0.1322916,0.13229 0.13229166,0.13229166 0 0 1 -0.1322917,-0.13229 0.13229166,0.13229166 0 0 1 0.1322917,-0.13229 0.13229166,0.13229166 0 0 1 0.1322916,0.13229 z"></path><path style="color:#000000;font-style:normal;font-variant:normal;font-weight:normal;font-stretch:normal;font-size:medium;line-height:normal;font-family:sans-serif;text-indent:0;text-align:start;text-decoration:none;text-decoration-line:none;text-decoration-style:solid;text-decoration-color:#000000;letter-spacing:normal;word-spacing:normal;text-transform:none;direction:ltr;block-progression:tb;writing-mode:lr-tb;baseline-shift:baseline;text-anchor:start;white-space:normal;clip-rule:nonzero;display:inline;overflow:visible;visibility:visible;opacity:1;isolation:auto;mix-blend-mode:normal;color-interpolation:sRGB;color-interpolation-filters:linearRGB;solid-color:#000000;solid-opacity:1;fill:#FF3366;fill-opacity:1;fill-rule:evenodd;stroke:none;stroke-width:0.26458332;stroke-linecap:butt;stroke-linejoin:round;stroke-miterlimit:4;stroke-dasharray:none;stroke-dashoffset:0;stroke-opacity:1;color-rendering:auto;image-rendering:auto;shape-rendering:auto;text-rendering:auto;enable-background:accumulate" d="m 4.1230469,289.39258 c -0.2963012,-6.7e-4 -0.5920512,0.18565 -0.71875,0.45312 l -2.2011719,4.64844 0.2402344,0.11328 2.2011718,-4.64844 c 0.071405,-0.15074 0.3120447,-0.3031 0.4785157,-0.30273 0.3247459,8.8e-4 0.5818245,0.004 0.9707031,0.006 l 0,0.12891 c -0.2601381,0.001 -0.3365275,-6e-5 -0.7011719,0 -0.2278902,2e-5 -0.4382261,0.14381 -0.5175781,0.35742 l -1.6171875,4.35742 0.2480469,0.0937 1.6171875,-4.35742 c 0.032672,-0.0879 0.1756828,-0.18749 0.2695312,-0.1875 0.4314504,-6e-5 0.4013319,0.003 0.8339844,0 0.072702,-7.9e-4 0.1311413,-0.0601 0.1308594,-0.13281 l 0,-0.39258 c 2.874e-4,-0.0727 -0.058153,-0.13203 -0.1308594,-0.13282 -0.390321,-0.002 -0.7944895,-0.003 -1.1035156,-0.004 z"></path><path style="color:#000000;font-style:normal;font-variant:normal;font-weight:normal;font-stretch:normal;font-size:medium;line-height:normal;font-family:sans-serif;text-indent:0;text-align:start;text-decoration:none;text-decoration-line:none;text-decoration-style:solid;text-decoration-color:#000000;letter-spacing:normal;word-spacing:normal;text-transform:none;direction:ltr;block-progression:tb;writing-mode:lr-tb;baseline-shift:baseline;text-anchor:start;white-space:normal;clip-rule:nonzero;display:inline;overflow:visible;visibility:visible;opacity:1;isolation:auto;mix-blend-mode:normal;color-interpolation:sRGB;color-interpolation-filters:linearRGB;solid-color:#000000;solid-opacity:1;fill:#FF3366;fill-opacity:1;fill-rule:evenodd;stroke:none;stroke-width:0.26458332;stroke-linecap:round;stroke-linejoin:round;stroke-miterlimit:4;stroke-dasharray:none;stroke-dashoffset:0;stroke-opacity:1;color-rendering:auto;image-rendering:auto;shape-rendering:auto;text-rendering:auto;enable-background:accumulate" d="m 7.5253906,289.26172 a 0.13230489,0.13230489 0 0 0 -0.1171875,0.13281 l 0,0.6582 a 0.1328125,0.1328125 0 0 0 0.265625,0 l 0,-0.6582 a 0.13230489,0.13230489 0 0 0 -0.1484375,-0.13281 z"></path><path style="color:#000000;font-style:normal;font-variant:normal;font-weight:normal;font-stretch:normal;font-size:medium;line-height:normal;font-family:sans-serif;text-indent:0;text-align:start;text-decoration:none;text-decoration-line:none;text-decoration-style:solid;text-decoration-color:#000000;letter-spacing:normal;word-spacing:normal;text-transform:none;direction:ltr;block-progression:tb;writing-mode:lr-tb;baseline-shift:baseline;text-anchor:start;white-space:normal;clip-rule:nonzero;display:inline;overflow:visible;visibility:visible;opacity:1;isolation:auto;mix-blend-mode:normal;color-interpolation:sRGB;color-interpolation-filters:linearRGB;solid-color:#000000;solid-opacity:1;fill:#FF3366;fill-opacity:1;fill-rule:evenodd;stroke:none;stroke-width:0.26458332;stroke-linecap:round;stroke-linejoin:round;stroke-miterlimit:4;stroke-dasharray:none;stroke-dashoffset:0;stroke-opacity:1;color-rendering:auto;image-rendering:auto;shape-rendering:auto;text-rendering:auto;enable-background:accumulate" d="m 7.0625,289.26172 a 0.13230489,0.13230489 0 0 0 -0.1171875,0.13281 l 0,0.6582 a 0.13230489,0.13230489 0 1 0 0.2636719,0 l 0,-0.6582 A 0.13230489,0.13230489 0 0 0 7.0625,289.26172 Z"></path><path style="color:#000000;font-style:normal;font-variant:normal;font-weight:normal;font-stretch:normal;font-size:medium;line-height:normal;font-family:sans-serif;text-indent:0;text-align:start;text-decoration:none;text-decoration-line:none;text-decoration-style:solid;text-decoration-color:#000000;letter-spacing:normal;word-spacing:normal;text-transform:none;direction:ltr;block-progression:tb;writing-mode:lr-tb;baseline-shift:baseline;text-anchor:start;white-space:normal;clip-rule:nonzero;display:inline;overflow:visible;visibility:visible;opacity:1;isolation:auto;mix-blend-mode:normal;color-interpolation:sRGB;color-interpolation-filters:linearRGB;solid-color:#000000;solid-opacity:1;fill:#FF3366;fill-opacity:1;fill-rule:evenodd;stroke:none;stroke-width:0.26458332;stroke-linecap:round;stroke-linejoin:round;stroke-miterlimit:4;stroke-dasharray:none;stroke-dashoffset:0;stroke-opacity:1;color-rendering:auto;image-rendering:auto;shape-rendering:auto;text-rendering:auto;enable-background:accumulate" d="m 6.5996094,289.26172 a 0.13230489,0.13230489 0 0 0 -0.1171875,0.13281 l 0,0.6582 a 0.13230489,0.13230489 0 1 0 0.2636719,0 l 0,-0.6582 a 0.13230489,0.13230489 0 0 0 -0.1464844,-0.13281 z"></path><path style="color:#000000;font-style:normal;font-variant:normal;font-weight:normal;font-stretch:normal;font-size:medium;line-height:normal;font-family:sans-serif;text-indent:0;text-align:start;text-decoration:none;text-decoration-line:none;text-decoration-style:solid;text-decoration-color:#000000;letter-spacing:normal;word-spacing:normal;text-transform:none;direction:ltr;block-progression:tb;writing-mode:lr-tb;baseline-shift:baseline;text-anchor:start;white-space:normal;clip-rule:nonzero;display:inline;overflow:visible;visibility:visible;opacity:1;isolation:auto;mix-blend-mode:normal;color-interpolation:sRGB;color-interpolation-filters:linearRGB;solid-color:#000000;solid-opacity:1;fill:#FF3366;fill-opacity:1;fill-rule:evenodd;stroke:none;stroke-width:0.26458332;stroke-linecap:round;stroke-linejoin:round;stroke-miterlimit:4;stroke-dasharray:none;stroke-dashoffset:0;stroke-opacity:1;color-rendering:auto;image-rendering:auto;shape-rendering:auto;text-rendering:auto;enable-background:accumulate" d="m 6.1367188,289.26172 a 0.13230489,0.13230489 0 0 0 -0.1171876,0.13281 l 0,0.6582 a 0.13230489,0.13230489 0 1 0 0.2636719,0 l 0,-0.6582 a 0.13230489,0.13230489 0 0 0 -0.1464843,-0.13281 z"></path><path style="color:#000000;font-style:normal;font-variant:normal;font-weight:normal;font-stretch:normal;font-size:medium;line-height:normal;font-family:sans-serif;text-indent:0;text-align:start;text-decoration:none;text-decoration-line:none;text-decoration-style:solid;text-decoration-color:#000000;letter-spacing:normal;word-spacing:normal;text-transform:none;direction:ltr;block-progression:tb;writing-mode:lr-tb;baseline-shift:baseline;text-anchor:start;white-space:normal;clip-rule:nonzero;display:inline;overflow:visible;visibility:visible;opacity:1;isolation:auto;mix-blend-mode:normal;color-interpolation:sRGB;color-interpolation-filters:linearRGB;solid-color:#000000;solid-opacity:1;fill:#FF3366;fill-opacity:1;fill-rule:evenodd;stroke:none;stroke-width:0.26458332;stroke-linecap:round;stroke-linejoin:round;stroke-miterlimit:4;stroke-dasharray:none;stroke-dashoffset:0;stroke-opacity:1;color-rendering:auto;image-rendering:auto;shape-rendering:auto;text-rendering:auto;enable-background:accumulate" d="m 5.6738281,289.26172 a 0.13230489,0.13230489 0 0 0 -0.1171875,0.13281 l 0,0.6582 a 0.13230489,0.13230489 0 1 0 0.2636719,0 l 0,-0.6582 a 0.13230489,0.13230489 0 0 0 -0.1464844,-0.13281 z"></path><path style="color:#000000;font-style:normal;font-variant:normal;font-weight:normal;font-stretch:normal;font-size:medium;line-height:normal;font-family:sans-serif;text-indent:0;text-align:start;text-decoration:none;text-decoration-line:none;text-decoration-style:solid;text-decoration-color:#000000;letter-spacing:normal;word-spacing:normal;text-transform:none;direction:ltr;block-progression:tb;writing-mode:lr-tb;baseline-shift:baseline;text-anchor:start;white-space:normal;clip-rule:nonzero;display:inline;overflow:visible;visibility:visible;opacity:1;isolation:auto;mix-blend-mode:normal;color-interpolation:sRGB;color-interpolation-filters:linearRGB;solid-color:#000000;solid-opacity:1;fill:#FF3366;fill-opacity:1;fill-rule:evenodd;stroke:none;stroke-width:0.26458332;stroke-linecap:round;stroke-linejoin:round;stroke-miterlimit:4;stroke-dasharray:none;stroke-dashoffset:0;stroke-opacity:1;color-rendering:auto;image-rendering:auto;shape-rendering:auto;text-rendering:auto;enable-background:accumulate" d="m 7.9355469,289.39258 a 0.13230489,0.13230489 0 0 0 -0.1308594,0.13476 l 0,0.39258 a 0.1328125,0.1328125 0 0 0 0.265625,0 l 0,-0.39258 a 0.13230489,0.13230489 0 0 0 -0.1347656,-0.13476 z"></path></g></svg>