<svg fill="#FF3366" xmlns:dc="http://purl.org/dc/elements/1.1/" xmlns:cc="http://creativecommons.org/ns#" xmlns:rdf="http://www.w3.org/1999/02/22-rdf-syntax-ns#" xmlns:svg="http://www.w3.org/2000/svg" xmlns="http://www.w3.org/2000/svg" xmlns:sodipodi="http://sodipodi.sourceforge.net/DTD/sodipodi-0.dtd" xmlns:inkscape="http://www.inkscape.org/namespaces/inkscape" viewBox="0 0 8.4666665 8.4666669" version="1.1" x="0px" y="0px"><g transform="translate(0,-288.53332)"><path style="color:#000000;font-style:normal;font-variant:normal;font-weight:normal;font-stretch:normal;font-size:medium;line-height:normal;font-family:sans-serif;text-indent:0;text-align:start;text-decoration:none;text-decoration-line:none;text-decoration-style:solid;text-decoration-color:#000000;letter-spacing:normal;word-spacing:normal;text-transform:none;direction:ltr;block-progression:tb;writing-mode:lr-tb;baseline-shift:baseline;text-anchor:start;white-space:normal;clip-rule:nonzero;display:inline;overflow:visible;visibility:visible;opacity:1;isolation:auto;mix-blend-mode:normal;color-interpolation:sRGB;color-interpolation-filters:linearRGB;solid-color:#000000;solid-opacity:1;fill:#FF3366;fill-opacity:1;fill-rule:nonzero;stroke:none;stroke-width:0.26458332;stroke-linecap:butt;stroke-linejoin:round;stroke-miterlimit:4;stroke-dasharray:none;stroke-dashoffset:0;stroke-opacity:1;color-rendering:auto;image-rendering:auto;shape-rendering:auto;text-rendering:auto;enable-background:accumulate" d="m 2.9687504,291.20119 c -0.058858,0.015 -0.099934,0.0682 -0.099609,0.12891 l 0,0.10156 c -0.05219,0.0203 -0.11781,0.0446 -0.2578125,0.10547 -0.1857621,0.0808 -0.397326,0.17899 -0.5351562,0.2793 l -0.00195,0.002 c -0.4759686,0.36287 -0.7519532,0.91231 -0.7519532,1.52344 l 0,0.0859 c 0,0.6624 0.5293098,1.19141 1.1914063,1.19141 l 4.890625,0 c 0.5454269,0 0.8628755,-0.64297 0.5273437,-1.08203 l -0.0625,-0.084 C 7.4355592,292.88911 6.9129703,292.42976 6.283207,292.08206 l 0,0.002 c -0.3093385,-0.17688 -0.6542025,-0.30595 -1.015625,-0.43359 -0.00384,-0.002 -0.00775,-0.003 -0.011719,-0.004 -0.1607102,-0.0402 -0.352682,-0.10324 -0.5507813,-0.14843 -0.066674,-0.0152 -0.1353289,-0.0261 -0.1932492,-0.0376 l -0.00207,-0.13028 c -4.38e-5,-0.0352 -0.014101,-0.0689 -0.039063,-0.0937 l -0.021484,-0.0215 c -0.018812,-0.0182 -0.042602,-0.0304 -0.068359,-0.0351 -0.4733635,-0.0911 -0.968145,-0.0875 -1.4121061,0.0213 z m 0.164062,0.23826 c 0.3708295,-0.0717 0.7406749,-0.0793 1.1113281,-0.0155 l 0,0.16003 c 0,0.0735 0.059343,0.13315 0.1328125,0.13282 0.093712,-4.1e-4 0.1860801,0.0224 0.2675819,0.0391 0.178154,0.0366 0.3614367,0.10044 0.5351563,0.14453 0.3583503,0.12656 0.6892405,0.25005 0.9726563,0.41211 l 0.00195,0.002 c 0.5980841,0.33021 1.0907002,0.7613 1.5039062,1.29883 l 0.0625,0.084 0.00195,0 c 0.2148831,0.28118 0.025343,0.65625 -0.3183593,0.65625 l -4.890625,0 c -0.5234116,0 -0.9257813,-0.40188 -0.9257813,-0.92579 l 0,-0.0859 c 0,-0.53279 0.233322,-0.99751 0.6464844,-1.3125 0.095471,-0.0692 0.3035765,-0.17219 0.4824219,-0.25 0.1794167,-0.0781 0.3300781,-0.13477 0.3300781,-0.13477 0.05139,-0.0192 0.085578,-0.0682 0.085937,-0.12305 l 2.9e-6,-0.0822 z"></path><path style="color:#000000;font-style:normal;font-variant:normal;font-weight:normal;font-stretch:normal;font-size:medium;line-height:normal;font-family:sans-serif;text-indent:0;text-align:start;text-decoration:none;text-decoration-line:none;text-decoration-style:solid;text-decoration-color:#000000;letter-spacing:normal;word-spacing:normal;text-transform:none;direction:ltr;block-progression:tb;writing-mode:lr-tb;baseline-shift:baseline;text-anchor:start;white-space:normal;clip-rule:nonzero;display:inline;overflow:visible;visibility:visible;opacity:1;isolation:auto;mix-blend-mode:normal;color-interpolation:sRGB;color-interpolation-filters:linearRGB;solid-color:#000000;solid-opacity:1;fill:#FF3366;fill-opacity:1;fill-rule:nonzero;stroke:none;stroke-width:0.26458329;stroke-linecap:round;stroke-linejoin:round;stroke-miterlimit:4;stroke-dasharray:none;stroke-dashoffset:0;stroke-opacity:1;color-rendering:auto;image-rendering:auto;shape-rendering:auto;text-rendering:auto;enable-background:accumulate" d="m 3.9277344,292.17188 a 0.13230487,0.13230487 0 0 0 -0.083984,0.0488 c 0,0 -0.1794252,0.21984 -0.3183594,0.44727 a 0.13230923,0.13230923 0 1 0 0.2265625,0.13672 c 0.084323,-0.13803 0.1410146,-0.20345 0.2011719,-0.28125 0.037006,0.0458 0.047899,0.0551 0.095703,0.12304 0.099814,0.14189 0.1835938,0.32971 0.1835938,0.3711 0,0.14439 -0.1138162,0.27734 -0.2851563,0.27734 -0.022018,0 -9.428e-4,0.006 -0.029297,-0.008 a 0.13276887,0.13276887 0 1 0 -0.1171876,0.23828 c 0.059722,0.0294 0.1244664,0.0352 0.1464844,0.0352 0.3130792,0 0.5507813,-0.25489 0.5507813,-0.54297 0,-0.1965 -0.1230551,-0.36798 -0.2324219,-0.52344 -0.1093668,-0.15546 -0.21875,-0.27734 -0.21875,-0.27734 a 0.13230487,0.13230487 0 0 0 -0.1191406,-0.0449 z"></path><path style="color:#000000;font-style:normal;font-variant:normal;font-weight:normal;font-stretch:normal;font-size:medium;line-height:normal;font-family:sans-serif;text-indent:0;text-align:start;text-decoration:none;text-decoration-line:none;text-decoration-style:solid;text-decoration-color:#000000;letter-spacing:normal;word-spacing:normal;text-transform:none;direction:ltr;block-progression:tb;writing-mode:lr-tb;baseline-shift:baseline;text-anchor:start;white-space:normal;clip-rule:nonzero;display:inline;overflow:visible;visibility:visible;opacity:1;isolation:auto;mix-blend-mode:normal;color-interpolation:sRGB;color-interpolation-filters:linearRGB;solid-color:#000000;solid-opacity:1;fill:#FF3366;fill-opacity:1;fill-rule:nonzero;stroke:none;stroke-width:0.26458332;stroke-linecap:round;stroke-linejoin:round;stroke-miterlimit:4;stroke-dasharray:none;stroke-dashoffset:0;stroke-opacity:1;color-rendering:auto;image-rendering:auto;shape-rendering:auto;text-rendering:auto;enable-background:accumulate" d="m 3.4355469,292.43555 a 0.13230489,0.13230489 0 0 0 -0.097656,0.0488 c 0,0 -0.1032914,0.1219 -0.2070312,0.27734 -0.1037398,0.15544 -0.2207031,0.32702 -0.2207032,0.51953 1e-7,0.2844 0.2248245,0.54297 0.5292969,0.54297 0.2910545,0 0.5292969,-0.25005 0.5292969,-0.54297 0,-0.19251 -0.1169634,-0.36409 -0.2207031,-0.51953 -0.1037398,-0.15544 -0.2070313,-0.27735 -0.2070313,-0.27734 a 0.13230489,0.13230489 0 0 0 -0.1054687,-0.0488 z m 0.00391,0.35547 c 0.034573,0.0453 0.044069,0.0535 0.087891,0.11914 0.094698,0.14189 0.1777343,0.32573 0.1777343,0.37109 0,0.13958 -0.1389163,0.2793 -0.265625,0.2793 -0.1550672,0 -0.2636718,-0.1312 -0.2636719,-0.2793 0,-0.0454 0.081084,-0.2292 0.1757813,-0.37109 0.043821,-0.0657 0.053317,-0.0739 0.087891,-0.11914 z"></path><path style="color:#000000;font-style:normal;font-variant:normal;font-weight:normal;font-stretch:normal;font-size:medium;line-height:normal;font-family:sans-serif;text-indent:0;text-align:start;text-decoration:none;text-decoration-line:none;text-decoration-style:solid;text-decoration-color:#000000;letter-spacing:normal;word-spacing:normal;text-transform:none;direction:ltr;block-progression:tb;writing-mode:lr-tb;baseline-shift:baseline;text-anchor:start;white-space:normal;clip-rule:nonzero;display:inline;overflow:visible;visibility:visible;opacity:1;isolation:auto;mix-blend-mode:normal;color-interpolation:sRGB;color-interpolation-filters:linearRGB;solid-color:#000000;solid-opacity:1;fill:#FF3366;fill-opacity:1;fill-rule:evenodd;stroke:none;stroke-width:0.26458332px;stroke-linecap:butt;stroke-linejoin:miter;stroke-miterlimit:4;stroke-dasharray:none;stroke-dashoffset:0;stroke-opacity:1;color-rendering:auto;image-rendering:auto;shape-rendering:auto;text-rendering:auto;enable-background:accumulate" d="m 0.52929688,291.70898 0,2.64454 0.26367187,0 0,-2.64454 -0.26367187,0 z"></path><path style="color:#000000;font-style:normal;font-variant:normal;font-weight:normal;font-stretch:normal;font-size:medium;line-height:normal;font-family:sans-serif;text-indent:0;text-align:start;text-decoration:none;text-decoration-line:none;text-decoration-style:solid;text-decoration-color:#000000;letter-spacing:normal;word-spacing:normal;text-transform:none;direction:ltr;block-progression:tb;writing-mode:lr-tb;baseline-shift:baseline;text-anchor:start;white-space:normal;clip-rule:nonzero;display:inline;overflow:visible;visibility:visible;opacity:1;isolation:auto;mix-blend-mode:normal;color-interpolation:sRGB;color-interpolation-filters:linearRGB;solid-color:#000000;solid-opacity:1;fill:#FF3366;fill-opacity:1;fill-rule:nonzero;stroke:none;stroke-width:0.26458332;stroke-linecap:butt;stroke-linejoin:miter;stroke-miterlimit:4;stroke-dasharray:none;stroke-dashoffset:0;stroke-opacity:1;color-rendering:auto;image-rendering:auto;shape-rendering:auto;text-rendering:auto;enable-background:accumulate" d="m 0.26367188,291.57617 0,0.26367 0.79492192,0 0,-0.26367 -0.79492192,0 z"></path><path style="color:#000000;font-style:normal;font-variant:normal;font-weight:normal;font-stretch:normal;font-size:medium;line-height:normal;font-family:sans-serif;text-indent:0;text-align:start;text-decoration:none;text-decoration-line:none;text-decoration-style:solid;text-decoration-color:#000000;letter-spacing:normal;word-spacing:normal;text-transform:none;direction:ltr;block-progression:tb;writing-mode:lr-tb;baseline-shift:baseline;text-anchor:start;white-space:normal;clip-rule:nonzero;display:inline;overflow:visible;visibility:visible;opacity:1;isolation:auto;mix-blend-mode:normal;color-interpolation:sRGB;color-interpolation-filters:linearRGB;solid-color:#000000;solid-opacity:1;fill:#FF3366;fill-opacity:1;fill-rule:nonzero;stroke:none;stroke-width:0.26458332;stroke-linecap:butt;stroke-linejoin:miter;stroke-miterlimit:4;stroke-dasharray:none;stroke-dashoffset:0;stroke-opacity:1;color-rendering:auto;image-rendering:auto;shape-rendering:auto;text-rendering:auto;enable-background:accumulate" d="m 0.26367188,294.22266 0,0.26367 0.79492192,0 0,-0.26367 -0.79492192,0 z"></path></g></svg>