<svg fill="#FF3366" xmlns:dc="http://purl.org/dc/elements/1.1/" xmlns:cc="http://creativecommons.org/ns#" xmlns:rdf="http://www.w3.org/1999/02/22-rdf-syntax-ns#" xmlns:svg="http://www.w3.org/2000/svg" xmlns="http://www.w3.org/2000/svg" xmlns:sodipodi="http://sodipodi.sourceforge.net/DTD/sodipodi-0.dtd" xmlns:inkscape="http://www.inkscape.org/namespaces/inkscape" viewBox="0 0 8.4666665 8.4666669" version="1.1" x="0px" y="0px"><g transform="translate(0,-288.53332)"><path style="color:#000000;font-style:normal;font-variant:normal;font-weight:normal;font-stretch:normal;font-size:medium;line-height:normal;font-family:sans-serif;text-indent:0;text-align:start;text-decoration:none;text-decoration-line:none;text-decoration-style:solid;text-decoration-color:#000000;letter-spacing:normal;word-spacing:normal;text-transform:none;direction:ltr;block-progression:tb;writing-mode:lr-tb;baseline-shift:baseline;text-anchor:start;white-space:normal;clip-rule:nonzero;display:inline;overflow:visible;visibility:visible;opacity:1;isolation:auto;mix-blend-mode:normal;color-interpolation:sRGB;color-interpolation-filters:linearRGB;solid-color:#000000;solid-opacity:1;fill:#FF3366;fill-opacity:1;fill-rule:evenodd;stroke:none;stroke-width:0.26458332px;stroke-linecap:round;stroke-linejoin:round;stroke-miterlimit:4;stroke-dasharray:none;stroke-dashoffset:0;stroke-opacity:1;color-rendering:auto;image-rendering:auto;shape-rendering:auto;text-rendering:auto;enable-background:accumulate" d="m 1.7734375,290.7832 c -0.1924837,0 -0.3577944,0.13846 -0.390625,0.32813 l -0.84765625,4.89648 c -0.0414851,0.2397 0.14736472,0.46289 0.390625,0.46289 l 6.61523435,0 c 0.2432603,0 0.4321102,-0.22319 0.390625,-0.46289 L 7.0839844,291.11133 C 7.0511538,290.92167 6.885843,290.7832 6.6933594,290.7832 l -4.9199219,0 z m 0,0.26368 4.9199219,0 c 0.065547,0 0.1196795,0.0448 0.1308594,0.10937 l 0.8476562,4.89648 c 0.014376,0.0831 -0.046561,0.1543 -0.1308594,0.1543 l -6.61523435,0 c -0.0842982,0 -0.14523543,-0.0712 -0.13085937,-0.1543 l 0.84765622,-4.89648 c 0.01118,-0.0646 0.065313,-0.10937 0.1308594,-0.10937 z"></path><path style="color:#000000;font-style:normal;font-variant:normal;font-weight:normal;font-stretch:normal;font-size:medium;line-height:normal;font-family:sans-serif;text-indent:0;text-align:start;text-decoration:none;text-decoration-line:none;text-decoration-style:solid;text-decoration-color:#000000;letter-spacing:normal;word-spacing:normal;text-transform:none;direction:ltr;block-progression:tb;writing-mode:lr-tb;baseline-shift:baseline;text-anchor:start;white-space:normal;clip-rule:nonzero;display:inline;overflow:visible;visibility:visible;opacity:1;isolation:auto;mix-blend-mode:normal;color-interpolation:sRGB;color-interpolation-filters:linearRGB;solid-color:#000000;solid-opacity:1;fill:#FF3366;fill-opacity:1;fill-rule:nonzero;stroke:none;stroke-width:0.26458332;stroke-linecap:round;stroke-linejoin:round;stroke-miterlimit:4;stroke-dasharray:none;stroke-dashoffset:0;stroke-opacity:1;color-rendering:auto;image-rendering:auto;shape-rendering:auto;text-rendering:auto;enable-background:accumulate" d="m 4.2324219,289.5918 c -0.4002813,0 -0.7265676,0.32628 -0.7265625,0.72656 1.6e-6,0.40028 0.3262859,0.72852 0.7265625,0.72852 0.4002765,0 0.7285139,-0.32824 0.7285156,-0.72852 5e-6,-0.40028 -0.3282344,-0.72656 -0.7285156,-0.72656 z m 0,0.26367 c 0.2572886,0 0.464847,0.2056 0.4648437,0.46289 -1.1e-6,0.25728 -0.2075582,0.46484 -0.4648437,0.46484 -0.2572855,0 -0.4628896,-0.20756 -0.4628907,-0.46484 -3.2e-6,-0.25729 0.205602,-0.46289 0.4628907,-0.46289 z"></path><path style="color:#000000;font-style:normal;font-variant:normal;font-weight:normal;font-stretch:normal;font-size:medium;line-height:normal;font-family:sans-serif;text-indent:0;text-align:start;text-decoration:none;text-decoration-line:none;text-decoration-style:solid;text-decoration-color:#000000;letter-spacing:normal;word-spacing:normal;text-transform:none;direction:ltr;block-progression:tb;writing-mode:lr-tb;baseline-shift:baseline;text-anchor:start;white-space:normal;clip-rule:nonzero;display:inline;overflow:visible;visibility:visible;opacity:1;isolation:auto;mix-blend-mode:normal;color-interpolation:sRGB;color-interpolation-filters:linearRGB;solid-color:#000000;solid-opacity:1;fill:#FF3366;fill-opacity:1;fill-rule:nonzero;stroke:none;stroke-width:0.26458332;stroke-linecap:butt;stroke-linejoin:round;stroke-miterlimit:4;stroke-dasharray:none;stroke-dashoffset:0;stroke-opacity:1;color-rendering:auto;image-rendering:auto;shape-rendering:auto;text-rendering:auto;enable-background:accumulate" d="m 4.2402344,289.0625 c -0.2949759,-0.002 -0.5906838,0.0997 -0.828125,0.30469 -0.4748707,0.40988 -0.5741914,1.1107 -0.2324219,1.63672 l 0.2207031,-0.14453 c -0.2707976,-0.41679 -0.1907122,-0.96626 0.1855469,-1.29102 0.3762684,-0.32475 0.9319552,-0.32295 1.3046875,0.006 0.3727299,0.32879 0.4432311,0.88108 0.1679688,1.29492 l 0.2207031,0.14648 c 0.3474044,-0.5223 0.2555729,-1.2237 -0.2148438,-1.63867 -0.2352097,-0.20749 -0.5292428,-0.31285 -0.8242187,-0.31445 z"></path></g></svg>