<?xml version="1.0" encoding="UTF-8" ?>
<!DOCTYPE svg PUBLIC "-//W3C//DTD SVG 1.1//EN" "http://www.w3.org/Graphics/SVG/1.1/DTD/svg11.dtd">
<svg width="1756pt" height="504pt" viewBox="0 0 1756 504" version="1.1" xmlns="http://www.w3.org/2000/svg">
<path fill="#fbfbfb" d=" M 0.00 0.00 L 1756.00 0.00 L 1756.00 504.00 L 0.00 504.00 L 0.00 0.00 Z" />
<path fill="#0a0a0a" d=" M 1544.93 12.18 C 1537.41 26.18 1523.29 35.14 1509.06 41.23 C 1495.06 47.14 1480.21 50.79 1465.29 53.45 C 1465.68 57.11 1464.15 60.81 1461.04 62.85 C 1453.10 68.50 1443.30 70.51 1433.95 72.52 C 1411.96 76.62 1389.47 77.77 1367.16 76.79 C 1368.91 79.35 1370.42 83.25 1367.69 85.73 C 1363.54 88.97 1358.03 89.44 1352.99 90.01 C 1334.25 91.32 1315.50 89.10 1296.92 86.87 C 1294.56 92.38 1288.70 95.04 1283.09 95.84 C 1274.17 97.14 1265.09 96.52 1256.17 95.58 C 1256.40 98.07 1257.18 101.10 1255.08 103.05 C 1252.13 105.93 1247.81 106.68 1243.89 107.13 C 1235.65 107.70 1227.23 107.05 1219.41 104.28 C 1220.31 106.64 1221.70 109.58 1220.04 111.95 C 1217.82 115.18 1213.55 115.92 1209.95 116.51 C 1203.29 117.16 1196.52 116.86 1189.98 115.45 C 1191.51 117.96 1193.51 120.78 1192.62 123.90 C 1191.66 127.39 1187.95 128.95 1184.78 129.84 C 1177.33 131.62 1169.50 130.99 1162.07 129.43 C 1163.69 132.15 1165.35 135.56 1163.82 138.71 C 1161.95 141.81 1158.38 143.31 1154.98 143.99 C 1147.39 145.52 1139.41 144.92 1132.06 142.54 C 1133.65 145.46 1135.72 148.59 1134.89 152.10 C 1133.87 155.66 1130.20 157.56 1126.86 158.42 C 1119.05 160.36 1110.81 159.42 1103.16 157.27 C 1104.76 160.03 1106.60 163.55 1104.85 166.68 C 1102.84 169.47 1099.31 170.48 1096.08 170.95 C 1087.44 172.00 1078.64 170.33 1070.60 167.17 C 1071.40 170.51 1072.46 174.26 1070.63 177.47 C 1068.64 180.71 1064.59 181.76 1061.04 181.99 C 1052.91 182.32 1044.73 179.75 1038.05 175.16 C 1038.03 177.93 1038.21 181.06 1036.17 183.24 C 1033.37 186.26 1028.87 186.49 1025.05 186.12 C 1018.66 185.47 1012.66 182.76 1007.55 178.95 C 1006.59 181.93 1004.31 184.64 1001.05 185.05 C 993.06 186.17 985.06 182.28 979.66 176.55 C 978.95 179.17 977.02 181.74 974.12 181.97 C 966.82 182.56 960.14 178.08 955.39 172.93 C 954.40 175.16 952.67 177.36 950.03 177.50 C 944.32 177.98 938.83 174.69 935.66 170.08 C 933.55 173.29 930.05 175.71 926.09 175.56 C 920.62 175.61 916.25 171.90 912.57 168.30 C 909.49 165.13 905.39 169.17 903.56 171.82 C 907.77 173.88 912.42 175.11 916.21 177.98 C 921.24 181.93 924.20 188.44 923.59 194.85 C 923.12 202.41 918.34 209.12 912.14 213.21 C 903.32 219.22 892.38 220.85 881.93 221.10 C 880.03 221.17 877.41 222.64 878.09 224.89 C 879.63 227.29 882.70 228.01 884.85 229.77 C 886.83 227.79 889.08 225.66 892.06 225.49 C 895.62 225.02 898.89 226.86 901.64 228.91 C 905.13 224.15 911.93 223.22 916.90 226.18 C 922.09 229.36 927.12 233.31 930.40 238.53 C 935.65 249.49 927.48 262.52 916.96 266.58 C 915.26 267.37 912.64 267.03 912.26 264.90 C 912.36 261.14 913.54 257.49 913.89 253.75 C 910.70 259.30 906.50 264.75 900.54 267.45 C 898.12 268.70 894.46 267.00 894.98 263.98 C 895.50 260.92 896.42 257.94 896.77 254.84 C 893.80 259.74 890.01 264.35 884.83 266.99 C 882.58 268.08 878.95 267.78 878.29 264.92 C 877.70 260.92 880.05 256.99 878.93 253.02 C 878.30 251.39 876.76 250.41 875.57 249.24 C 873.91 256.81 868.62 263.50 861.55 266.70 C 860.04 267.37 858.36 267.14 856.79 267.22 C 855.08 262.94 857.49 258.46 857.69 254.08 C 854.65 259.57 850.56 264.75 844.98 267.79 C 842.56 269.09 838.79 268.18 838.75 264.98 C 839.30 261.70 840.20 258.47 840.47 255.15 C 837.90 260.16 834.11 264.62 829.18 267.45 C 826.91 268.77 823.27 268.70 822.16 265.94 C 821.18 261.60 824.48 257.01 822.22 252.87 C 817.10 247.25 809.09 244.39 805.24 237.57 C 801.05 242.75 797.93 248.71 795.57 254.93 C 794.41 259.62 786.47 259.43 785.17 254.96 C 784.75 253.33 784.57 251.65 784.34 250.00 C 779.55 253.88 774.93 258.29 768.89 260.14 C 760.33 262.96 750.00 264.64 742.01 259.37 C 732.00 262.48 721.14 263.20 710.92 260.78 C 707.06 259.80 702.55 258.18 701.38 253.90 C 689.58 256.88 676.76 258.23 665.03 254.23 C 660.44 252.85 656.60 248.99 656.53 243.98 C 647.69 245.21 638.41 245.39 629.92 242.34 C 624.60 240.31 619.05 236.52 617.98 230.53 C 637.96 216.19 658.55 202.72 679.23 189.42 C 677.10 187.23 677.34 183.70 680.04 182.12 C 689.49 175.37 699.45 169.36 709.14 162.96 C 695.59 167.72 681.56 173.01 666.92 171.64 C 664.07 171.28 660.65 170.49 659.43 167.56 C 658.55 164.77 660.14 162.02 661.06 159.47 C 651.33 162.63 641.31 165.50 631.01 165.70 C 627.25 165.49 622.52 165.26 620.40 161.61 C 618.84 157.84 621.43 154.15 623.51 151.18 C 611.86 153.88 599.98 156.57 587.94 155.92 C 584.11 155.59 578.80 154.56 578.02 150.03 C 577.79 145.79 580.63 142.24 582.90 138.93 C 571.06 140.52 559.10 142.62 547.12 141.49 C 543.64 141.02 539.08 139.95 538.28 135.90 C 537.95 131.35 541.27 127.66 543.79 124.21 C 532.99 126.47 521.91 127.62 510.89 126.79 C 507.26 126.31 503.44 125.86 500.31 123.82 C 498.40 122.64 497.18 120.23 497.96 118.02 C 499.28 113.97 502.86 111.31 505.88 108.54 C 494.99 110.37 483.92 111.57 472.87 110.83 C 469.43 110.33 465.33 109.86 463.18 106.77 C 461.60 101.54 466.89 97.70 470.08 94.39 C 454.09 95.92 437.98 97.91 421.91 96.52 C 417.45 95.87 412.17 95.54 409.10 91.80 C 406.77 88.10 409.84 84.18 411.86 81.12 C 396.56 82.24 381.22 82.25 365.89 81.93 C 348.81 81.21 331.61 79.77 315.09 75.10 C 306.66 72.65 298.25 69.34 291.43 63.67 C 290.44 62.84 289.39 62.06 288.07 61.90 C 271.53 58.35 255.04 52.79 241.18 42.83 C 231.16 35.63 222.97 25.17 220.90 12.75 C 235.60 24.50 254.30 29.38 272.47 32.76 C 296.06 36.97 320.07 38.14 343.99 38.49 C 382.42 38.81 420.82 36.32 459.07 32.72 C 533.12 25.74 607.96 20.59 682.10 29.18 C 708.54 32.47 735.13 36.83 760.08 46.53 C 779.31 53.96 797.48 65.28 810.40 81.59 C 828.30 77.61 846.67 76.43 864.93 75.31 C 875.48 74.88 886.04 74.50 896.60 75.02 C 895.29 72.01 894.19 68.92 893.19 65.79 C 904.26 70.26 916.10 72.73 928.00 73.44 C 938.05 73.64 948.21 73.87 957.96 76.56 C 987.79 70.75 1016.43 60.20 1044.88 49.74 C 1058.29 44.86 1071.67 39.78 1085.55 36.35 C 1113.83 29.44 1142.96 26.74 1171.99 25.79 C 1249.80 23.49 1327.25 33.39 1404.96 35.16 C 1431.39 35.49 1457.94 35.27 1484.15 31.44 C 1505.24 28.34 1526.35 22.94 1544.93 12.18 Z" />
<path fill="#fbfbfb" d=" M 563.65 32.74 C 611.99 31.05 660.81 31.40 708.46 40.73 C 725.68 44.15 742.79 48.51 759.15 54.93 C 776.59 61.92 791.68 73.92 803.61 88.30 C 811.06 96.99 817.26 106.65 824.56 115.45 C 828.70 120.22 833.21 125.01 839.11 127.58 C 842.92 129.40 847.21 129.70 851.37 129.70 C 847.98 127.99 844.41 126.57 841.44 124.16 C 847.01 122.53 852.92 121.97 858.19 119.35 C 852.52 119.90 846.78 120.16 841.13 119.36 C 834.76 119.15 831.38 112.85 828.39 108.09 C 845.19 112.16 861.52 104.19 878.26 104.01 C 870.84 99.95 862.05 101.23 853.95 101.01 C 846.66 101.67 839.31 101.43 832.07 100.48 C 828.43 99.95 825.02 98.41 822.13 96.18 C 826.34 95.11 830.71 94.87 834.96 93.89 C 855.24 89.79 875.09 82.73 895.98 82.38 C 899.58 82.37 903.17 82.38 906.77 82.44 C 906.03 80.66 905.32 78.87 904.66 77.07 C 923.03 82.34 942.73 78.45 960.96 84.43 C 964.74 85.99 965.94 90.26 967.02 93.82 C 964.99 91.61 962.82 89.51 960.25 87.95 C 962.03 91.12 963.53 94.47 964.14 98.08 C 967.07 98.02 969.92 99.35 972.85 98.78 C 979.85 97.42 987.06 98.78 993.89 100.47 C 998.50 101.85 1003.49 103.99 1005.75 108.55 C 1007.36 111.78 1006.24 115.43 1005.89 118.81 C 1002.64 113.92 996.34 112.72 991.09 114.79 C 987.53 116.87 983.73 114.52 979.97 114.65 C 970.61 114.56 961.83 118.98 954.66 124.70 C 953.07 126.16 950.36 125.99 949.40 128.16 C 951.60 132.05 954.84 126.14 957.97 127.03 C 969.92 127.74 982.06 130.18 993.90 127.09 C 992.71 130.04 990.28 132.30 987.24 133.21 C 972.10 138.92 955.73 133.38 940.17 136.16 C 930.58 138.15 923.15 144.96 915.23 150.24 C 909.00 154.69 902.27 158.68 894.73 160.42 C 896.12 158.12 899.36 156.19 898.89 153.24 C 896.11 152.47 893.39 153.82 890.83 154.71 C 885.83 156.59 881.52 159.77 876.90 162.36 C 885.50 152.96 895.41 144.31 907.14 139.07 C 902.56 138.26 898.07 140.06 894.04 142.05 C 885.47 146.37 877.80 152.32 868.98 156.18 C 859.00 160.88 847.69 161.72 836.84 160.67 C 832.33 159.91 827.14 158.69 824.86 154.24 C 832.50 155.47 840.47 156.64 848.06 154.47 C 854.27 152.80 859.77 149.04 864.07 144.32 C 854.28 149.41 842.57 152.20 831.76 148.95 C 838.18 147.35 844.42 144.96 850.10 141.53 C 835.50 141.93 821.15 136.89 808.99 129.03 C 801.54 124.32 794.90 118.47 788.59 112.35 C 782.00 105.33 775.88 97.81 768.36 91.74 C 752.13 78.36 732.75 69.41 712.89 62.87 C 672.83 50.02 630.52 46.14 588.66 45.21 C 579.24 44.91 569.77 44.78 560.36 45.27 C 521.78 45.47 483.45 50.17 445.06 53.33 C 411.80 55.95 378.40 57.81 345.04 56.36 C 317.74 54.89 289.94 51.90 264.49 41.31 C 261.13 39.82 257.59 38.55 254.71 36.19 C 287.74 44.50 322.05 45.55 355.94 45.54 C 392.00 45.33 428.01 42.90 463.94 39.87 C 492.26 37.33 520.56 34.44 548.99 33.35 C 553.87 33.05 558.77 33.22 563.65 32.74 Z" />
<path fill="#fbfbfb" d=" M 1101.83 39.83 C 1130.21 34.28 1159.18 32.86 1188.02 32.38 C 1225.52 32.29 1262.97 34.42 1300.39 36.75 C 1317.38 37.84 1334.38 38.91 1351.39 39.75 C 1392.24 41.79 1433.33 43.12 1474.09 38.93 C 1484.84 37.92 1495.43 35.70 1506.09 34.10 C 1486.58 43.68 1464.75 46.95 1443.36 49.27 C 1419.33 51.67 1395.17 52.16 1371.05 52.00 C 1318.81 52.22 1266.61 47.83 1214.38 50.22 C 1189.40 51.44 1164.43 53.86 1139.87 58.74 C 1117.97 62.87 1096.62 69.44 1075.48 76.41 C 1053.38 84.59 1031.33 93.04 1008.66 99.56 C 998.97 91.64 985.93 90.84 973.99 89.90 C 973.04 87.33 971.90 84.84 970.57 82.46 C 989.51 77.91 1007.67 70.67 1025.95 64.02 C 1050.87 54.90 1075.63 44.72 1101.83 39.83 Z" />
<path fill="#fbfbfb" d=" M 538.57 57.41 C 548.55 55.07 558.80 53.31 569.08 53.75 C 563.53 57.95 556.80 60.09 550.25 62.15 C 541.29 64.65 531.36 66.34 522.51 62.54 C 527.59 60.09 533.15 58.88 538.57 57.41 Z" />
<path fill="#fbfbfb" d=" M 588.21 56.43 C 599.33 52.65 611.13 55.17 622.55 55.60 C 615.44 58.52 607.74 60.30 600.04 60.36 C 595.86 60.06 591.47 59.26 588.21 56.43 Z" />
<path fill="#fbfbfb" d=" M 450.88 61.55 C 472.02 59.90 493.11 57.66 514.27 56.28 C 510.05 57.87 505.57 58.58 501.20 59.60 C 475.11 65.17 448.65 68.93 422.10 71.41 C 396.35 73.59 370.40 74.70 344.63 72.22 C 329.76 70.66 314.68 68.39 300.87 62.44 C 314.52 64.07 328.25 65.21 342.01 65.21 C 378.33 66.06 414.69 64.78 450.88 61.55 Z" />
<path fill="#fbfbfb" d=" M 618.89 65.36 C 627.08 62.58 635.35 59.89 643.91 58.51 C 653.38 57.92 662.71 60.29 672.02 61.67 C 660.29 65.61 648.66 71.39 635.98 70.92 C 629.87 70.86 623.94 68.73 618.89 65.36 Z" />
<path fill="#fbfbfb" d=" M 1221.66 58.83 C 1234.59 58.13 1247.85 57.25 1260.50 60.68 C 1263.11 61.33 1265.71 62.01 1268.31 62.80 C 1263.35 65.63 1257.37 64.75 1251.92 64.71 C 1241.69 63.83 1231.26 62.62 1221.66 58.83 Z" />
<path fill="#fbfbfb" d=" M 1273.66 58.75 C 1296.12 59.00 1318.60 60.14 1341.07 60.48 C 1356.02 61.41 1371.01 61.31 1385.97 62.01 C 1408.06 61.99 1430.26 62.38 1452.20 59.28 C 1442.54 64.33 1431.49 65.76 1420.84 67.28 C 1394.97 70.26 1368.85 69.65 1342.89 68.38 C 1319.70 66.56 1295.98 65.89 1273.66 58.75 Z" />
<path fill="#fbfbfb" d=" M 545.74 75.06 C 556.93 69.97 567.82 64.13 579.50 60.21 C 583.30 64.16 588.88 65.37 594.16 65.63 C 582.82 70.21 571.47 75.55 559.14 76.69 C 554.61 77.19 550.05 76.48 545.74 75.06 Z" />
<path fill="#fbfbfb" d=" M 1185.95 61.22 C 1194.38 60.18 1203.35 59.06 1211.44 62.38 C 1217.64 64.77 1223.91 67.07 1229.92 69.93 L 1229.85 70.51 C 1222.85 72.66 1215.45 71.11 1208.46 69.71 C 1200.67 67.73 1193.18 64.71 1185.95 61.22 Z" />
<path fill="#fbfbfb" d=" M 1152.93 65.72 C 1160.81 64.48 1169.24 63.12 1176.88 66.25 C 1185.88 70.04 1194.72 74.21 1203.36 78.79 C 1199.76 80.43 1195.68 80.00 1191.87 79.71 C 1178.04 78.10 1164.88 72.68 1152.93 65.72 Z" />
<path fill="#fbfbfb" d=" M 418.89 85.42 C 448.90 82.58 478.45 75.96 507.12 66.73 C 508.67 65.76 509.92 67.37 511.21 67.98 C 515.63 70.88 520.99 71.61 526.10 72.40 C 518.48 75.56 510.45 77.58 502.50 79.73 C 478.44 85.61 453.86 90.05 429.03 90.22 C 424.80 89.83 420.50 90.22 416.31 89.43 C 414.55 87.78 416.92 85.21 418.89 85.42 Z" />
<path fill="#fbfbfb" d=" M 652.21 78.81 C 661.76 74.43 671.73 70.95 681.91 68.35 C 689.93 67.26 698.10 68.50 705.85 70.67 C 695.54 75.22 685.41 80.50 674.44 83.29 C 666.96 84.49 657.75 85.01 652.21 78.81 Z" />
<path fill="#fbfbfb" d=" M 571.94 87.91 C 584.56 81.59 597.10 75.07 609.86 69.01 C 615.60 73.99 622.88 77.00 630.50 77.30 C 621.29 82.41 611.24 85.92 601.07 88.55 C 591.57 90.63 581.04 92.36 571.94 87.91 Z" />
<path fill="#fbfbfb" d=" M 1124.74 71.54 C 1133.74 69.54 1143.98 68.85 1152.15 73.88 C 1158.63 77.49 1165.38 80.77 1171.30 85.28 C 1167.96 85.94 1164.55 86.70 1161.15 86.18 C 1147.91 84.88 1135.56 79.03 1124.74 71.54 Z" />
<path fill="#fbfbfb" d=" M 1258.07 71.48 C 1264.17 69.50 1270.69 70.13 1277.02 70.00 C 1285.55 69.76 1293.68 72.67 1302.01 74.03 C 1316.83 76.89 1331.85 78.57 1346.89 79.75 C 1352.30 80.48 1357.89 79.99 1363.19 81.56 C 1353.38 84.47 1343.04 83.94 1332.95 83.60 C 1315.91 82.56 1298.95 80.40 1282.16 77.32 C 1274.05 75.72 1265.88 74.22 1258.07 71.48 Z" />
<path fill="#fbfbfb" d=" M 1241.51 76.67 C 1243.08 76.11 1244.63 77.03 1246.18 77.36 C 1259.41 81.48 1272.81 84.98 1286.16 88.69 C 1278.09 91.51 1269.31 90.87 1260.97 89.93 C 1247.73 88.25 1235.04 83.73 1222.73 78.77 C 1229.06 79.51 1235.44 78.52 1241.51 76.67 Z" />
<path fill="#fbfbfb" d=" M 1096.88 79.35 C 1105.87 76.25 1116.70 75.58 1124.88 81.16 C 1131.08 85.44 1137.45 89.54 1143.06 94.59 C 1134.13 98.38 1124.12 95.40 1115.97 91.08 C 1109.48 87.37 1103.25 83.24 1096.88 79.35 Z" />
<path fill="#fbfbfb" d=" M 475.86 100.19 C 495.72 95.33 515.03 88.37 533.55 79.71 C 538.87 84.31 546.33 85.41 553.14 85.47 C 531.72 95.52 508.72 102.67 485.06 104.51 C 480.08 104.74 475.03 105.30 470.12 104.24 C 471.29 102.01 473.40 100.59 475.86 100.19 Z" />
<path fill="#fbfbfb" d=" M 704.03 83.50 C 708.87 81.77 713.69 79.14 719.01 79.62 C 725.81 80.11 732.29 82.64 738.31 85.73 C 727.66 90.07 717.04 94.61 706.02 97.91 C 697.34 99.71 686.98 100.78 679.64 94.74 C 687.32 90.11 695.74 86.87 704.03 83.50 Z" />
<path fill="#fbfbfb" d=" M 603.67 103.40 C 616.05 97.04 628.34 90.51 640.79 84.29 C 646.59 89.49 654.26 91.73 661.88 92.37 C 649.27 98.48 636.12 104.09 622.09 105.75 C 615.91 106.19 609.26 106.54 603.67 103.40 Z" />
<path fill="#fbfbfb" d=" M 1193.00 86.70 C 1200.01 87.64 1207.26 87.41 1213.99 85.03 C 1226.02 90.05 1238.26 94.63 1249.99 100.35 C 1237.79 103.19 1224.84 100.99 1213.41 96.24 C 1206.66 92.94 1199.64 90.21 1193.00 86.70 Z" />
<path fill="#fbfbfb" d=" M 1068.89 88.37 C 1078.03 86.22 1088.37 85.25 1096.82 90.17 C 1103.31 94.79 1109.70 99.62 1115.67 104.92 C 1108.42 107.43 1100.38 106.48 1093.44 103.47 C 1084.57 99.64 1076.69 93.97 1068.89 88.37 Z" />
<path fill="#fbfbfb" d=" M 1159.94 93.50 C 1166.93 94.98 1174.02 93.07 1180.82 91.68 C 1192.28 96.93 1203.78 102.33 1214.34 109.26 C 1202.05 113.16 1188.86 109.18 1177.84 103.40 C 1171.87 100.11 1165.66 97.22 1159.94 93.50 Z" />
<path fill="#0a0a0a" d=" M 955.87 92.44 C 958.18 93.69 959.55 95.83 959.86 98.41 C 959.02 98.81 958.19 99.21 957.38 99.62 C 957.76 97.09 956.85 94.71 955.87 92.44 Z" />
<path fill="#fbfbfb" d=" M 510.18 115.13 C 528.31 109.93 545.59 102.27 562.48 93.97 C 569.40 99.32 578.71 100.54 587.22 100.50 C 568.43 110.25 547.75 116.10 526.88 119.34 C 519.85 120.10 512.70 121.31 505.65 120.18 C 506.21 117.82 507.61 115.56 510.18 115.13 Z" />
<path fill="#fbfbfb" d=" M 740.02 96.92 C 747.84 93.36 756.87 96.53 763.26 101.57 C 754.57 105.96 745.77 110.20 736.76 113.89 C 728.24 116.35 717.76 116.81 710.64 110.67 C 719.69 104.72 730.03 101.02 740.02 96.92 Z" />
<path fill="#0a0a0a" d=" M 924.96 95.43 C 933.25 94.45 941.70 95.17 949.89 96.63 C 953.98 96.92 954.51 101.58 953.79 104.75 C 952.56 104.71 951.34 104.66 950.14 104.61 C 946.75 108.94 942.98 113.51 937.37 114.86 C 937.40 113.37 939.41 110.44 936.91 109.88 C 933.71 109.33 930.19 109.70 927.24 110.98 C 928.01 109.46 929.91 109.10 931.19 108.09 C 933.89 106.65 934.75 103.50 935.67 100.82 C 934.19 96.27 928.92 95.98 924.96 95.43 Z" />
<path fill="#fbfbfb" d=" M 1042.94 98.86 C 1050.90 96.83 1060.45 95.11 1067.52 100.44 C 1073.28 105.16 1078.87 110.14 1083.96 115.58 C 1083.90 117.35 1081.32 116.55 1080.17 116.96 C 1065.39 118.24 1053.34 107.94 1042.94 98.86 Z" />
<path fill="#fbfbfb" d=" M 938.53 108.35 C 935.90 105.90 936.86 101.66 938.57 98.94 C 940.00 98.99 941.45 99.03 942.92 99.07 C 942.72 100.55 941.77 102.05 942.29 103.55 C 942.63 105.89 945.22 106.47 946.87 107.68 C 944.34 108.84 941.03 110.52 938.53 108.35 Z" />
<path fill="#fbfbfb" d=" M 636.61 119.88 C 647.45 113.47 658.09 106.72 668.98 100.37 C 674.59 105.16 681.75 107.88 689.05 108.62 C 675.38 116.41 660.01 123.14 643.93 121.92 C 641.36 121.81 638.96 120.81 636.61 119.88 Z" />
<path fill="#fbfbfb" d=" M 1131.58 103.63 C 1138.67 105.15 1145.81 103.62 1152.74 102.17 C 1163.88 108.25 1175.29 114.19 1184.92 122.55 C 1184.89 122.78 1184.83 123.23 1184.81 123.45 C 1177.09 125.89 1168.83 124.08 1161.46 121.33 C 1155.21 119.10 1149.80 115.18 1144.17 111.77 C 1139.98 109.05 1135.57 106.65 1131.58 103.63 Z" />
<path fill="#fbfbfb" d=" M 1017.11 108.71 C 1025.17 107.91 1034.36 106.55 1041.44 111.47 C 1046.69 116.05 1051.65 121.00 1056.38 126.12 C 1041.03 129.09 1027.28 119.03 1017.11 108.71 Z" />
<path fill="#fbfbfb" d=" M 549.09 130.34 C 565.02 124.54 580.24 117.03 595.65 110.01 C 603.33 114.52 612.60 115.72 621.38 115.82 C 605.99 124.05 589.09 129.22 572.07 132.87 C 563.36 134.61 554.45 135.79 545.55 135.27 C 545.45 133.00 546.89 130.94 549.09 130.34 Z" />
<path fill="#fbfbfb" d=" M 1101.86 114.04 C 1108.91 115.60 1116.18 114.63 1123.01 112.50 C 1134.82 119.80 1146.73 127.19 1156.90 136.73 C 1147.35 140.54 1136.40 138.00 1127.67 133.23 C 1118.51 127.61 1110.58 120.28 1101.86 114.04 Z" />
<path fill="#fbfbfb" d=" M 762.75 116.77 C 769.37 113.61 777.50 115.94 782.74 120.69 C 773.18 125.63 763.06 130.92 752.00 130.65 C 747.86 130.71 743.85 129.35 740.29 127.30 C 747.52 123.27 755.15 120.04 762.75 116.77 Z" />
<path fill="#fbfbfb" d=" M 669.27 134.78 C 679.24 128.80 689.07 122.59 699.21 116.88 C 704.75 121.58 711.75 124.12 718.92 124.93 C 709.88 129.93 700.00 133.33 689.92 135.48 C 683.14 136.72 675.71 137.99 669.27 134.78 Z" />
<path fill="#fbfbfb" d=" M 1075.24 125.66 C 1081.50 127.12 1087.87 125.62 1094.01 124.26 C 1106.29 132.43 1118.08 141.56 1128.76 151.77 C 1120.45 153.69 1111.47 153.04 1103.78 149.26 C 1092.63 143.97 1084.21 134.68 1075.19 126.54 C 1075.20 126.32 1075.23 125.88 1075.24 125.66 Z" />
<path fill="#fbfbfb" d=" M 588.06 145.23 C 601.96 139.45 615.33 132.47 628.89 125.97 C 635.70 130.69 644.25 131.88 652.35 131.98 C 636.77 140.41 619.58 145.64 602.15 148.55 C 596.47 149.33 590.74 150.15 585.00 149.69 C 585.24 147.79 586.05 145.82 588.06 145.23 Z" />
<path fill="#fbfbfb" d=" M 785.92 131.55 C 790.64 129.17 796.30 130.21 800.80 132.61 C 800.78 132.82 800.74 133.23 800.72 133.44 C 791.81 139.44 780.05 145.14 769.48 139.84 C 774.55 136.34 780.39 134.20 785.92 131.55 Z" />
<path fill="#fbfbfb" d=" M 702.60 147.51 C 711.37 142.68 719.93 137.43 728.97 133.13 C 734.46 136.53 740.58 138.95 747.05 139.64 C 739.05 143.55 730.60 146.59 721.88 148.40 C 715.53 149.53 708.65 150.22 702.60 147.51 Z" />
<path fill="#fbfbfb" d=" M 1044.95 133.22 C 1051.45 135.58 1058.56 135.98 1065.33 134.63 C 1077.08 144.24 1089.40 153.49 1099.05 165.32 C 1089.01 166.97 1077.81 165.97 1069.72 159.23 C 1060.51 151.52 1053.18 141.91 1044.95 133.22 Z" />
<path fill="#fbfbfb" d=" M 1021.39 136.15 C 1026.35 137.54 1031.45 138.33 1036.61 138.42 C 1046.78 150.38 1057.46 162.09 1065.66 175.53 C 1057.58 176.76 1048.74 175.09 1042.76 169.20 C 1033.14 160.02 1027.98 147.46 1021.39 136.15 Z" />
<path fill="#fbfbfb" d=" M 998.91 138.09 C 1003.08 139.46 1007.38 140.38 1011.71 141.08 C 1018.61 153.72 1025.83 166.31 1030.72 179.90 C 1023.27 180.21 1015.86 176.40 1011.98 170.00 C 1005.80 160.21 1002.88 148.86 998.91 138.09 Z" />
<path fill="#fbfbfb" d=" M 629.08 156.29 C 639.80 151.30 650.31 145.86 660.79 140.39 C 666.12 143.94 672.71 144.47 678.88 145.30 C 664.85 152.40 649.72 157.46 634.10 159.54 C 631.85 159.80 629.57 160.03 627.33 159.65 C 626.27 158.29 627.99 156.92 629.08 156.29 Z" />
<path fill="#fbfbfb" d=" M 808.82 141.78 C 813.23 140.51 817.90 141.69 822.07 143.28 C 815.40 148.14 805.87 152.85 798.09 147.60 C 801.54 145.46 805.00 143.22 808.82 141.78 Z" />
<path fill="#fbfbfb" d=" M 979.94 144.58 C 982.91 144.14 985.84 143.44 988.75 142.63 C 992.06 154.53 995.81 166.31 999.15 178.20 C 993.99 177.25 988.82 174.55 986.46 169.64 C 982.60 161.83 981.80 152.99 979.94 144.58 Z" />
<path fill="#fbfbfb" d=" M 937.39 146.70 C 940.42 145.71 943.57 145.09 946.77 144.90 C 947.30 153.36 947.87 161.83 948.65 170.28 C 944.51 168.42 940.82 165.18 939.14 160.90 C 937.34 156.40 937.28 151.47 937.39 146.70 Z" />
<path fill="#fbfbfb" d=" M 959.05 145.01 C 961.93 145.15 964.83 145.18 967.73 145.25 C 969.69 155.40 971.32 165.62 973.06 175.81 C 968.53 173.72 964.03 170.73 962.14 165.89 C 959.55 159.27 959.49 152.01 959.05 145.01 Z" />
<path fill="#fbfbfb" d=" M 735.96 159.19 C 743.48 154.42 751.08 149.74 758.81 145.30 C 764.04 148.50 770.10 149.97 776.15 150.58 C 763.87 156.69 749.87 162.33 735.96 159.19 Z" />
<path fill="#fbfbfb" d=" M 668.82 162.90 C 677.32 159.68 685.53 155.70 693.91 152.20 C 698.26 154.58 703.08 155.85 707.99 156.40 C 694.96 162.29 680.72 166.31 666.33 165.96 C 666.59 164.55 667.27 163.19 668.82 162.90 Z" />
<path fill="#fbfbfb" d=" M 916.12 160.90 C 919.65 158.44 923.14 155.91 926.77 153.58 C 926.91 159.39 927.41 165.18 927.43 171.00 C 923.05 168.39 919.00 165.15 916.12 160.90 Z" />
<path fill="#fbfbfb" d=" M 767.79 168.92 C 774.50 164.20 781.12 159.31 788.15 155.08 C 793.09 156.61 798.04 158.66 803.38 158.28 C 794.71 163.67 785.17 168.22 774.93 169.43 C 772.53 169.81 770.13 169.34 767.79 168.92 Z" />
<path fill="#fbfbfb" d=" M 801.14 175.39 C 806.18 171.11 811.49 167.14 816.83 163.23 C 820.66 165.37 824.95 166.52 829.32 166.91 C 821.03 172.18 811.24 177.06 801.14 175.39 Z" />
<path fill="#fbfbfb" d=" M 694.12 188.31 C 705.63 180.66 716.85 172.58 728.29 164.83 C 735.21 167.68 742.70 169.03 750.23 169.12 C 738.68 177.48 726.01 184.78 712.06 188.14 C 706.17 189.55 700.00 189.89 694.12 188.31 Z" />
<path fill="#fbfbfb" d=" M 830.63 185.58 C 839.51 177.74 850.81 171.56 862.97 171.99 C 869.39 172.04 877.00 173.41 880.80 179.18 C 886.26 187.24 884.38 198.92 877.54 205.60 C 872.75 210.47 865.82 212.73 859.10 212.93 C 848.45 213.27 837.49 213.61 827.51 217.76 C 827.35 217.16 827.03 215.98 826.87 215.39 C 814.72 221.17 802.85 229.23 796.39 241.41 C 794.13 245.16 793.43 249.61 791.04 253.28 C 788.46 250.16 790.29 246.07 790.70 242.54 C 792.90 230.74 800.04 220.68 807.99 212.00 C 817.00 202.43 827.63 194.15 839.75 188.92 C 836.75 187.69 833.70 186.60 830.63 185.58 Z" />
<path fill="#fbfbfb" d=" M 760.18 174.43 C 767.12 178.14 775.10 176.13 782.54 175.97 C 772.08 184.87 760.49 193.14 747.06 196.76 C 741.43 198.44 735.49 198.03 729.71 197.85 C 740.23 190.52 749.72 181.84 760.18 174.43 Z" />
<path fill="#fbfbfb" d=" M 889.18 178.42 C 896.26 176.43 904.32 177.27 910.34 181.69 C 914.93 184.92 917.69 190.89 916.37 196.46 C 914.96 202.41 910.21 207.00 904.94 209.76 C 895.71 214.67 884.93 215.34 874.68 214.89 C 877.81 213.00 881.32 211.60 883.89 208.92 C 891.58 201.12 894.07 188.33 889.18 178.42 Z" />
<path fill="#fbfbfb" d=" M 766.70 204.95 C 776.51 197.79 785.25 189.30 794.93 181.96 C 797.49 182.92 800.15 183.72 802.90 183.97 C 807.35 184.12 811.73 182.58 816.16 182.84 C 806.71 191.57 795.97 199.52 783.56 203.41 C 778.14 205.27 772.35 205.08 766.70 204.95 Z" />
<path fill="#fbfbfb" d=" M 630.06 231.92 C 648.20 219.87 666.31 207.78 684.30 195.52 C 692.40 200.36 702.41 198.63 711.25 197.39 C 696.20 209.27 680.29 220.08 663.98 230.15 C 654.14 236.51 640.27 238.45 630.06 231.92 Z" />
<path fill="#fbfbfb" d=" M 665.86 246.10 C 685.53 233.77 703.68 219.23 721.66 204.60 C 729.87 208.85 739.60 208.18 748.36 206.29 C 744.79 210.15 740.46 213.19 736.52 216.64 C 723.34 227.30 710.44 238.95 694.59 245.50 C 685.58 249.22 674.81 250.79 665.86 246.10 Z" />
<path fill="#fbfbfb" d=" M 710.85 252.29 C 727.11 239.19 743.34 226.04 758.92 212.13 C 766.86 215.47 775.63 214.33 783.87 213.00 C 774.76 221.49 765.46 229.80 756.35 238.31 C 748.31 245.96 738.16 251.52 727.19 253.48 C 721.76 254.25 715.99 254.52 710.85 252.29 Z" />
<path fill="#fbfbfb" d=" M 751.03 256.32 C 765.83 242.43 780.52 228.41 795.56 214.77 C 791.54 222.79 787.41 230.88 785.50 239.72 C 781.19 243.70 777.29 248.24 772.20 251.26 C 765.90 255.11 758.36 256.65 751.03 256.32 Z" />
<path fill="#fbfbfb" d=" M 907.90 238.00 C 905.61 235.19 909.04 230.35 912.47 231.51 C 915.72 233.05 918.11 235.86 920.73 238.27 C 923.00 240.76 926.02 243.29 926.00 246.98 C 926.41 252.19 922.73 256.47 918.73 259.30 C 919.42 255.65 919.94 251.54 917.89 248.21 C 915.30 244.14 910.93 241.68 907.90 238.00 Z" />
<path fill="#fbfbfb" d=" M 851.43 239.72 C 848.90 236.36 853.66 231.19 857.14 233.86 C 861.56 237.03 865.58 240.93 868.75 245.37 C 871.57 251.35 867.26 257.95 862.27 261.22 C 863.35 256.95 863.33 252.07 860.43 248.50 C 857.73 245.26 854.06 243.00 851.43 239.72 Z" />
<path fill="#fbfbfb" d=" M 872.73 239.45 C 871.21 237.19 872.96 234.42 874.99 233.21 C 878.79 232.47 881.37 235.89 884.01 238.00 C 887.16 241.09 891.74 244.09 891.42 249.08 C 891.62 253.98 888.15 257.97 884.50 260.76 C 884.99 257.54 885.50 254.09 884.02 251.04 C 881.76 245.91 876.05 243.70 872.73 239.45 Z" />
<path fill="#fbfbfb" d=" M 889.95 238.92 C 887.70 235.57 892.56 230.78 895.83 233.33 C 900.24 236.50 904.25 240.40 907.41 244.84 C 910.23 250.80 906.03 257.25 901.06 260.53 C 901.49 256.94 902.14 253.03 900.25 249.72 C 897.69 245.36 892.94 242.92 889.95 238.92 Z" />
<path fill="#fbfbfb" d=" M 833.43 240.64 C 832.14 237.85 834.22 234.55 837.22 234.31 C 840.91 235.20 843.33 238.49 846.08 240.89 C 848.40 243.55 851.85 246.04 851.85 249.92 C 852.18 255.12 848.67 259.64 844.51 262.34 C 844.97 259.22 845.78 255.83 844.40 252.82 C 842.31 247.53 836.66 245.06 833.43 240.64 Z" />
<path fill="#fbfbfb" d=" M 816.10 240.98 C 815.39 238.67 816.32 235.52 818.96 235.02 C 821.99 234.44 824.17 237.02 826.33 238.68 C 829.22 241.38 832.57 243.85 834.45 247.42 C 836.44 253.15 832.98 259.27 828.15 262.35 C 828.45 259.10 829.02 255.61 827.48 252.57 C 825.04 247.52 819.32 245.38 816.10 240.98 Z" />
<path fill="#0a0a0a" d=" M 295.56 295.76 C 318.72 292.91 342.84 297.95 362.76 310.15 C 382.43 322.05 397.87 340.91 405.14 362.76 C 411.35 381.17 411.06 401.22 406.90 420.03 C 402.33 440.76 391.27 460.22 374.93 473.90 C 360.90 485.80 343.29 493.12 325.13 495.67 C 307.00 498.17 288.16 496.77 270.93 490.40 C 252.03 483.53 235.35 470.57 224.24 453.78 C 211.12 434.33 205.48 410.37 206.65 387.08 C 207.79 364.00 218.11 341.72 234.40 325.42 C 250.60 308.93 272.63 298.44 295.56 295.76 Z" />
<path fill="#0a0a0a" d=" M 674.63 295.79 C 694.19 293.36 714.47 296.45 732.31 304.88 C 749.18 312.77 763.91 325.34 774.03 341.01 C 784.06 356.33 789.56 374.66 789.26 393.00 C 789.36 414.28 783.61 435.77 771.76 453.55 C 762.48 467.44 749.57 478.95 734.52 486.27 C 715.64 495.70 693.87 498.51 673.04 495.93 C 653.24 493.48 634.07 485.22 619.21 471.82 C 603.81 458.17 593.34 439.39 588.77 419.40 C 585.34 403.87 584.53 387.56 588.03 371.98 C 592.74 350.54 605.33 331.08 622.53 317.51 C 637.40 305.57 655.71 298.06 674.63 295.79 Z" />
<path fill="#0a0a0a" d=" M 980.10 300.40 C 1010.82 289.63 1046.64 294.96 1072.65 314.60 C 1076.87 317.70 1080.74 321.24 1084.50 324.89 C 1073.58 335.73 1062.87 346.79 1051.77 357.44 C 1041.55 346.80 1026.81 340.59 1012.05 340.99 C 999.60 341.04 987.33 345.82 977.87 353.85 C 963.96 365.41 956.37 384.18 958.66 402.15 C 960.31 417.16 968.55 431.28 980.74 440.17 C 992.41 448.83 1007.66 452.52 1021.99 449.99 C 1039.56 447.09 1055.08 434.95 1062.46 418.79 C 1045.31 418.77 1028.16 418.78 1011.01 418.79 C 1010.99 404.19 1011.01 389.60 1011.00 375.00 C 1045.08 375.00 1079.17 375.00 1113.25 375.00 C 1112.85 387.37 1114.33 399.83 1112.17 412.09 C 1108.79 433.22 1098.50 453.22 1083.09 468.08 C 1064.73 486.39 1038.95 496.90 1013.03 496.80 C 987.07 497.00 961.28 486.50 942.83 468.25 C 931.16 457.01 922.45 442.81 917.35 427.45 C 910.39 405.98 910.73 382.15 918.51 360.95 C 928.64 332.93 951.87 309.98 980.10 300.40 Z" />
<path fill="#0a0a0a" d=" M 12.53 494.26 C 12.45 428.42 12.46 362.58 12.53 296.75 C 27.70 296.77 42.86 296.73 58.03 296.76 C 71.17 316.77 84.24 336.82 97.42 356.79 C 110.60 336.78 123.68 316.71 136.93 296.75 C 152.03 296.76 167.13 296.74 182.24 296.76 C 182.25 362.59 182.26 428.42 182.24 494.25 C 166.83 494.25 151.41 494.25 136.00 494.25 C 135.93 455.42 136.14 416.59 135.90 377.76 C 123.11 397.89 110.19 417.94 97.46 438.11 C 84.47 418.14 71.88 397.92 58.98 377.90 C 58.52 416.67 58.91 455.46 58.78 494.24 C 43.36 494.27 27.95 494.22 12.53 494.26 Z" />
<path fill="#0a0a0a" d=" M 419.51 342.00 C 419.47 326.91 419.45 311.83 419.52 296.74 C 469.51 296.75 519.49 296.76 569.47 296.74 C 569.60 311.80 569.42 326.87 569.57 341.94 C 552.55 342.08 535.53 341.96 518.51 342.00 C 518.48 392.76 518.58 443.51 518.46 494.27 C 502.48 494.23 486.49 494.25 470.51 494.26 C 470.45 443.50 470.50 392.75 470.48 342.00 C 453.49 342.00 436.50 342.00 419.51 342.00 Z" />
<path fill="#0a0a0a" d=" M 1143.75 296.76 C 1159.76 296.75 1175.77 296.75 1191.78 296.76 C 1191.79 342.83 1191.75 388.91 1191.80 434.98 C 1191.53 442.13 1197.95 448.44 1205.08 448.19 C 1218.38 448.24 1231.70 448.24 1245.01 448.20 C 1251.79 448.50 1258.30 442.86 1258.47 435.98 C 1258.53 389.57 1258.43 343.16 1258.52 296.75 C 1274.61 296.77 1290.70 296.72 1306.79 296.77 C 1306.78 344.51 1306.77 392.25 1306.80 439.98 C 1307.21 455.87 1299.91 471.71 1287.66 481.81 C 1278.32 489.76 1266.14 494.11 1253.90 494.21 C 1239.92 494.30 1225.93 494.22 1211.94 494.25 C 1200.14 494.18 1187.79 495.19 1176.71 490.25 C 1157.77 482.70 1144.14 463.41 1143.74 442.98 C 1143.77 394.24 1143.74 345.50 1143.75 296.76 Z" />
<path fill="#0a0a0a" d=" M 1343.00 296.76 C 1390.00 296.74 1437.00 296.75 1484.00 296.76 C 1483.98 312.36 1484.03 327.98 1483.98 343.59 C 1456.81 378.34 1429.98 413.36 1402.92 448.20 C 1429.95 448.24 1456.97 448.22 1484.00 448.21 C 1484.00 463.56 1484.00 478.91 1484.00 494.25 C 1436.67 494.24 1389.33 494.25 1342.00 494.25 C 1342.00 478.46 1342.00 462.67 1342.00 446.88 C 1368.75 411.93 1395.51 376.98 1422.22 342.00 C 1395.81 342.00 1369.40 342.00 1343.00 342.00 C 1343.00 326.92 1343.00 311.84 1343.00 296.76 Z" />
<path fill="#0a0a0a" d=" M 1520.45 341.97 C 1520.55 326.89 1520.42 311.82 1520.52 296.75 C 1567.51 296.76 1614.51 296.74 1661.51 296.76 C 1661.46 312.22 1661.63 327.68 1661.43 343.13 C 1652.28 355.70 1642.42 367.79 1633.02 380.19 C 1615.54 402.87 1597.96 425.47 1580.55 448.20 C 1607.54 448.25 1634.52 448.18 1661.51 448.24 C 1661.49 463.58 1661.56 478.92 1661.48 494.26 C 1614.16 494.24 1566.84 494.24 1519.53 494.26 C 1519.41 479.51 1519.54 464.76 1519.46 450.01 C 1519.49 448.45 1519.26 446.68 1520.50 445.48 C 1546.89 411.00 1573.23 376.48 1599.67 342.02 C 1573.26 341.95 1546.86 342.05 1520.45 341.97 Z" />
<path fill="#0a0a0a" d=" M 1697.00 296.75 C 1712.75 296.76 1728.49 296.74 1744.24 296.76 C 1744.25 362.59 1744.25 428.42 1744.24 494.24 C 1728.49 494.26 1712.75 494.24 1697.00 494.25 C 1697.00 428.42 1697.00 362.58 1697.00 296.75 Z" />
<path fill="#fbfbfb" d=" M 298.50 340.82 C 311.38 338.37 325.04 341.03 336.23 347.82 C 350.71 356.48 361.44 371.88 362.88 388.88 C 363.76 402.43 360.22 416.27 352.73 427.62 C 345.74 438.08 335.27 446.37 323.10 449.86 C 310.18 453.76 295.73 452.36 283.85 445.92 C 268.70 438.04 258.20 422.67 254.85 406.09 C 252.63 395.56 252.89 384.24 257.21 374.25 C 264.30 357.18 280.38 344.30 298.50 340.82 Z" />
<path fill="#fbfbfb" d=" M 677.59 340.89 C 690.24 338.42 703.72 340.75 714.86 347.20 C 729.28 355.37 740.02 370.29 741.95 386.89 C 743.49 402.33 739.24 418.41 729.76 430.77 C 721.87 441.25 710.05 448.81 697.09 451.12 C 682.49 453.97 666.80 449.98 655.19 440.72 C 641.59 430.11 633.72 413.11 632.95 396.02 C 631.04 369.76 652.31 345.61 677.59 340.89 Z" />
</svg>
