<?xml version="1.0" encoding="utf-8"?>
<!-- Generator: Adobe Illustrator 14.0.0, SVG Export Plug-In . SVG Version: 6.00 Build 43363)  -->
<!DOCTYPE svg PUBLIC "-//W3C//DTD SVG 1.1//EN" "http://www.w3.org/Graphics/SVG/1.1/DTD/svg11.dtd">
<svg version="1.1" id="Livello_1" xmlns="http://www.w3.org/2000/svg" xmlns:xlink="http://www.w3.org/1999/xlink" x="0px" y="0px"
	 width="595.275px" height="403.711px" viewBox="0 0 595.275 403.711" enable-background="new 0 0 595.275 403.711"
	 xml:space="preserve">
<g>
	<g>
		<path d="M181.461,38.552c0,0,32.642-18.87,44.881-24.99l8.67,11.73c0,0,26.521-9.691,42.33-11.221l1.021-12.75
			c0,0,29.068-3.569,63.239,1.021l1.02,12.75c0,0,24.988,3.062,41.311,10.201l7.142-9.691c0,0,33.146,12.751,46.408,24.991
			l-33.148,58.649c0,0-42.331-29.581-88.739-30.09c0,0-55.59-1.529-99.45,29.581L181.461,38.552z"/>
		<path fill="#B48B2E" d="M217.162,93.123l-30.09-53.041c0,0,23.459-15.3,38.759-20.399l7.65,9.18c0,0,34.68-10.709,46.92-11.22
			l1.02-11.221c0,0,27.031-5.1,56.102-0.509l2.038,12.24c0,0,29.07,4.081,45.9,11.73l7.649-8.67c0,0,20.911,7.141,39.271,19.89
			l-30.093,53.041C402.291,94.143,317.122,31.413,217.162,93.123z"/>
		<path d="M166.498,167.513c4.754-10.674,10.667-20.719,17.576-29.979l20.916,9.207c5.92-7.296,12.587-13.963,19.881-19.884
			l-7.537-22.282c8.997-6.588,18.719-12.24,29.025-16.815l14.823,18.015c8.886-3.443,18.224-5.972,27.901-7.475l4.065-23.074
			c5.531-0.59,11.147-0.894,16.836-0.894c6.012,0,11.947,0.338,17.785,0.995l3.596,23.047c5.015,0.796,9.937,1.869,14.75,3.202
			l11.805-5.394v9.689l15.88-18.027c10.201,4.545,19.83,10.145,28.744,16.664l-8.161,21.772c1.557,1.245,3.084,2.524,4.584,3.835
			l31.374-61.475l43.352-17.851l-44.371,90.271l7.656-2.059c6.757,9.279,12.521,19.325,17.139,29.984L436.462,183.9l160.649,1.021
			l-130.686,33.123c0.366,4.381,0.555,8.814,0.555,13.291c0,5.698-0.547,12.606-1.139,18.149l-22.392,3.752
			c-1.557,9.787-4.166,19.224-7.703,28.191l17.638,13.913c-4.627,10.352-10.341,20.107-16.994,29.13l-21.604-7.285
			c-6.106,7.491-13.004,14.315-20.559,20.349l8.182,20.733c-9.177,6.694-19.106,12.417-29.638,17.021l-13.974-17.371
			c-8.585,3.328-17.593,5.803-26.918,7.323l-5.627,22.271c-5.351,0.55-10.775,0.829-16.269,0.829
			c-5.516,0-12.047-0.602-17.417-1.157l-3.426-21.776c-9.549-1.479-18.766-3.955-27.543-7.32l-15.63,16.653
			c-10.33-4.616-20.07-10.319-29.075-16.962l8.21-20.751c-5.87-4.741-11.333-9.966-16.333-15.61l-19.661,65.465l-38.249,16.83
			l26.54-88.244c-4.194-6.596-7.91-13.525-11.099-20.738l17.672-13.914c-3.66-9.412-6.214-17.971-7.688-28.271l-22.247-2.863
			c-0.7-6.018-1.061-12.139-1.061-18.346c0-3.776,0.133-7.523,0.395-11.235L0.412,182.372l182.07-0.509L166.498,167.513z"/>
		<g>
			<path fill="#184892" d="M328.991,124.94c-6.174-1.091-12.523-1.661-19.009-1.661c-35.958,0-67.831,17.481-87.586,44.409
				l7.516,15.194l30.601,13.77l46.411-71.91l7.139,80.069l19.379-12.24L328.991,124.94z"/>
			<path fill="#184892" d="M217.427,288.607c16.046,26.108,42.83,44.908,74.201,50.25l-3.576-46.323l-33.66-24.99l-7.142,11.729
				l-17.849-31.107L217.427,288.607z"/>
			<path fill="#184892" d="M295.197,339.405c4.833,0.657,9.769,0.998,14.786,0.998c59.957,0,108.563-48.604,108.563-108.563
				c0-1.197-0.021-2.391-0.061-3.579l-35.572,8.682l-39.779,83.131l-3.061-34.172l-20.91-17.34l5.609,57.631L295.197,339.405z"/>
			<path fill="#184892" d="M387.773,156.117c-8.015-8.231-17.326-15.195-27.603-20.563l3.361,47.838l9.181,0.51L387.773,156.117z"/>
		</g>
		<g>
			<polygon fill="#FFFFFF" points="185.032,382.292 159.022,394.021 221.752,178.293 248.272,225.721 303.352,138.513 
				319.162,322.111 295.702,333.333 286.012,207.361 247.251,269.072 228.891,236.943 			"/>
			<polygon fill="#FFFFFF" points="345.681,301.713 332.423,111.992 353.843,103.833 363.021,214.502 433.912,72.723 
				461.962,61.502 			"/>
		</g>
		<g>
			<polygon fill="#01ABDF" points="333.44,197.163 315.08,210.42 319.162,261.422 339.053,278.763 			"/>
			<polygon fill="#00ABDF" points="365.063,187.473 371.183,187.982 367.102,197.163 365.063,197.163 			"/>
			<polygon fill="#01ABDF" points="281.932,222.663 287.542,286.415 256.942,262.441 			"/>
			<polygon fill="#01ABDF" points="258.982,200.732 248.272,217.052 235.011,193.082 233.481,189.003 			"/>
			<polygon fill="#01ABDF" points="406.882,187.982 385.462,232.352 563.451,188.492 			"/>
			<polygon fill="#01ABDF" points="214.611,186.962 34.072,186.452 203.392,226.745 			"/>
		</g>
		<g>
			<path fill="#B48B2E" d="M216.329,294.99c20.296,30.044,54.669,49.798,93.654,49.798c62.378,0,112.948-50.568,112.948-112.945
				c0-1.543-0.03-3.075-0.093-4.603l38.295-8.146c0.322,4.039,0.486,8.121,0.486,12.242c0,5.162-0.247,8.533-0.751,13.561
				l-22.214,4.818c-1.554,11.295-4.888,23.639-9.15,33.813l17.047,13.795c-3.715,7.675-8.058,14.989-12.961,21.874l-20.992-7.703
				c-6.961,8.955-15.064,16.977-24.095,23.84l7.861,20.655c-7.131,4.951-14.709,9.31-22.66,12.996l-13.707-17.226
				c-10.446,4.363-21.584,7.398-33.209,8.898l-4.59,21.842c-4.028,0.32-8.102,0.484-12.213,0.484c-4.471,0-8.897-0.193-13.272-0.574
				l-3.551-21.752c-11.549-1.494-22.622-4.503-33.012-8.824l-14.928,16.664c-7.604-3.6-22.171-12.893-22.403-13.054l7.401-20.28
				c0,0-15.611-15.604-19.69-20.703L216.329,294.99z"/>
			<path fill="#B48B2E" d="M389.08,151.219c-8.473-8.315-18.25-15.305-28.995-20.633l-0.634-17.574l14.879-19.03
				c8.009,3.76,15.635,8.198,22.804,13.241l-8.392,21.321c3.084,2.356,6.062,4.847,8.916,7.463L389.08,151.219z"/>
			<path fill="#B48B2E" d="M327.811,120.293c-5.806-0.922-11.762-1.4-17.828-1.4c-44.707,0-83.352,25.977-101.655,63.664
				l-18.705,0.326l0.51-1.53l-16.907-15.605c3.551-7.386,7.68-14.439,12.332-21.102l21.616,7.803
				c6.859-8.869,14.844-16.827,23.736-23.66l-8.203-21.471c7.085-4.998,14.617-9.403,22.526-13.144l14.734,17.758
				c10.281-4.294,21.231-7.305,32.65-8.831l4.109-22.836c4.371-0.378,8.792-0.572,13.261-0.572c3.95,0,7.865,0.152,11.74,0.449
				l5.057,22.883c4.675,0.604,9.268,1.456,13.771,2.542l-12.21,4.385L327.811,120.293z"/>
			<path fill="#B48B2E" d="M158.912,244.547c-0.375-4.354-0.565-8.76-0.565-13.211c0-3.42,0.111-6.812,0.335-10.174l38.081,9.658
				v14.789l-8.312,32.182c-3.495-9.239-6.644-20.106-7.954-30.219L158.912,244.547z"/>
			<path fill="#B48B2E" d="M178.645,307.179c-2.086-3.607-4.028-7.308-5.818-11.093l12.643-11.793l1.529,2.039L178.645,307.179z"/>
			<path fill="#B48B2E" d="M410.451,181.353l1.021,2.549l17.852-0.51l18.691-14.924c-3.604-7.898-7.864-15.435-12.715-22.538
				l-9.036,2.272L410.451,181.353z"/>
		</g>
		<path fill="#184892" d="M192.683,41.612c0,0,9.689-9.18,32.129-17.339l7.649,10.201c0,0,14.791-9.182,52.021-12.751V8.973
			c0,0,27.03-3.57,49.469-0.51l0.513,12.75c0,0,30.6,3.062,53.039,13.261l7.649-9.691c0,0,14.791,4.59,32.642,16.83l-26.521,46.411
			c0,0-91.291-60.18-183.09,0L192.683,41.612z"/>
		<g>
			<polygon fill="#B48B2E" points="362.511,62.013 358.432,60.992 363.533,39.572 356.391,37.533 357.412,32.432 377.811,38.552 
				376.281,43.653 368.632,40.593 			"/>
			<polygon fill="#B48B2E" points="378.832,68.133 373.732,66.092 392.093,44.163 402.802,49.773 398.723,78.332 394.134,76.292 
				394.134,72.212 381.383,65.583 			"/>
			<polygon fill="#B48B2E" points="246.232,65.073 242.152,67.622 238.583,64.052 226.342,71.193 226.852,74.763 222.262,76.802 
				217.162,49.262 226.852,44.163 			"/>
			<path fill="#B48B2E" d="M285.501,27.842l5.102-0.509l1.019,19.38c0,0,1.021,3.06,3.061,3.06l7.649-0.511
				c0,0,1.53-0.508,1.53-4.079l-1.53-17.341l5.101-0.509l1.53,19.89c0,0,0,7.14-5.101,7.14l-10.199,1.019c0,0-6.631-1.021-7.14-6.12
				L285.501,27.842z"/>
			<path fill="#B48B2E" d="M264.081,49.773v-5.101l7.65-1.53l2.041,9.18c0,0,0,6.631-5.102,7.65l-9.18,1.021
				c0,0-4.59,0.51-6.63-4.08l-4.08-13.771c0,0-2.038-6.629,3.571-8.159l9.688-2.551c0,0,7.651-2.041,8.67,6.121l-5.101,2.041
				c0,0-1.529-3.569-4.079-3.06l-6.12,2.039c0,0-2.041,1.021-1.021,4.081l2.551,10.199c0,0,1.021,2.041,3.06,2.041l7.14-1.53
				c0,0,2.04-0.511,1.529-2.55l-1.019-2.55L264.081,49.773z"/>
			<path fill="#B48B2E" d="M326.302,45.692l-5.102-0.509c0,0,0.511,8.669,5.102,9.689l10.71,1.021c0,0,5.611,0,6.631-4.081
				c0,0-0.514-6.12-2.553-7.65l-11.729-9.18c0,0-2.041-2.04,1.53-2.04l7.14,0.509c0,0,2.041,0.002,2.041,2.551l5.102,0.51
				c0,0-0.51-6.63-6.12-7.65l-9.691-1.021c0,0-3.567-0.511-5.607,3.06c0,0-2.042,4.592,2.549,8.161l9.181,7.65
				c0,0,5.607,4.079,0,4.079l-6.121-0.509C329.361,50.282,326.813,49.773,326.302,45.692z"/>
		</g>
		<polygon fill="#184892" points="235.011,60.992 224.812,65.583 222.771,52.322 226.342,50.792 		"/>
		<polygon fill="#184892" points="395.152,66.092 385.462,60.992 394.134,50.792 397.193,52.833 		"/>
	</g>
</g>
</svg>
