<svg id="Layer_2" data-name="Layer 2" xmlns="http://www.w3.org/2000/svg" viewBox="0 0 791.94 483.76"><defs><style>.cls-1,.cls-2{fill:none;stroke-miterlimit:10;stroke-width:8px;}.cls-1{stroke:#1b8c38;}.cls-2{stroke:#f36;}</style></defs><title>cross</title><path class="cls-1" d="M365.23,554.67" transform="translate(-101.33 -250)"/><path class="cls-2" d="M109.29,386.4c-.1-.38,2.83-1.19,7.77-3.34,8-3.49,24.58-10.73,24.47-18.83,0,0,0-.89-5-10.08,0,0,7-1.38,11.08-2a96.78,96.78,0,0,1,15.12-1c46-.42,48.63-.64,59.45,0,0,0,8.56.5,36.27,3a81.57,81.57,0,0,1,14.11-2,39.74,39.74,0,0,1,13.1,2c7.59,2.22,13,2.14,50.38,6.05,49.95,5.23,43.87,5.76,55.42,6,9.64.24,22.89-.51,49.38-2,24.44-1.39,32.58-2.39,37.28-3,21.64-2.93,19-4.7,34.26-6,19.9-1.74,28.23.94,36.28-6.05,4.64-4,4.83-7.48,11.08-11.08,5.38-3.09,14.58-5.92,19.15-2,5,4.3.61,13.48,4,15.12C587,353.08,599.11,342.81,598,334c-.68-5.43-5.91-6.49-6-12.09-.14-5.91,5.63-7.08,6-13.1.46-6.72-6.08-14.58-13.1-16.13-5.82-1.28-8,2.68-14.1,1-4.86-1.32-9.89-5.52-10.08-10.08-.12-2.76,1.6-4.36,7-10.07,12.91-13.51,14.53-16.27,20.16-18.14,2.09-.7,8.31-2.77,11.08,0s-.92,8,2,12.09c2.61,3.67,9.26,4.77,14.1,3,7.06-2.55,7.85-10.24,12.1-10.08,1.7.06,4,1.39,8.06,10.08,4.75,10.22,4.63,15.09,7.05,22.16,1.28,3.74,7.25,11.95,19.15,28.22C671.8,335,672.13,335.15,673.58,338c6.14,12.21,9.07,27.2,9.07,27.2-8.09,7.18-8.19,7.58-8.06,8.07.7,2.73,13.66.85,32.24,0,16.75-.77,28.06-1.24,42.32,1a127.41,127.41,0,0,1,29.22,8.07,129,129,0,0,1,19.15,10.07c17.73,10.95,43.64,30.19,41.31,34.26-1.89,3.33-21.91-4.73-25.19-6-5.64-2.28-9.6-4.37-27.2-14.11-18.31-10.13-17.69-9.9-18.14-10.08-23.83-9.34-35.69,9.31-73.56,7.06-6.92-.42-17.69-1.7-19.15,2-.77,2,1.75,3.58,6,11.09a107.23,107.23,0,0,1,7,15.43c1.05,2.67,1.16,3.18,3.83,10.8,2.79,8,4.21,12,5.41,15.24,5,13.27,7.52,19.9,11,22,7.26,4.46,15.34-3,30.23-7.06,19.5-5.36,36.32-1.07,52.39,3a134.33,134.33,0,0,1,48.37,23.17,128.82,128.82,0,0,1,33.25,39.3,130.38,130.38,0,0,1,16.13,65.5,125.69,125.69,0,0,1-12.09,50.38,135.73,135.73,0,0,1-27.21,37.29c-8.94,8.76-27.4,26.4-57.44,34.26-27.22,7.12-49.5,2.43-60.46,0-12.21-2.72-37.48-8.67-60.46-30.23-21.55-20.22-29.25-43.06-33.25-55.42-3.41-10.55-9.92-31.46-6-58.45a118.25,118.25,0,0,1,15.12-43.33c3.85-6.37,8-13.23,15.63-20.52,12.33-11.77,21.29-12.76,22.66-20.79.33-1.92,0-3.08-8.75-20.29-9.59-18.83-8.9-16.81-11.27-21.94-5.86-12.73-5.32-14.78-8.19-16.22-10.53-5.26-31,15.78-33.26,18.14-12.4,12.77-9.05,17.89-22.17,30.23-10.91,10.27-19,12.13-19.14,19.15-.16,6.61,6.88,9.27,8.06,20.15.6,5.56-1.1,6.18-1,11.08.3,16.12,18.87,21.13,18.14,33.26-.47,7.81-8.78,15.56-15.41,15.41-3.53-.08-6.11-2.38-20.87-19.44-9.52-11-11.46-13.55-14.1-13.1-5.48.93-4.19,13-14.11,24.18-4.7,5.28-9.63,7.8-14.11,10.08C510.61,597.54,500,591,470,595c-24.67,3.27-35.66,10.12-43.33,3-4.27-4-4.1-9.09-12.09-17.13-1.06-1.06-6.24-6.28-12.09-9.07-15.8-7.52-41.77.17-50.38,16.13-5.12,9.47.59,13.14-3,34.26-2.52,14.73-7.43,25.34-11.08,33.25-4.67,10.11-10.66,23.07-23.18,36.28a111.89,111.89,0,0,1-43.33,28.21c-19.32,6.87-35.35,6.44-46.35,6.05-12.34-.45-34.85-1.52-59.45-15.12a114.26,114.26,0,0,1-59.45-87.66,123.5,123.5,0,0,1,7-58.45,123.2,123.2,0,0,1,58.44-68.52,126.44,126.44,0,0,1,33.57-12.73,119.74,119.74,0,0,1,81.31,11.72,116.59,116.59,0,0,1,35.27,28.22c8.91,10.74,9.89,16.24,14.1,16.12,8.54-.24,19.58-23.29,13.1-39.3-4-10-12.48-11.32-32.24-22.17-33.1-18.16-26.33-23.66-59.45-42.32-19.8-11.15-32.14-14.78-39.3-29.22-1.08-2.17-7.07-14.23-2-21.16.68-.93,3-3.76,17.13-6.05s21-.95,21.16-2c.46-2.43-33-19.76-68.52-12.1-12.71,2.75-12.76,5.91-38.29,13.1C128.86,383.61,109.55,387.36,109.29,386.4Z" transform="translate(-101.33 -250)"/></svg>