<svg id="Layer_2" data-name="Layer 2" xmlns="http://www.w3.org/2000/svg" viewBox="0 0 918.99 474.08"><defs><style>.cls-1{fill:none;stroke:#f36;stroke-miterlimit:10;stroke-width:8px;}</style></defs><title>cruiser</title><path class="cls-1" d="M126.87,479.79c1.8-2.29,4.44-4.72,12.08-8.37,19.16-9.14,25.83-4.94,34.64-12.51,7.39-6.34,4.26-10.88,11.93-16.9,7.27-5.71,14-5.3,27.84-7,16.07-1.93,31.79-6.07,47.72-8.95,17.26-3.12,24.69-4.46,31.81,0,2.9,1.82,3.05,2.91,10.93,10.94,8.6,8.74,10.83,9.9,16.9,15.9,14.34,14.18,12.44,18.16,21.88,25.85,2,1.68,12.53,10,26.84,11.93,17.92,2.47,33.28-6.14,50.7-15.9,19.77-11.09,25.42-19.38,37.78-17.9,7.65.92,11.4,4.81,18.88,3,7.8-1.9,8-7.15,16.9-13.91,15.79-11.95,29.45-6.3,34.8-16.9,2.53-5,.62-8.54,5-13.92,2.85-3.53,4.31-2.79,9.94-8,6-5.46,6.3-8.08,9.94-8.94,4.1-1,5.56,1.9,9.94,2,7.7.15,18.09-8.4,17.9-18.89-.1-5.66-3.3-12.54-9-14.91-6.65-2.8-11.18,3-26.84,3-7.33,0-9.73-1.26-10.94-3-1.93-2.77-1.52-7.78,1-10.94,6.23-7.84,20.56,1.65,31.81-7,5.23-4,4.42-7.81,9.94-9.94,6.31-2.43,9.32,1.79,16.9,0,7.25-1.71,13.74-7.76,13.92-12.92.07-2.1-.82-6-2.4-8-.12-.15-.25-.29-.25-.29a8.67,8.67,0,0,0-4.31-2.69c-3.28-.39-5,10.51-9,10.94-3.41.36-7.58-7.16-8.94-13.92-1.85-9.17.8-20.18,5-20.88,2.92-.49,3.66,4.58,10.93,9.94,8.41,6.2,13.18,3.67,16.9,9s-.29,9.22,4,15.91c2.21,3.46,3.6,2.88,9.94,8.94,4.11,3.93,3.78,4.41,9,9.94,7,7.52,10.54,11.28,14.91,12.93,7,2.65,9.09-.92,13.92,2,5.86,3.53,3.52,9.22,10.93,16.9,2.45,2.53,5.79,6,10.94,7,5.8,1.09,8.64-2,11.93,0,4.7,2.82,2.82,11.47,5,11.93,2.64.56,4.61-12.67,13.92-22.87,7-7.73,20.33-15.91,31.81-11.93,6.85,2.37,10.56,8.21,12.92,11.93,5.71,9,5.84,17.84,6,26.84a74.3,74.3,0,0,1-7,32.81c-3.05,6.42-6.34,13.11-11.93,13.92-6,.86-10.36-5.68-12.92-4-3.39,2.25,1.73,15.27,2,15.91,3.71,9.27,8.49,14.34,11.93,18.88,15,19.81,9.13,35.22,18.89,38.78,7,2.53,9.89-5.34,26.84-10,11.39-3.09,20.48-2.37,37.78-1a188.07,188.07,0,0,1,30.82,5,168.43,168.43,0,0,1,30.82,10.94c6.34,3,27.21,12.88,25.84,17.89-1,3.69-18.71-.75-19.88,3-.71,2.29,5.41,5.32,11.93,10.94,7.85,6.76,11.72,13.34,17.9,23.86,3.77,6.42,11.18,19.27,14.91,36.78,5.67,26.65-.54,48.44-3,56.67-3.38,11.35-13.4,38.91-40.76,60.64a126.66,126.66,0,0,1-51.7,23.86c-11.56,2.44-44.69,7.77-80.52-8.95-15-7-35.35-16.49-46.73-37.78-12.82-24-6.34-48.16-20.87-54.67-9.73-4.36-21.57,2.47-23.86-2-1.67-3.23,4.71-6.46,7.95-15.91,4.19-12.23-2.83-17.52,1-30.82,1-3.56,1.77-4,9-15.9,11.94-19.78,10.58-19.66,14.91-25.85,15.09-21.55,30.65-21.57,30.82-32.81.09-5.9-4.22-5.56-13.92-20.87-10.13-16-8.73-21.58-17.89-29.83-4-3.57-10.06-8.88-18.89-8.94-.61,0-11.24.08-17.89,7.95-5.82,6.87-4.4,14.74-5,27.83-.18,4.19-2.11,14.72-6,35.79-7.18,39.25-14.89,56-7,62.63,4.51,3.75,11.11,1.76,11.93,5,.93,3.63-7.34,6.63-15.91,17.9-4.75,6.25-7.35,9.67-7,13.92,1,10.38,18.71,13.64,17.89,19.88-.7,5.3-13.61,3.6-18.89,12.92-4,7.09.72,12.87-4,17.9-3.05,3.27-7.59,3.52-15.9,4-10.85.6-12.41-1.54-19.88-1-11.1.82-11.35,5.8-22.87,8-8.84,1.65-11.59-.74-26.84-2-7.48-.61-12.48-.49-26.84,0-39.81,1.38-57.16,2.44-77.55,3-63.11,1.67-55.77-4.28-75.55,0-11.93,2.57-26.41,7.29-39.76,0-7.49-4.09-12.11-10.59-17.9-9-4.53,1.28-5.28,6.27-10.93,14.91-4.22,6.45-8.09,10.23-14.92,16.9-15.42,15.08-34.57,21.23-42.74,23.86a129.93,129.93,0,0,1-44.74,6,113.3,113.3,0,0,1-32.81-5c-10.53-3.32-17.44-7.33-28.83-13.92-15.32-8.88-23-13.32-29.82-20.88s-10.45-16.22-17.9-33.8c-7.07-16.7-10.63-25.3-11.92-37.78a93.71,93.71,0,0,1,1-27.83c3.17-16.81,9.94-26.47,7-28.83-2.18-1.74-6.52,2.88-14.91,6-16.86,6.19-36.85,1.37-37.78-4-.54-3.08,5.61-4.31,14.91-12.93,12-11.09,20.14-26.08,16.9-29.82-1.87-2.17-5.84,1.41-10.93-1-6.62-3.12-10.57-14.17-7-21.87,2-4.36,5.94-6.42,8.94-7.95,12.42-6.34,20.36.18,26.85-5,4.89-3.89,4.91-11.21,5-25.85.06-17.42-3.5-25.9,0-27.83,2.92-1.62,9.14,2.21,11.93,6.95,4.07,6.94,2,17.9,2,17.9s6.45,7.86,10.94,7C123,489.11,122.89,484.83,126.87,479.79Z" transform="translate(-36.35 -286.87)"/></svg>