<svg id="Layer_2" data-name="Layer 2" xmlns="http://www.w3.org/2000/svg" viewBox="0 0 851.17 516.4"><defs><style>.cls-1{fill:none;stroke:#f36;stroke-miterlimit:10;stroke-width:8px;}</style></defs><title>dual-sport</title><path class="cls-1" d="M59,504c-2.53-3.16,24.51-35,36-58,1.35-2.7,4.73-9.78,2-13-2-2.33-6.79-2.22-7.44-2.2-4,.12-5.69,1.95-6.56,1.2-1.53-1.31.43-9.7,6-13,7.39-4.39,14.21,4.3,30,4,9.92-.19,20.64-3.87,21-8,.23-2.66-4-3.87-13-11-8.8-6.95-14.69-11.6-14-16,.82-5.22,10.64-8.22,17-9,11.85-1.46,14.3,4.43,27,5,13.38.6,14.84-5.76,30-6,6.67-.11,10.09,1.06,25,5,12,3.16,24,5.9,36,9,30.87,8,30.08,4.86,58,12,26.11,6.68,51,15,51,15a212.88,212.88,0,0,0,31,8c10.34,1.85,15.64,2.76,22,2,14.64-1.75,25.05-10.1,31-15,13.49-11.1,12.38-17.46,26-26,6.12-3.84,6-2.36,17-8,16.54-8.51,18.53-12.8,29-18,15.44-7.67,30.38-7.9,37-8,18.77-.29,27.28,5.32,40-1,.8-.4,10.74-5.44,10-10-.68-4.17-10-6.38-15-7-9.61-1.19-13.65,2.25-18-1a11,11,0,0,1-4-10c.62-4.35,4.14-6.91,7-9,4.76-3.46,6.9-2.76,14-6,6.45-2.94,10.47-4.77,13-9,2.91-4.86,3.55-12.38,0-16s-8.54-.31-13-3c-9.79-5.91-7.77-35.24,1-38,6.1-1.92,16.42,8.71,20,19,1,2.87,1.33,6.58,2,14,.22,2.48.61,7.49.85,21.49.18,10.78.08,15.32,1.15,15.51,2,.35,3-15.47,11-18,6-1.89,15.12,3.87,16,10,.91,6.3-7.37,9.73-6,15,1.27,4.9,8.73,3.09,15,9,8.09,7.62,2.34,16.9,11,29,2,2.82,7.69,10.75,15,10,6.48-.67,12.34-8,11-12-1.69-5.05-13.78-2.08-16-7-3-6.66,17.67-15.39,24-33,8.77-24.42-15.52-50.68-12-53s24.79,23.07,42,50c12.3,19.24,18.46,29.08,19,40,1,19.2-9.9,33.28-2,43,3.37,4.15,8.17,5.06,12,6,32.86,8.07,66.77,35.94,64,45-1.17,3.82-9,4.54-14,5-37.08,3.4-54.66-27.15-89-23-9.71,1.17-19.85,5-20,9-.12,3.2,6.26,5,6,9s-6.57,4.53-8,9c-1.37,4.28,2.93,8.37,7,14,12.32,17.07,9.89,31,17,32,3.12.46,4.17-2.14,11-6,7.33-4.15,13.54-5.36,22-7,22.86-4.44,59.53-1.86,60,4,.3,3.77-14.57,6.66-14,10,.47,2.75,10.71,1.66,22,4,15.47,3.21,25.52,11.32,40,23,7.82,6.31,18.13,14.76,28,29a114.12,114.12,0,0,1,18,39c6.81,28.13.4,51.27-3,63a116.94,116.94,0,0,1-46,66c-7.37,5.43-20,14.58-39,20-16.47,4.71-29.64,4.31-40,4a138.49,138.49,0,0,1-45-8c-9.34-3.38-23.32-8.6-37-21-7-6.31-11.19-12.08-17-20-7-9.5-13.87-18.91-19-32-8.2-20.91-9-43.79-9-44-3.67-2.52-8-6.45-9-12-.88-4.87,1.22-8.61,3-13,4.6-11.33,2.46-15.65,5-27a81.86,81.86,0,0,1,16-32c14.84-17.66,30.75-17.93,32-30,.39-3.77-1.11-4.28-6-16-9.7-23.27-8.53-32.67-14-34-6.2-1.51-15,8.82-19,18-3.62,8.31-3.42,16.88-3,34,.35,14.58,1.76,21-3,27-3.58,4.49-8.62,6.19-11,7-9.87,3.34-18.84.17-22-1-17.51-6.46-23.51-22.68-27-21-2,1-.75,6.51,2,23,4.44,26.68,4.32,30.76,4,34-.54,5.47-3.36,12.65-9,27-6.88,17.51-11.76,25.5-14,29-4.42,6.89-7,10.93-12,15-8,6.6-16.73,8.83-23,10-19,3.54-30.42-.09-56-2-14.92-1.12-31.89-1.44-61-2-11.51-.22-19.63-.28-30-4a142,142,0,0,1-26-13c-5.58-3.52-9.64-6.62-17-9-5.67-1.83-12.17-3.93-16-1-4.58,3.51-1.75,11.5-2,22-.3,12.64-4.88,21.4-12,35-4.27,8.17-12.95,24.32-31,38a106.22,106.22,0,0,1-38,18,125.67,125.67,0,0,1-72-2,119.7,119.7,0,0,1-48-31,116.09,116.09,0,0,1-24-38c-12-32.07-5.08-60.34-2-73,2.06-8.48,5-20,13-33a109.33,109.33,0,0,1,33-33c20.58-13.35,39.57-16.07,53-18,19.94-2.86,30.13-.18,34,1a85.55,85.55,0,0,1,16.46,7.3,111,111,0,0,1,17.76,12.64c29.61,24.41,33.3,25.31,36.78,25.06,8.71-.64,18.09-8.68,18-17-.12-10.79-16.14-19.22-24-16-4.62,1.89-4.74,7.12-9,8-5.31,1.1-10.13-6-15-11-9.2-9.45-15.24-7.93-54-22-11.05-4-6.41-2.63-26-10-29.35-11.05-43-15.37-53-28-6-7.54-6.41-12.7-6-16,.89-7.19,8-10.22,7-12-1.37-2.51-16.9-.28-28,10-8.6,8-7.83,14.54-14,25C86.19,497.71,61,506.48,59,504Z" transform="translate(-54.83 -239.77)"/></svg>