<svg id="Layer_2" data-name="Layer 2" xmlns="http://www.w3.org/2000/svg" viewBox="0 0 803.64 472.25"><defs><style>.cls-1{fill:none;stroke:#f36;stroke-miterlimit:10;stroke-width:8px;}</style></defs><title>enduro</title><path class="cls-1" d="M141.14,370.52c.22-2,34.5-3.5,123.76,7.47,59.17,7.27,69.24,11,111,13.87,23.06,1.57,52.61,3.49,89.62,1.06,16.61-1.08,131.87-8.64,136.57-40.54,2.64-17.95-31.45-32.07-25.61-50.14,3.75-11.58,21-15.7,26.67-17.07,2.52-.6,28-6.37,40.54,7.47,9.94,11,.65,22.09,10.67,36.27,9.82,13.88,22.11,8,32,21.34,12.06,16.23,1.26,34.94,11.74,42.67,8.32,6.15,21.1-1.26,32-4.26,53.39-14.72,124.59,58.62,120.56,65.08-.54.86-20.28-6.53-59.74-21.34-28.78-10.8-38-14.44-53.35-17.07-5.3-.91-49.36-8.2-54.41,4.27-2.07,5.11,4.19,9.22,12.8,23.47,18.34,30.35,11.37,47.24,24.54,54.41,11.08,6,18.18-4.74,43.74-6.4,23.62-1.54,41.87,6.07,55.48,11.73,13.87,5.78,38.41,16,57.61,41.61,24.22,32.3,23.74,67.46,23.48,76.82-1.32,46.62-28.31,77.13-37.34,86.42A132.87,132.87,0,0,1,795.14,745c-17.29,3.49-55,7.47-91.75-14.94-47.35-28.87-56.88-79.27-58.68-90.68-1.52-9.63-5.76-37.56,6.4-66.15,4.81-11.29,10.22-24,22.41-36.27,8.15-8.21,13.54-10.37,16-18.14,2.07-6.53.77-13-8.53-33.08-12.66-27.35-19-41-25.61-40.54-4.1.31-4.83,4.81-17.07,24.54-6.93,11.17-11.5,18.55-18.14,26.67C608.78,510.36,605,509.75,596.7,521c-4.25,5.74-7.11,11.08-14.93,30.94-15.39,39.09-12.18,38.36-17.08,45.88-14.22,21.83-41.05,27.56-61.88,32-14.17,3-54.34,11.6-69.34-7.47-6.65-8.45-2.52-14.9-9.61-21.34-13.54-12.32-47.93-6.32-61.88,12.8-8.4,11.53-3,19.07-10.66,42.68A130.55,130.55,0,0,1,331,694.86c-29.77,39.74-74.19,49.2-79,50.14A126.87,126.87,0,0,1,203,745c-9-1.79-53.32-10.64-80-52.28-24.5-38.21-17.4-78-14.94-91.75,2.14-12,7.52-39.9,30.94-65.08a119.39,119.39,0,0,1,50.15-32c39.15-12.7,72.43-.63,85.35,4.27,10.33,3.92,57.66,21.88,60.81,50.14.49,4.38-.09,8.89,3.2,11.74,6.22,5.38,17.72-2.5,45.88-11.74,20.59-6.75,28.63-7.2,28.81-10.67.27-5.24-17.91-8.53-42.68-18.13-13-5-18.06-8-51.21-25.61C220,451.22,204.06,445.56,197.68,424.93c-4.11-13.3-.82-21.66-9.6-33.07C172.1,371.1,140.93,372.43,141.14,370.52Z" transform="translate(-101.19 -279.47)"/></svg>