<svg fill="#FF3366" xmlns="http://www.w3.org/2000/svg" data-name="Layer 1" viewBox="0 0 100 100" x="0px" y="0px"><title>nounproject2</title><path d="M24.82,73.44A14.85,14.85,0,1,1,39.68,58.58,14.87,14.87,0,0,1,24.82,73.44Zm0-23.67a8.82,8.82,0,1,0,8.82,8.82A8.83,8.83,0,0,0,24.82,49.76Z"></path><path d="M75.18,73A14.85,14.85,0,1,1,90,58.14,14.87,14.87,0,0,1,75.18,73Zm0-23.67A8.82,8.82,0,1,0,84,58.14,8.83,8.83,0,0,0,75.18,49.32Z"></path><polygon points="73.73 59.72 63.37 23.84 52.67 21.22 53.38 18.29 65.79 21.32 76.63 58.89 73.73 59.72"></polygon><line x1="67.75" y1="33.58" x2="31.6" y2="33.41"></line><rect x="48.17" y="15.42" width="3.02" height="36.15" transform="translate(15.95 83.01) rotate(-89.73)"></rect><rect x="23.92" y="56.63" width="23.26" height="3.02"></rect><rect x="35.52" y="23.36" width="3.02" height="36.39" transform="translate(-15.63 23.54) rotate(-29.41)"></rect><polygon points="47.18 59.65 44.98 57.6 66.61 32.59 68.89 34.56 47.18 59.65"></polygon><rect x="24.25" y="24.57" width="12.78" height="3.68" rx="1.58" ry="1.58" transform="translate(61.28 52.81) rotate(-180)"></rect><polygon points="26.72 57.67 23.91 56.63 31 32.98 33.89 33.84 26.72 57.67"></polygon></svg>