<svg id="Layer_2" data-name="Layer 2" xmlns="http://www.w3.org/2000/svg" viewBox="0 0 749.96 392.01"><defs><style>.cls-1{fill:none;stroke:#f36;stroke-miterlimit:10;stroke-width:8px;}</style></defs><title>naked</title><path class="cls-1" d="M189.23,373.74c4.67-6.55,19.32,2.65,55,7.33,40.11,5.26,51.87-2.39,72.09,9.77,11.71,7.05,10,11,25.66,20.78,16.88,10.57,32.07,14.29,44,17.1,26.16,6.18,44.05,10.4,58.65,1.23,10.56-6.64,10.16-14.49,19.55-28.11,20.11-29.16,53.42-38.87,58.65-40.32,40.24-11.15,83,5,106.3,28.1,6.25,6.19,14.38,16.13,14.67,15.89.61-.52-40.2-42.84-33-52.54,4.12-5.55,24-.52,55,7.33,13.05,3.3,22.71,6.4,30.55,1.22,8.48-5.6,6.6-15.45,12.22-17.11,9.59-2.83,24.87,22.94,37.88,45.21,26.59,45.54,22.47,54.56,20.77,57.43-6.24,10.53-24.07,12.91-28.1,13.44-15.7,2.09-22.8-4.17-26.89,0-5.49,5.6-.67,19.68,3.56,27.09,1.63,2.87,6.43,11,16,15.68,14.13,6.88,24.66-1.84,44-1.22a120.64,120.64,0,0,1,44,11c31.17,14.84,46.16,41.76,51.32,51.32,5.5,10.2,22.77,42.23,13.44,81.87a105.91,105.91,0,0,1-24.44,46.43c-24.84,27.48-56.17,32.87-64.76,34.22-38,6-66.7-9.59-75.76-14.67-11-6.19-33.35-19.11-46.43-46.43-16.6-34.69-6.35-67.94-2.44-80.64,5.5-17.88,12.8-41.59,33-51.32,7.91-3.81,14.59-3.94,17.11-9.78,5-11.63-11.88-33.53-22-31.77-4.69.82-4.06,6.06-12.22,12.22-9.92,7.5-16.33,3.87-20.77,9.78-6.47,8.6,3.46,21.24-2.44,26.88-5,4.8-13.59-3-20.77,1.22-8,4.73-4.31,18.46-7.34,44-2,16.45-5.53,28.08-8.55,37.88-7.52,24.43-12.13,39.36-23.22,42.76-9.33,2.87-13.74-5.37-33-7.33-12.25-1.25-21.1,1-28.1,2.45-14.7,3-63.87,13.13-107.53,1.22-29.63-8.09-41-22-56.2-14.67-8.62,4.19-9.4,10.83-20.78,26.89-5.47,7.72-20.25,28.58-39.1,40.32-30.35,18.9-66.38,11.11-78.2,8.55-9-1.94-33.43-7.55-56.21-28.1-7.38-6.66-38.87-36.81-39.1-84.31-.18-39.06,20.88-65.68,28.11-74.54,6.11-7.49,17.46-21.25,36.65-30.55,30.81-14.91,61.44-8.5,90.42-2.44,18.2,3.81,43.5,12.72,94.09,30.55,22.43,7.9,34,12.3,35.44,9.77,2.44-4.36-27.16-26.31-51.32-41.54-6.91-4.35-30-18.64-90.42-45.21-43-18.89-60.52-24.52-79.43-45.21C198.4,401.48,183.78,381.39,189.23,373.74Z" transform="translate(-141.24 -340.2)"/></svg>