<svg id="Layer_2" data-name="Layer 2" xmlns="http://www.w3.org/2000/svg" viewBox="0 0 787.44 391.47"><defs><style>.cls-1{fill:none;stroke:#f36;stroke-miterlimit:10;stroke-width:8px;}</style></defs><title>proto</title><path class="cls-1" d="M230.78,399.31c.31-2.17,6-3.38,17.43-5.81,6.06-1.29,12.37-1.44,25-1.74,10.46-.25,14.28.09,17.44,2.9,2.48,2.21,1.47,4.76,4.06,7,3.47,3,8.35,2,12.21,1.74,6.09-.4,8.13,1.08,22.66,5.23,32.74,9.35,49.11,14,62.19,11,6.9-1.57,11.61-4.44,28.47-18.59,54.45-45.69,69.26-69.39,98.22-70.91,2.3-.12.22.14,19.18,2.33,50.52,5.84,75.78,8.76,96.47,7.55,23.3-1.35,39.27-5.43,50,4.65,3.35,3.15,6.52,8,13.37,9.88,9.73,2.66,14.27-4.16,22.08-2.32,11.18,2.64,18.09,20.44,19.18,33.71,1.19,14.52-5.05,18.09-4.07,35.45.15,2.74.54,6.72,5.23,23.24C754,494.41,762,498.55,765.44,499.85c3.92,1.46,4.36.13,16.27.58a143.07,143.07,0,0,1,32.55,4.65,93,93,0,0,1,57,41.85,112,112,0,0,1,16.28,42.42,105.19,105.19,0,0,1-2.91,49.4,107.62,107.62,0,0,1-32,48.24,111.05,111.05,0,0,1-115.07,18c-8-3.38-37.09-16.14-54-48.82a107.41,107.41,0,0,1-11-58.69c.95-9.59,2.71-27.28,14.53-44.17,12.86-18.38,28.7-23,27.89-35.45-.41-6.23-4.49-6.42-11-16.86-14.27-22.71-7.66-42.05-18-45.91-5.22-1.94-11.82,1.15-15.11,4.65-4.5,4.8-1.83,9.38-5.23,20.34-1.87,6-4.79,15.47-12.2,19.18-8.84,4.43-18.3-2.15-20.34,1.16-1.66,2.7,4.52,7.18,9.88,17.44,1.65,3.17,7.91,15.14,7,29.06-.8,11.88-6,12.05-5.81,24.41.07,5.61,1.17,8.35,1.16,18,0,4-.19,6.77-.58,12.21-1,14-1.49,21-2.9,23.24-3.14,5.05-9.26,6.83-27.9,8.72-22.28,2.26-33.47,2.93-43,2.32-43.35-2.74-86.78-4.24-130.18-6.39-4.91-.24-17.16-.82-26.15-9.3-1.83-1.73-8.31-7.83-9.3-16.85-.77-7.11,2.56-9.69.58-12.79-2.52-4-9.55-2.25-29.63-.58-18.8,1.57-22.43.89-26.16,4.65-5,5-1.63,9.37-6.39,20.34-2.83,6.54-5.44,8.27-16.27,20.92-15.28,17.84-12.54,17.24-18,22.09-9.36,8.28-18.56,11.1-35.45,16.27-11.93,3.65-23.25,7.12-38.94,7.56a126,126,0,0,1-43.58-7,128.36,128.36,0,0,1-49.4-30.8c-5.83-6-18.57-19.35-26.15-40.68-12.19-34.31-2.51-64.63.58-73.23,12.6-35.1,39-52.47,48.82-58.69a126.05,126.05,0,0,1,58.11-19.18,124.48,124.48,0,0,1,53.47,7.55c11.06,4.31,33.69,13.11,48.23,34.87s9.1,38.49,23.83,46.49c5.86,3.19,14.45,2.17,31.38,0,34.32-4.39,39-10.41,63.35-11.62,18.38-.91,20.47,2.28,31.38-1.16,17.21-5.42,34.67-20.49,32.55-32-2-10.7-20.45-15.39-32.55-18.6-48.79-12.95-95.24-33.9-144.12-46.49C265,414.35,230,405,230.78,399.31Z" transform="translate(-105.72 -326.13)"/></svg>