<svg id="Layer_2" data-name="Layer 2" xmlns="http://www.w3.org/2000/svg" viewBox="0 0 845.36 526.59"><defs><style>.cls-1{fill:none;stroke:#f36;stroke-miterlimit:10;stroke-width:8px;}</style></defs><title>roadster</title><path class="cls-1" d="M168.43,357.13c1.67-2.41,7.35-1.6,18.7,0,6,.84,14.11.9,31.55,7,25,8.73,28,1.47,60.77,9.35,25.95,6.24,29.94,11.4,31.56,14,6.57,10.67.05,22,8.18,29.22,4,3.55,7.4,2.39,19.86,4.67,14.21,2.6,15.21,5.1,28.05,8.18,19,4.55,19.8-.16,42.07,3.51,19.37,3.19,26.25,8,32.72,3.5,5.25-3.63,2.32-9.25,7-19.86,3.4-7.71,9.32-13,21-23.38A236.45,236.45,0,0,1,500.33,370c9.3-6,21.05-13.44,37.39-18.7a78.14,78.14,0,0,1,15.19-3.5c10-1.21,17.63,0,24.54,1.16,0,0,22.62,3.8,42.68,16.09,2,1.24,3.94,2.52,4.07,2.61a121.24,121.24,0,0,1,18,14.78c16.78,16.71,24.35,32.37,28.79,30.8,3.3-1.17,4.69-11.8,1.16-21-9.38-24.58-50.26-30.31-49.08-34.75.52-1.95,8.23-.13,20.88-4.84,4.38-1.64,6.57-2.45,8.57-4.1,10.87-9,9.93-33.48-1.12-44.74-1.63-1.67-4.77-4.87-9.69-6-6.7-1.49-9.73,2.48-13,.75-6.39-3.35-6.09-23.94,4.48-34.3,1.71-1.67,4.68-4.59,8.57-4.47,5.27.15,7.5,5.73,13.8,13,11.92,13.85,21.06,13.73,21.62,21.26.37,5-3.58,5.8-8.2,14.53-8.31,15.71-6.89,34.45-2.24,36.17,2,.74,3.5-2.12,8.2-1.87.59,0,4.94.33,7.83,3.36,4.23,4.44.64,9.84,4.1,14.17,3.23,4,8,1.42,13.42,4.1,11.86,5.85,11.71,29.59,12.68,29.45.72-.1-3.32-12.5,2.61-20.88,4.61-6.52,13.27-7.79,16-8.2s10.81-1.59,16.78,3c4.22,3.24,4.47,7.07,7.08,12.31,4.37,8.77,10.21,11.17,18.64,18.26,16.15,13.6,23.87,29.33,29.26,40.35,7.47,15.24,7,21.58,6.49,24.51-1.18,7.37-5.19,12.41-10.81,19.46-6.14,7.71-11.36,14.26-20.19,17.3-10.34,3.57-15.6-1.14-19.46,2.89-6.46,6.74.56,28,9.37,29.55,4.68.84,6.16-4.52,15.14-6.48,6.8-1.49,10.14.66,18.74,1.44,10.36.93,15.81-1.27,23.07-2.16,25.84-3.2,52.07,12.81,51.18,16.58-.64,2.75-16.16.38-16.58,2.88-.37,2.26,12.36,3.91,26,12.25,12.64,7.76,19.85,17.5,24.51,23.79,9.69,13.1,13.82,25,16.58,33.16,3.29,9.76,9.12,27.6,7.2,51.19a121.56,121.56,0,0,1-10.09,38.92,126.86,126.86,0,0,1-59.83,62,124.06,124.06,0,0,1-56.23,12.25c-10.41-.19-34.11-.94-58.39-15.86-20.77-12.76-31.26-29.3-39.65-42.53-6.37-10-14.68-23.43-18.74-43.25-2.24-10.93-5.56-27.14,0-45.42C698.4,608.74,715.43,594,711,588.73c-2.25-2.69-7.64-.06-9.37-2.88-2.39-3.89,4.85-13.87,13-20.91,14.91-12.92,28.72-12.4,31.72-23.06.55-2,.37-4,0-7.93-1.7-17.66-9.66-42.31-19.47-42.54-4.37-.1-6.07,4.72-12.25,4.33-5.51-.34-7.42-4.37-9.37-3.61-6.35,2.47,8.66,46.73,0,51.19-4.47,2.3-11-8.18-16.58-5.77-7.58,3.26-1.43,24.89-13,45.42-2.26,4-4.53,6.8-7.93,7.93-7.49,2.48-12.5-5.71-18.74-3.61-4.32,1.46-6.55,9.16-10.82,24.51-2.41,8.67-3.6,13.07-2.88,15.86,2.43,9.46,12.57,8.74,21.63,19.46,10.53,12.48,9.61,28.59,9.37,31.72-.31,3.89-1.52,19.48-13,27.4-4.17,2.88-8.35,3.81-23.07,4.32-21.18.74-38.17-.31-45.41-.72-8.35-.48,4.53.36-36-1.44-52.78-2.34-52.14-2.76-66.33-2.89-22.3-.19-33.45-.29-48.29.73a253.1,253.1,0,0,1-42.54,0c-12.77-1.15-17.43-2.68-21.62-5-11.39-6.43-14.2-16.18-19.47-15.14-3.77.75-4.05,6.1-9.37,17.3a123.3,123.3,0,0,1-15.14,23.79c-5.39,6.5-10.8,10.82-21.62,19.46-9.58,7.66-14.37,11.48-20.91,15.14-5.81,3.26-17.12,9.46-32.44,11.54-9.83,1.33-9.51-.63-28.11,0s-18.07,2.58-25.95,1.44c-7-1-15-5-31-13-9.69-4.83-14.53-7.25-18.74-10.09A112,112,0,0,1,123.5,729.3a116.16,116.16,0,0,1-18.74-33.16c-4.87-13.74-5.5-24.36-6.49-41.09s-1.49-25,1.44-35.32c1.61-5.66,5.64-13.38,13.7-28.83,5.79-11.11,8.76-16.77,12.25-21.63a109.28,109.28,0,0,1,20.91-21.63c19-14.87,38.1-19.5,50.46-22.34,11.1-2.56,26.56-6,46.13-2.89a112.84,112.84,0,0,1,25.23,7.21C291.78,539,305.28,552,306.6,550.53c1.76-2-22.52-25-19.46-28.84,2-2.51,13.74,5.24,17.3,1.44,3-3.23-3.29-11.23-.72-13.69,3.56-3.43,20.08,7.91,29.55,14.41A149,149,0,0,1,347,534c14.29,12.12,16.49,19.55,24.51,20.18,5.5.43,11.93-2.47,13-6.49.83-3.22-1.75-7.38-18-20.18-9.86-7.76-14.79-11.64-23.79-17.3-12.15-7.65-10.28-8.69-41.81-36.05-27.77-24.1-47.73-39.36-54.78-44.69-7.26-5.49-10.93-8.27-16.58-12.26-24.23-17.1-29.91-17.73-41.09-28.11S164.69,362.51,168.43,357.13Z" transform="translate(-93.5 -255.75)"/></svg>