<svg id="Layer_2" data-name="Layer 2" xmlns="http://www.w3.org/2000/svg" viewBox="0 0 619 415.97"><defs><style>.cls-1{fill:none;stroke:#f36;stroke-miterlimit:10;stroke-width:8px;}</style></defs><title>scooter</title><path class="cls-1" d="M216.79,458.49c1.88-.68,5.73-1.73,18.75,0,3.17.43,5.15.77,5.57,0,.85-1.52-6.22-5.24-5.57-7.09,1-2.82,18.77.94,23.82,2,9.08,1.95,17.62,3.54,28.37,7.6,6.13,2.31,5.74,2.65,9.12,3.54,9.54,2.53,13,0,23.82,2,7.68,1.46,6.74,2.92,11.65,3,7.31.18,9.14-3.05,18.75-4.05a38.68,38.68,0,0,1,12.67.5,37.93,37.93,0,0,1,14.19,6.59c11.77,8.71,11,18.3,21.28,21.79a45.14,45.14,0,0,0,7.6,1.52,89.15,89.15,0,0,0,14.69,1c14.9,0,14.54,1.07,32.43,1,3.64,0,3.63-.06,22.3-.51,14.38-.35,21.57-.51,21.79-.51,20.38.85,46.58,10.22,48.64,23.31.74,4.67-1.81,8.41,1,12.16,1.77,2.36,4.46,3.12,11.65,4.56,10.34,2.08,15.51,3.12,17.23,3,14.31-.62,30.39-15.29,29.89-28.37-.26-6.94-4.9-6-11.65-21.28-2.69-6.08-4.16-13.17-7.09-27.37-.89-4.29-1.56-8,0-12.16s4.14-5.39,3.54-7.09c-1.19-3.4-11.68.93-18.75-4.56-5-3.85-2.69-8.21-8.1-12.67-6.25-5.14-13.71-3-14.19-5.57-.44-2.36,5.5-6.13,11.15-7.6,6.18-1.62,8,.56,12.16-1.52,5.05-2.52,3.71-6.36,8.61-9.12,3.55-2,4,.14,16.22-1,4.12-.39,6.6-.87,9.62.51A14.59,14.59,0,0,1,613,406.3c2.27,2.78,1.91,4.31,3.55,6.59,2,2.75,4,2.67,8.61,5.07,8.28,4.32,10.2,9.05,12.67,8.1,2-.76,2.33-4.5,2.53-9.12.55-12.46,1.85-18.77-.5-26.35a44.74,44.74,0,0,0-4.06-9.12c-12.68-22.28-31-23.87-35.47-40.53-2.52-9.31.28-19.52,3.55-20.27,2.34-.54,4.39,3.9,11.15,12.16,1.75,2.14,7.08,7.51,17.73,18.24,17.87,18,16.13,15.55,18.75,18.75,5.88,7.16,9,12.64,17.23,19.25,3.71,3,3.71,2.27,7.09,5.07,10,8.3,8.76,12.89,15.71,17.23,7.25,4.52,11.09,1.06,16.22,6.08,3.89,3.81,1.92,6,6.08,12.67s6.69,5.48,14.69,14.69c4.19,4.82,3.69,5.36,8.11,10.14,3.68,4,5.5,5.2,10.13,9.62a141.92,141.92,0,0,1,10.65,11.15c10.53,12.72,13.63,25.25,15.2,31.93,1.5,6.4,1.15,8.51.5,10.13-2.29,5.77-8.27,5.28-12.16,12.16-2.52,4.47-.75,6-3.54,9.63-2.24,2.89-4.4,3.22-11.15,6.59-8.51,4.24-12.76,6.36-12.67,8.61s4.36,3.59,14.19,6.59c23,7,23.36,6.72,27.36,8.61,8.78,4.16,12.86,8.26,20.27,15.71,1.8,1.81,4.22,4.39,3.55,5.57-1.35,2.38-13.84-3.21-14.7-1.52S794.89,596,803.06,607c5.36,7.17,7.05,14,9.12,22.3a90.15,90.15,0,0,1,1.52,36.48,76.77,76.77,0,0,1-9.12,26.35,72.91,72.91,0,0,1-21.79,23.81,72.13,72.13,0,0,1-25.33,10.65c-8.49,1.94-15.07,2-21.79,2-10.36.07-17.84.11-26.86-2.53-4.61-1.35-19.9-5.83-30.4-19.26-10-12.81-8.32-24.33-16.22-26.35-4.41-1.12-6.39,2.1-14.69,5.58-14.15,5.93-17.42.36-40.54,4-14.31,2.29-22.39,5.91-27.87,1-2.49-2.23-2.06-4.08-4.56-6.59-6.06-6.09-16.88-3.56-25.33-2.54-30.82,3.73-37.58-11.77-57.77-3.54-8.66,3.53-11.15,7.9-19.76,8.11-8.12.19-10.76-3.59-21.79-4.06-3.58-.15-8.18.57-17.23,2-17,2.72-16.95,3.85-25.33,4.56a91.11,91.11,0,0,1-23.82-.51c-8.23-1.34-14-3.59-21.28-1-2.21.78-4.3,2.27-7.1,4.05a83.36,83.36,0,0,0-10.13,7.6c-5.86,5.26-8,9.41-10.64,12.67-7.1,8.73-17.89,11-30.91,13.68a83.46,83.46,0,0,1-34.46,0,80.69,80.69,0,0,1-19.76-7.09,85.22,85.22,0,0,1-24.83-19.76c-4.54-5.24-14-16.4-18.24-33.95a67.18,67.18,0,0,1-1-29.9c1.43-7,4.5-13.27,10.64-25.84,5.29-10.85,7.94-16.27,11.15-19.76,10.88-11.88,22.79-11,23.3-16.73.61-6.76-15.81-7.8-22.8-21.28-7.6-14.67.1-36.16,8.11-38,2.27-.52,3,.91,13.68,3,3.78.75,6.76,1.18,9.12,1.52,7.41,1.07,12.17,1.35,13.68,1.52,11.36,1.3,14.33,16.55,31.42,32.94,8.9,8.53,9.27,5.53,27.87,20.77,14,11.46,13.23,12.72,20.27,17.23a74.79,74.79,0,0,0,17.79,8.45c9.48,3,22,4.89,22.74,2.7.68-2-8.56-6.62-26.85-16.22-26-13.61-37.07-16.74-44.09-29.39-3.7-6.67-1.05-6.59-4.56-13.17-9.86-18.52-28.49-14.78-58.27-33.44-9-5.66-13.92-10.15-23.81-12.17-4.86-1-8-.78-10.64-3.54-4.65-4.81-.23-10.59-4.56-19.26-3.32-6.63-8.69-8.8-7.61-12.16C212.34,460.12,214.59,459.3,216.79,458.49Z" transform="translate(-199.89 -316.62)"/></svg>