<svg id="Layer_2" data-name="Layer 2" xmlns="http://www.w3.org/2000/svg" viewBox="0 0 814.32 471.57"><defs><style>.cls-1{fill:none;stroke:#f36;stroke-miterlimit:10;stroke-width:8px;}</style></defs><title>sport</title><path class="cls-1" d="M156.8,326.26c24.88-.1,52.28,10.31,80,13.18,20.57,2.13,25.92-1.48,34.09,4.82,10.63,8.21,8.68,19.84,20.66,30.47,8.81,7.82,18.76,9.43,26.34,10.85,56.56,10.61,71.51,34.66,91.93,24.27,7.13-3.62,3.83-5.54,18.08-20.14,7.76-7.94,25.71-26,53.2-36.67,22.15-8.61,41-8.78,52.68-8.78a170.7,170.7,0,0,1,65.08,12.91c30.54,13.07,53.5,34.56,59.4,28.93,1.91-1.83.54-5.07,4.13-11.88a34.52,34.52,0,0,1,7.23-9.3c9-8.35,21.44-10.58,31.51-12.4,6-1.07,8.64-1.08,8.78-2.06.61-4.28-48.74-8.84-50.1-22.21-.47-4.6,5.54-8.75,17.56-17.05,13.31-9.18,25.73-17.76,39.26-15,6.45,1.33,10.6,4.71,15.49,8.78,23,19.2,34.55,28.79,41.84,36.16,19.59,19.8,18.24,14.48,59.4,52.68,17.17,15.94,24.68,23.63,28.4,36.67.47,1.64,7.19,26.32-5.16,37.71-6.69,6.16-12.92,2.86-27.38,6.2-26.18,6-46.84,26.36-44.42,32,1,2.39,5.53.69,19.63,2.07a135.85,135.85,0,0,1,35.12,8.26c8.17,3,21.85,8.75,21.18,11.36-.73,2.87-18.16-.1-18.59,2.07-.38,1.89,13,3.07,25.31,11.36,11.15,7.53,16.9,19,28.4,41.84,6.36,12.64,9.54,19,11.37,27.37,2.7,12.43,1.64,21.94,0,36.68-1.6,14.32-2.85,25.54-8.78,39.25-5.45,12.59-12.09,20.9-18.08,28.41-7.72,9.67-13.79,17.27-24.28,24.27-11,7.35-21.1,10.21-36.15,14.46-10.76,3-16.13,4.57-23.76,5.17-18.35,1.45-32.62-3.61-43.9-7.75-9.52-3.48-22.86-8.37-36.68-20.14-15.43-13.15-22.79-27.51-27.89-37.71-13.21-26.42-11.54-50.72-14.46-50.61-4.23.15.74,50.07-19.53,58.56-3.57,1.49-6.42,1.08-11.71.52-20.54-2.16-41.31-.81-61.94-1.82-17.92-.88-13.41.29-51.26,0-57.93-.45-51.25-3-73.39-1.82-40.05,2.22-66.11,11-73.12-.52-3.08-5.06.35-9.39-4.42-18-5.23-9.37-16.22-16.54-21.6-13.79-3.13,1.59-2.73,5.7-4.69,12.75-2.32,8.36-6.14,13.73-13.79,24.46-18.23,25.6-43.72,39.29-43.72,39.29a127.44,127.44,0,0,1-132.45-7.28,135.46,135.46,0,0,1-47.36-57c-14.74-33.28-11.69-62.7-10.93-69,5.83-48.52,38.08-77.4,48.14-86.14s29.92-25.53,60.63-30.7c26.61-4.48,47.91,2,56.21,4.68,28.69,9.14,51.81,28.35,54.91,31,0,0,6.08,5.13,6.24,4.94s-39.15-30.64-35.91-35.91c2-3.31,20.92,3.28,34.35,10.15,17.71,9,21,16,33.83,16.91,7.64.52,9.9-1.72,21.08-.78,10.64.9,12.34,3.24,20.3,4.17,15.37,1.78,34.53-4,36.17-12.75,1.17-6.22-6.69-12.84-9.37-15.1A38.63,38.63,0,0,0,413,491.62c-14.21-3.1-8.06-5.39-74.69-32.79-17.95-7.38-26.46-10.53-38-18.74-6.51-4.63-7.88-6.54-18-14.31-4.54-3.5-11.6-8.78-32-22.12C225,387.1,212.37,378.82,203,374c-11.69-6-22.7-13.48-34.87-18.47-4.12-1.7-13.42-5.34-19.51-14.32-1.35-2-5.08-7.47-3.13-11.18C147.36,326.5,153.4,326.28,156.8,326.26Z" transform="translate(-98.58 -291.69)"/></svg>