<svg id="Layer_2" data-name="Layer 2" xmlns="http://www.w3.org/2000/svg" viewBox="0 0 822.84 542.14"><defs><style>.cls-1{fill:none;stroke:#f36;stroke-miterlimit:10;stroke-width:8px;}</style></defs><title>sport-touring</title><path class="cls-1" d="M336.29,487c-9.89-17.07-31.13-25.62-48.39-32.57-11.24-4.53-20.33-7.71-26-16.75-3.17-5-1.58-8.26-4.65-13-5.88-9.1-17.79-10.34-26.06-12.09-10.47-2.22-25.9-12.34-56.76-32.57-28-18.36-34-25.9-32.57-29.78,1.68-4.37,12.53-3,14-8.37,1.33-4.93-6.77-10.49-5.58-12.1,1.58-2.14,15.77,8.12,19.54,4.66,3.31-3.05-3.77-14.58-1.86-15.82,1.62-1.06,7.57,7.49,14,13,8.3,7.21,18.15,10,41.87,12.1,39.19,3.41,49.25-9.13,64.2.93,6.22,4.19,5,6.62,20.47,20.47,2.59,2.33,9.62,8.53,19.54,15.82,16.52,12.14,24.77,18.21,32.57,20.47,10.77,3.13,8.82-1.23,48.39-2.79,6.41-.25,11.24-.33,15.81-3.72,7.18-5.32,5-12.32,10.24-24.19,4.06-9.21,11.7-16.37,27-30.71,6.09-5.71,10.62-10,17.68-14.89,4.82-3.36,14.1-9.84,26.06-14,20.79-7.16,50-7.29,55.83,4.66,1.87,3.82-.32,5.45,1.86,9.3,5.58,9.84,27.76,12.92,42.8,4.65,8.73-4.8,11.68-11.57,16.75-10.23,5.94,1.57,5.29,11.77,12.09,14,5.37,1.72,13.33-2.19,14-6.52,1.08-7.39-18.64-20.13-38.15-21.4-8-.52-11,1.23-23.26,0-10-1-20.67-2.08-22.33-7.44-1.53-4.94,5.14-11.65,10.23-14.89,2.53-1.61,5.76-3.06,25.13-4.65,16.34-1.34,19.16-.73,21.4,0,5.94,1.92,9.46,5.17,15.82,11.16,5,4.72,8.21,8.55,20.47,24.2,10.21,13,12,15.49,16.75,18.61a39.37,39.37,0,0,0,17.68,6.51c4.63.44,17.14.71,18.61-3.72,2.37-7.21-28.26-15.19-29.78-33.5C680.59,291,690.82,286,688,273.94c-2-8.54-7.73-8.59-9.3-16.74-2.2-11.37,8.25-14.84,9.3-27.92,1.42-17.63-16.25-27.42-11.16-36.29,2.45-4.27,9.08-6.4,13-4.65s5,7.41,5.59,10.23c2.62,12.66,7.95,21.78,18.61,40,7.16,12.25,9.71,8.86,25.12,27,15.21,17.88,28.86,40.18,25.12,43.73-3,2.87-16.08-7.62-17.68-5.58-1.1,1.41,4.16,7.61,15.82,19.54,22.42,22.95,23.46,21,28.85,28.85,10.37,15.1,4.76,19.74,15.82,37.22,10.66,16.85,21.6,21.56,19.54,26.05-2.47,5.37-21.67,6.29-36.29-.93-6.4-3.16-10.09-7-14.89-5.58-4.61,1.33-4.63,5.83-10.24,13.95-2.68,3.89-11,16-24.19,20.47-7.45,2.55-12.49,1.32-14,4.66s2.29,7.52,5.59,12.09c14.7,20.39,11.73,36.39,20.47,38.15,3.85.78,4.8-4.77,13-6.51,2.83-.6,3-.06,9.65-.25,7.85-.21,9.65-1,17.28-1.4a115.88,115.88,0,0,1,13.08,0c9.24.57,15.79,2.42,25.22,5.14,10.83,3.12,20.68,6,20.54,9.34-.1,2.49-5.78,3.35-5.6,5.6s5.88,2.64,12.14,5.6c4.43,2.1,7.16,4.67,12.61,9.81a122.48,122.48,0,0,1,17.74,21,109.27,109.27,0,0,1,15.42,32.22c4.7,16.75,3.84,30.36,3.26,38.29A110.82,110.82,0,0,1,872,693.17a99.65,99.65,0,0,1-24.28,17.28c-13.93,6.94-25.91,8.54-36,9.8-11.32,1.42-27.85,3.5-48.56-1.86a114.08,114.08,0,0,1-71.45-56,109.61,109.61,0,0,1-11.21-31.29C679,622.48,676.05,607,681,590c7.54-25.82,27.92-37.07,23.35-45.77-2.43-4.61-11.47-2.15-12.15-5.14-1.19-5.28,26.51-10.62,35-29.88,1-2.26,3.36-7.81,1.87-14-1.12-4.62-3.59-6.4-7-11.21-8.25-11.61-6.32-18.79-9.81-19.61-6.93-1.64-19.18,25.74-29.88,50-8.39,19-12.59,28.49-15.88,39.7-5.66,19.28-8.64,39.39-13.08,46.7a11,11,0,0,0-1.86,6.07c.08,3.14,1.76,4.16,2.8,7.47.88,2.83.45,5.66-.47,11.21-1,6.19-1.53,9.28-2.8,11.2-2.91,4.41-7.93,4.47-18.21,6.54-19.79,4-19.24,7.35-30.36,7.47-8.7.1-9.2-2-19.61-1.86-9,.09-11.93,1.67-20.08,2.8-26.38,3.65-34.1-7.49-48.57,0-4.69,2.43-8,5.72-14,5.6-6.48-.13-9.52-4.07-14-2.33-4.11,1.58-3.74,5.74-7.47,8.87-5.45,4.59-13.73,2-21.95.47-8.81-1.63-19.57-1.09-41.09,0-21.19,1.06-27.62,3.83-34.56-1.41-1.36-1-8.58-6.48-9.34-14.47-.32-3.39.79-4.4,0-7-1.32-4.38-5.94-6.42-15.87-10.27-20.49-7.95-22.63-7.74-24.29-6.54-2.75,2-1.77,5-4.2,15a116.47,116.47,0,0,1-5.6,16.34c-4.21,9.8-9.83,15.84-19.15,25.68-7.1,7.5-12.45,13.15-21,19.15a115.07,115.07,0,0,1-39.7,17.28,125,125,0,0,1-38.76,2.33,113.4,113.4,0,0,1-78-38.76,126.14,126.14,0,0,1-19.15-29.42c-3.6-7.28-8-16.22-10.74-29a106.15,106.15,0,0,1,0-43.9c3.27-15.46,9.17-26.18,13.07-33.15a117.54,117.54,0,0,1,64.92-55.57,110.67,110.67,0,0,1,37.82-7c25.25-.06,43.92,9.17,44.36,7.94.59-1.61-33.32-12.93-32.22-17.74.74-3.24,17.31-3.6,32.22,0,9,2.16,8.08,3.52,36,14.47,12.13,4.77,18.19,7.15,19.15,7.47,10.43,3.58,14.2,4.07,19.61,7.94,7.18,5.15,9.17,10.47,10.74,9.81C343.43,512.39,343,498.65,336.29,487Z" transform="translate(-89.13 -183.73)"/></svg>