<svg id="Layer_2" data-name="Layer 2" xmlns="http://www.w3.org/2000/svg" viewBox="0 0 789.82 541.24"><defs><style>.cls-1{fill:none;stroke:#f36;stroke-miterlimit:10;stroke-width:8px;}</style></defs><title>supermoto</title><path class="cls-1" d="M156,359c7.05-9.27,30.64,2.44,72,10,24,4.39,21.43,1.42,62,6,59.37,6.71,66.49,13.25,109,17,16.72,1.48,46.25,3.94,83,0,65.67-7,114.53-30.21,119-21,2,4.12-6.3,11.8-5,13,3.11,2.88,28.13-6.74,32-26a27.1,27.1,0,0,0-.62-12.95c-1.25-3.95-4.43-10.6-22.21-21.57-16.86-10.4-26-11.85-26-16.5,0-4.85,10.05-4.94,15.22-12.05,12.51-17.17-15.57-58.52-15.86-58.37s24.86,51.31,27.92,50.12c3.59-1.39-18.28-76.79-20.94-76.13s9.89,76.71,31.72,78.67c6.55.59,11.22-5.73,31.09-8.88,12.35-2,15.21-.25,16.5,1.27,4.73,5.58-5,16.47,0,23.47,3.52,5,9.84,1.5,17.13,6.35,7.93,5.27,5.8,12.94,12,25.37,8,15.94,16.12,12.51,24.74,28.55,1.42,2.63,11.74,22.38,3.81,34.26-4.26,6.39-11.82,7.56-11.42,8.88.67,2.19,20-4.85,41.87-4.44,16.8.32,28.63,4.93,47,12.06,20.67,8,53.2,23.71,51.39,29.18-1.43,4.33-24.29,2-43.14-4.44-11.27-3.84-10.71-5.59-20.94-9.52-25.42-9.74-45.34-5.22-76.76,1.91-3.85.87-8.57,2.07-10.15,5.71-2.71,6.23,7.16,11.83,15.22,28.55,7.42,15.39,4.1,21.13,12.06,27.91,6.1,5.21,10.41,3.83,15.22,10.15,5.46,7.16,2.94,12.88,7.62,15.86,4.86,3.11,10.38-1.28,20.3-3.17,8.79-1.67,15.8,0,29.82,3.17,8.68,2,22.82,5.39,38.7,15.23A112.74,112.74,0,0,1,871,565.84a111.48,111.48,0,0,1,18.4,84.38c-4.17,20.84-13.66,34.78-19,42.5a125.43,125.43,0,0,1-23.48,25.38c-6.39,5.23-17.82,14.39-35.53,20.3a101.29,101.29,0,0,1-40,5.08c-17.78-1.61-30.3-8-39.33-12.69a125,125,0,0,1-33-24.74,123.55,123.55,0,0,1-27.92-48.86c-3-10.06-7.62-26.17-4.44-46.94,1.31-8.54,3.65-23.88,14.59-38.07,15.7-20.35,36.91-22.56,36.8-34.89,0-4.33-2.66-5.53-7.61-12.69-16.93-24.49-10.43-45.3-20.94-49.49-8.42-3.36-19.95,7.08-24.74,11.42-22.36,20.24-21.07,48.57-32.36,49.49-7.68.62-13.81-12-17.13-10.15-3.86,2.21,6.18,18.46-.63,26.64-4.38,5.25-15,6.34-21.57,5.71-5.25-.5-7.76-2.08-9.52-.63-3.31,2.72,3.38,10.32,3.81,20.3.71,16.91-17.28,18.89-28.55,47-2.67,6.64-3.77,11.78-8.89,14.59-6,3.3-11.59.15-22.84-1.27-14.65-1.84-14,2.39-28.55,1.27-20.39-1.57-28-10.4-38.06-5.08-5.72,3-4.44,6.51-10.15,8.89-8.92,3.71-16.63-2.85-30.46-6.35-16.37-4.15-26.08,3.43-29.18-1.27s8.88-14.18,6.34-17.76c-1.82-2.58-8.65,1.06-22.2,3.81-18.5,3.75-26.44,1.14-29.18,6.34s4.36,10,1.9,19.67c-1.27,5-3.66,5.59-7.61,12.69-4.23,7.58-5.14,13.41-6.35,17.76-5,18-20.93,31.13-28.55,37.43-12.63,10.46-24.45,15.12-33,18.4a119.74,119.74,0,0,1-43.78,8.88,116.15,116.15,0,0,1-38.7-6.34,125.2,125.2,0,0,1-67.88-59,113,113,0,0,1-12.06-57.74,118.33,118.33,0,0,1,14-47.58,117.78,117.78,0,0,1,88.82-61.54,118.44,118.44,0,0,1,53.3,5.07,115.31,115.31,0,0,1,37.43,20.94c17,14.59,14.71,22.2,26.64,29.82,24,15.34,63.09,3.71,64.08-5.71.57-5.4-11.88-5.41-34.26-21.57-27.45-19.83-34.82-38.68-52.66-38.07-4.21.15-9.89,1.41-15.86-1.9s-7.14-8.31-11.42-14c-6-8-12.58-9.77-22.84-15.22-12.43-6.61-29.56-15.71-40.6-32.36-3.59-5.42-12.56-18.94-12.69-36.8-.06-8.91,2.12-12.31-.63-15.86-7.51-9.67-31.53,5.57-43.14-5.07C154.21,374.82,152,364.21,156,359Z" transform="translate(-105.47 -206.55)"/></svg>