<svg id="Layer_2" data-name="Layer 2" xmlns="http://www.w3.org/2000/svg" viewBox="0 0 889.54 556.96"><defs><style>.cls-1{fill:none;stroke:#f36;stroke-miterlimit:10;stroke-width:8px;}</style></defs><title>touring</title><path class="cls-1" d="M63.59,389.42c1-3.89,27.61-1.18,57.27,4.64,22.28,4.37,30.63,7.42,75.07,17.8,28,6.53,31.11,6.84,34.83,7,26.19.9,34.85-8.51,54.18-2.32,6.76,2.16,18.29,5.85,25.54,16.25,4.87,7,5.41,13.56,13.15,20.12,2.77,2.35,6.57,4.78,13.16,7,17.22,5.7,34.26,3.34,42.57,2.32,50.26-6.19,55.87,2.73,70.42-7.74,10-7.16,5.42-10,22.45-30.19,9.9-11.76,22.51-26.45,43.34-37.14,7.13-3.66,20.53-10.38,38.7-11.61,10.54-.72,9.45,1.31,38.69,4.64,5.52.63,18.9,1.71,45.66,3.87,20.16,1.63,21.18,1.65,23.22,1.55,10.33-.5,29.16-1.42,44.12-14.71,10.14-9,21.25-26.15,16.25-37.92-3.08-7.27-9.7-6.35-13.16-14.7-4.33-10.47,4.2-16.35,1.55-27.09-2.29-9.3-9.76-9.31-27.86-25.54-10.82-9.7-23.71-21.26-20.9-30.18,1.45-4.59,6.52-6.85,8.52-7.74,2.25-1,9.13-3.57,24,2.32a85.58,85.58,0,0,1,32.5,23.22c39.46,46.37,57.7,44.29,92.1,96,36.29,54.52,58.87,109.44,50.31,115.32-3.92,2.69-14.74-4.76-16.26-2.32-1.63,2.63,11.23,11,9.29,16.25-2.18,5.88-21,2.18-22.44,7-1.29,4.44,14.42,9.5,13.93,16.25-.7,9.52-33,13.54-32.51,19.35.27,2.9,8.46,3.49,8.52,6.19.08,4.31-20.76,5.85-20.9,10.06-.12,3.56,14.61,7.71,27.86,8.51,10.56.64,17.55-1,21.67-1.55,33.11-4.23,69.8,37.42,67.33,41-1.63,2.4-21.54-10.44-24-7-2,2.91,11.79,12.17,22.45,31a102,102,0,0,1,12.38,39.47c3,26.37-4.52,46.61-7.74,54.95s-9.53,24.15-24.77,39.47C885,762.3,863.81,768.57,855.33,771a125.16,125.16,0,0,1-49.54,3.09c-12.23-1.63-33.08-4.68-53.4-20.12-17.54-13.33-25.57-29-30.95-39.47-7.22-14.06-18.59-36.21-13.16-59.59,1.25-5.38,3.44-11.07,2.32-11.61-1.79-.87-13.29,10.64-15.48,24.76-3.52,22.72,19.08,39.1,12.38,49.54-2.72,4.25-8.64,4.91-14.7,5.41-27.32,2.28-41,3.41-62.69,0-11.12-1.74-43.53-.9-108.35.78-16.87.43-28.46.91-45.66-.78-19.47-1.9-21.71-4.18-47.21-7.74-26.16-3.64-39.24-5.47-55.72-4.64-25.2,1.26-38.3,7.08-42.57.77-5.19-7.65,8.35-24.7,7-25.54s-11.9,14.26-23.21,30.19c-16.09,22.65-17.36,24.29-20.13,27.09-14.27,14.4-30.05,20.54-37.14,23.21-19.82,7.48-36.39,7.26-49.54,7-15.76-.36-34.9-.79-56.49-11.61-24.42-12.24-37.38-30.44-42.57-37.92-7-10.12-17.28-24.91-19.35-45.66-2.42-24.39,8.65-35.05.78-46.44-9-13-28.42-6.09-33.28-17-5.8-13,19.31-28.47,15.47-49.53-1.84-10.16-12-9.81-14.7-20.9-2.13-8.76,1.79-15.34,8.51-29.4C80.12,485.07,87.23,470.21,86,459.85c-2.07-18-16.63-26.29-11.61-36.38,3.77-7.58,14-6.92,14.7-12.38C90.35,401.94,62.51,393.5,63.59,389.42Z" transform="translate(-51.75 -222.24)"/></svg>