<svg id="Layer_3" data-name="Layer 3" xmlns="http://www.w3.org/2000/svg" viewBox="0 0 859.84 514.24"><defs><style>.cls-1{fill:none;stroke:#f36;stroke-miterlimit:10;stroke-width:8px;}</style></defs><title>trial</title><path class="cls-1" d="M156,282.67c.8-1.22,13.85,7.53,40.07,17.6,1.05.41,5.49,2.13,11.52,4.24,9.68,3.39,17.72,5.74,28.9,9.24,39.32,12.3,66.27,20.74,97,35.93,16.26,8,25.63,12.67,37.73,21.56,7,5.13,18.82,15.17,42.22,35,11.74,10,17.34,14.78,27,17.06,3.75.89,9.85,1.81,27.85-1.79,17-3.41,33.32-6.67,52.1-17.07,9-5,16.48-11.11,31.44-23.36,21.47-17.57,24.93-23.71,40.43-32.34a200.4,200.4,0,0,1,26-11.67c24.37-9.44,32.14-8.52,35-15.28,4-9.44-9.3-15.52-8.08-35,.5-8.08,3-11.14,1.79-19.76a42.33,42.33,0,0,0-7.18-18c-8.56-11.88-18.38-11.32-21.56-21.56-1.21-3.88-1.47-9.34.89-10.78,2.66-1.62,6.83,2.9,18.87,9.88,6.86,4,10.72,6.22,16.17,8.09,12.38,4.25,16.14.84,21.56,5.39,3.13,2.62,2.37,4.18,8.08,17.07,5.63,12.68,6.68,11.87,8.09,17.06,3,11-1.57,15.28-.9,26,.59,9.45,4.44,11.61,13.47,28.75,7.76,14.72,6,15.1,18,42.22,11.29,25.49,10.88,20.51,15.27,32.34,6.37,17.15,9.36,25.79,13.48,27.85,7.11,3.56,12.42-7,31-11.47,12.75-3.08,23.56-1.29,35.5.69,12.69,2.1,21.67,5.56,30.54,9a234.2,234.2,0,0,1,35.94,18c13,7.86,22.06,13.33,31.44,22.46,18.81,18.28,26.26,38.91,30.54,51.2,3.58,10.26,10.58,31,8.09,58.39-1.85,20.2-8,34.76-11.68,43.12a158.42,158.42,0,0,1-35,50.3c-8,7.73-24.51,23.38-51.2,33.24-32.43,12-60.41,8.23-73.66,6.29-14.69-2.15-44.82-7-73.66-30.54a142.86,142.86,0,0,1-41.33-57.5c-7.65-19.7-8.9-36.44-9.88-49.4-.93-12.41-2.09-29.58,2.7-51.21,3.27-14.78,7.3-32.74,20.66-49.4,20.27-25.28,38.06-19.32,43.12-36.83,3.24-11.23-4.13-25.76-18.87-54.8a27.09,27.09,0,0,0-9-10.78c-5.75-3.88-14.42-6-21.56-3.59-9,3.08-10.63,11.79-22.46,35.93-10.79,22-10.91,17.73-16.17,30.54-3.45,8.42-10.25,25.36-11.68,47.61-.8,12.51,1,12.41,0,27.85-.25,3.88-2.41,35.34-9,35.93-4.4.4-7.69-13.32-11.68-12.57-2.78.52-2.62,7.49-5.39,15.27,0,0-3.74,10.52-16.17,21.56-8.1,7.19-19.08,11.05-53.89,12.57-41.25,1.81-37.81-3.08-67.38-.9-27,2-44.07,7.13-52.1-2.69-5.53-6.76-3.91-17.08-5.39-17.07-1.7,0-2.16,13.75-4.49,28.75-1.58,10.18-4.52,28.31-13.48,47.61a134.62,134.62,0,0,1-23.35,35c-12.15,12.83-23.73,19.45-36.83,26.95-12,6.85-23.84,13.64-41.33,18-17,4.21-30.58,3.91-41.32,3.59-13.17-.39-28.91-.85-47.61-8.08-15.3-5.92-25.38-13.66-33.24-19.77a146.37,146.37,0,0,1-36.83-40.42,155.52,155.52,0,0,1-18-45.81c-2.46-11-6.4-29.49-2.7-53,2.87-18.23,9-31.22,13.48-40.42,5.36-11.1,12.06-25,26.05-38.63,13.26-13,26.53-19.33,38.63-25.15A158.73,158.73,0,0,1,214,439.51a165.86,165.86,0,0,1,84.44,1.8c13.54,3.95,25.54,7.46,37.73,17.07,7.37,5.81,12.69,12.55,23.35,26.05,13.15,16.64,13.42,20.2,20.66,24.25,15.58,8.7,32.21,2.22,33.24,1.8,8.33-3.4,17.53-10.85,16.17-15.27s-12-1-23.35-7.19c-9.32-5-8-10.55-19.77-26s-16.25-14.22-32.34-34.14c-10.8-13.37-7.73-12.68-13.47-18-8.48-7.81-15.11-9.27-43.12-23.36-10.46-5.26-13.87-7.24-16.17-11.68-5.27-10.16-.74-25.53,5.39-26.94,3.29-.76,5.18,2.94,11.68,7.18,12.57,8.22,28,9.1,28.74,7.19,1-2.84-28.63-17.42-55.69-26.95-6.37-2.24-13.83-4.49-28.75-9-34.13-10.28-35.52-9.49-44.91-13.48C172,301.86,155,284.16,156,282.67Z" transform="translate(-98.93 -212.4)"/></svg>