<svg id="Layer_1" data-name="Layer 1" xmlns="http://www.w3.org/2000/svg" viewBox="0 0 720 720"><defs><style>.cls-1{fill:#f36;}.cls-2{fill:#f6f7f8;}</style></defs><title>main-logo</title><path class="cls-1" d="M212.44,523.39h0a10,10,0,0,0,8.67-15h0a10,10,0,1,0-8.67,15Z"/><path class="cls-1" d="M172.14,517.7a10,10,0,1,0-2.57-.34A9.7,9.7,0,0,0,172.14,517.7Z"/><path class="cls-1" d="M135.31,512.24a10,10,0,1,0-8.66-5A10,10,0,0,0,135.31,512.24Z"/><path class="cls-1" d="M98.14,486.64a10,10,0,0,0-8.71,15,10,10,0,0,0,17.4-10l0,0A10,10,0,0,0,98.14,486.64Z"/><path class="cls-1" d="M60.16,481.09a10,10,0,0,0,0,20h0a10,10,0,1,0,0-20Z"/><path class="cls-1" d="M419,574.49h0a10,10,0,1,0-10-10,10,10,0,0,0,10,10h0Z"/><path class="cls-1" d="M394,606.55a10,10,0,1,0-10-10A10,10,0,0,0,394,606.55Z"/><path class="cls-1" d="M370.81,635.71h0a10,10,0,1,0-10-10,10,10,0,0,0,10,10h0Z"/><path class="cls-1" d="M347.4,645.09a10,10,0,0,0,0,20h0a10,10,0,0,0,0-20Z"/><path class="cls-1" d="M323.62,675.2a10,10,0,1,0,10,10A10,10,0,0,0,323.62,675.2Z"/><path class="cls-1" d="M575.29,416.09a10,10,0,0,0-3.67-13.66h0a10,10,0,1,0-5,18.66h0A10.08,10.08,0,0,0,575.29,416.09Z"/><path class="cls-1" d="M590.51,453.85a10,10,0,1,0-8.67,5A10,10,0,0,0,590.51,453.85Z"/><path class="cls-1" d="M604.18,488.48a10,10,0,1,0-6.1,4.67A10,10,0,0,0,604.18,488.48Z"/><path class="cls-1" d="M617.94,523.45a10,10,0,1,0-8.67,5A10,10,0,0,0,617.94,523.45Z"/><path class="cls-1" d="M633.12,551.53a10,10,0,1,0-1,7.57A10,10,0,0,0,633.12,551.53Z"/><path class="cls-1" d="M301,145.51a10,10,0,1,0,10,10A10,10,0,0,0,301,145.51Z"/><path class="cls-1" d="M326,113.45a10,10,0,1,0,10,10,10,10,0,0,0-10-10Z"/><path class="cls-1" d="M349.17,84.28a10,10,0,1,0,10,10A10,10,0,0,0,349.17,84.28Z"/><path class="cls-1" d="M372.58,74.9a10,10,0,1,0-10-10A10,10,0,0,0,372.58,74.9Z"/><path class="cls-1" d="M396.38,44.79a10,10,0,1,0-10-10A10,10,0,0,0,396.38,44.79Z"/><path class="cls-1" d="M144.71,303.89a10,10,0,0,0,8.67,15h0a10,10,0,1,0-8.67-15Z"/><path class="cls-1" d="M129.49,266.15a10,10,0,1,0,13.67-3.67A10,10,0,0,0,129.49,266.15Z"/><path class="cls-1" d="M115.81,231.51a10,10,0,0,0,3.64,13.67h0a10.2,10.2,0,0,0,5,1.34h0a10,10,0,1,0-8.66-15Z"/><path class="cls-1" d="M102.06,196.54a10,10,0,0,0,3.64,13.67h0a10,10,0,1,0-3.66-13.68Z"/><path class="cls-1" d="M86.88,168.48a10,10,0,0,0,9.66,7.41h0a10,10,0,0,0,10-10,9.59,9.59,0,0,0-.34-2.61,10,10,0,0,0-19.33,5.19Z"/><path class="cls-1" d="M507.55,196.61a10,10,0,1,0,8.66,5A10,10,0,0,0,507.55,196.61Z"/><path class="cls-1" d="M547.86,222.3a10,10,0,1,0-8.66-5A10.09,10.09,0,0,0,547.86,222.3Z"/><path class="cls-1" d="M584.7,227.78h0a10,10,0,0,0,8.71-15,10,10,0,1,0-8.71,15Z"/><path class="cls-1" d="M621.86,233.35a10,10,0,1,0-8.66-5,10,10,0,0,0,8.66,5Z"/><path class="cls-1" d="M659.84,238.9h0a10,10,0,1,0-8.71-5,10,10,0,0,0,8.71,5Z"/><path class="cls-2" d="M360,0C161.5,0,0,161.49,0,360S161.5,720,360,720,720,558.5,720,360,558.51,0,360,0ZM538.75,360a8.39,8.39,0,1,1,8.4,8.38h0A8.4,8.4,0,0,1,538.75,360Zm-18.35,0a26.9,26.9,0,0,0,17,24.85c-11,78.58-73.94,141.56-152.51,152.51a26.69,26.69,0,0,0-49.7,0c-78.58-11-141.57-73.93-152.52-152.51a26.69,26.69,0,0,0,0-49.71c11-78.58,73.94-141.56,152.51-152.51a26.69,26.69,0,0,0,49.71,0c78.57,11,141.55,73.93,152.51,152.51A26.93,26.93,0,0,0,520.4,360ZM360,538.75a8.39,8.39,0,1,1-8.38,8.4h0A8.4,8.4,0,0,1,360,538.75ZM181.25,360a8.39,8.39,0,1,1-8.4-8.38h0A8.41,8.41,0,0,1,181.25,360ZM351.6,172.85a8.4,8.4,0,1,1,8.4,8.4h0A8.41,8.41,0,0,1,351.6,172.85Zm44-5.3,184.5-72.7A343.41,343.41,0,0,1,704.59,360a348.3,348.3,0,0,1-2.36,40.45L530.49,263.87a196,196,0,0,0-134.91-96.32Zm-14.31-10.86A26.7,26.7,0,0,0,334.18,166a194.69,194.69,0,0,0-123,67l29.3-196.21A343.36,343.36,0,0,1,360,15.41c75.26,0,146.29,23.62,206.13,68.44ZM223.93,43.31,191.51,260.37A193.2,193.2,0,0,0,166,334.18a26.71,26.71,0,0,0,0,51.64,194.94,194.94,0,0,0,9.49,39.56L20.29,301.94C39.77,187.25,117.1,89.28,223.93,43.31ZM17.77,319.55,189.5,456.12a196,196,0,0,0,134.92,96.32L139.91,625.15A343.45,343.45,0,0,1,15.41,360,348.3,348.3,0,0,1,17.77,319.55Zm321,243.75a26.72,26.72,0,0,0,47.05-9.3,194.83,194.83,0,0,0,123.06-67L479.57,683.26A343.35,343.35,0,0,1,360,704.59c-75.27,0-146.3-23.62-206.14-68.44Zm157.3,113.38,32.41-217.06A193.21,193.21,0,0,0,554,385.81a26.71,26.71,0,0,0,0-51.64,194,194,0,0,0-9.5-39.55L699.7,418.06C680.23,532.74,602.89,630.71,496.07,676.68Z"/></svg>