<svg id="Layer_1" data-name="Layer 1" xmlns="http://www.w3.org/2000/svg" viewBox="0 0 720 720"><defs><style>.cls-1{fill:#f6f7f8;}</style></defs><title>lowside-logo-blank</title><path class="cls-1" d="M352.44,663.39h0a10,10,0,0,0,5-1.35,10,10,0,0,0,3.67-13.66,10,10,0,1,0-8.67,15Z" transform="translate(-140 -140)"/><path class="cls-1" d="M312.14,657.7a10,10,0,0,0,9.67-7.42,10,10,0,1,0-9.67,7.42Z" transform="translate(-140 -140)"/><path class="cls-1" d="M275.31,652.24a10,10,0,0,0,0-20,10,10,0,0,0-8.66,15A10,10,0,0,0,275.31,652.24Z" transform="translate(-140 -140)"/><path class="cls-1" d="M238.14,626.64a10.09,10.09,0,0,0-5,1.34,10,10,0,0,0,5,18.68,10.06,10.06,0,0,0,5-1.34,10,10,0,0,0,3.67-13.68A10,10,0,0,0,238.14,626.64Z" transform="translate(-140 -140)"/><path class="cls-1" d="M200.16,621.09a10,10,0,1,0,0,20h0a10,10,0,1,0,0-20Z" transform="translate(-140 -140)"/><path class="cls-1" d="M559,714.49h0a10,10,0,1,0-10-10A10,10,0,0,0,559.07,714.49Z" transform="translate(-140 -140)"/><path class="cls-1" d="M534,746.55a10,10,0,1,0-10-10A10,10,0,0,0,534,746.55Z" transform="translate(-140 -140)"/><path class="cls-1" d="M510.81,775.71h0a10,10,0,1,0-10-10A10,10,0,0,0,510.82,775.71Z" transform="translate(-140 -140)"/><path class="cls-1" d="M487.4,785.09a10,10,0,0,0,0,20h0a10,10,0,1,0,0-20Z" transform="translate(-140 -140)"/><path class="cls-1" d="M463.62,815.2a10,10,0,0,0,0,20,10,10,0,0,0,0-20Z" transform="translate(-140 -140)"/><path class="cls-1" d="M715.29,556.09a10,10,0,0,0-3.68-13.66,9.93,9.93,0,0,0-5-1.34,10,10,0,0,0,0,20h0A10.09,10.09,0,0,0,715.29,556.09Z" transform="translate(-140 -140)"/><path class="cls-1" d="M730.51,593.85a10,10,0,1,0-8.67,5A10,10,0,0,0,730.51,593.85Z" transform="translate(-140 -140)"/><path class="cls-1" d="M744.18,628.48a10,10,0,1,0-18.33-2.42,10,10,0,0,0,18.33,2.42Z" transform="translate(-140 -140)"/><path class="cls-1" d="M757.94,663.45a10,10,0,1,0-8.67,5A10,10,0,0,0,757.94,663.45Z" transform="translate(-140 -140)"/><path class="cls-1" d="M773.12,691.53a10,10,0,0,0-9.66-7.43,10,10,0,0,0-8.67,5,10,10,0,0,0,8.66,15,10,10,0,0,0,8.66-5A9.92,9.92,0,0,0,773.12,691.53Z" transform="translate(-140 -140)"/><path class="cls-1" d="M441,285.51a10,10,0,1,0,10,10A10,10,0,0,0,441,285.51Z" transform="translate(-140 -140)"/><path class="cls-1" d="M466,253.45a10,10,0,1,0,10,10A10,10,0,0,0,466,253.45Z" transform="translate(-140 -140)"/><path class="cls-1" d="M489.17,224.28a10,10,0,1,0,10,10A10,10,0,0,0,489.17,224.28Z" transform="translate(-140 -140)"/><path class="cls-1" d="M512.58,214.9a10,10,0,1,0-10-10A10,10,0,0,0,512.58,214.9Z" transform="translate(-140 -140)"/><path class="cls-1" d="M536.38,184.79a10,10,0,1,0-10-10A10,10,0,0,0,536.38,184.79Z" transform="translate(-140 -140)"/><path class="cls-1" d="M284.71,443.89a10,10,0,0,0,8.67,15h0a10,10,0,1,0-8.67-15Z" transform="translate(-140 -140)"/><path class="cls-1" d="M269.49,406.15a10,10,0,0,0,8.66,15,10.06,10.06,0,0,0,8.68-5,10,10,0,0,0-17.34-10Z" transform="translate(-140 -140)"/><path class="cls-1" d="M255.81,371.51a10,10,0,0,0,3.66,13.68,10.2,10.2,0,0,0,5,1.34h0a10,10,0,1,0-8.66-15Z" transform="translate(-140 -140)"/><path class="cls-1" d="M242.06,336.54a10,10,0,0,0,3.66,13.68,10,10,0,1,0-3.66-13.68Z" transform="translate(-140 -140)"/><path class="cls-1" d="M226.88,308.48a9.89,9.89,0,0,0,4.66,6.07,10,10,0,0,0,5,1.34h0a10,10,0,0,0,9.67-12.6,10,10,0,0,0-9.66-7.41,10,10,0,0,0-8.67,5A9.91,9.91,0,0,0,226.88,308.48Z" transform="translate(-140 -140)"/><path class="cls-1" d="M647.55,336.61a10,10,0,0,0-8.66,15,10,10,0,1,0,8.66-15Z" transform="translate(-140 -140)"/><path class="cls-1" d="M687.86,362.3a10.08,10.08,0,0,0,5-1.34,10,10,0,1,0-5,1.34Z" transform="translate(-140 -140)"/><path class="cls-1" d="M724.7,367.78h0a10.09,10.09,0,0,0,5-1.34,10,10,0,0,0-5-18.68,10,10,0,0,0,0,20Z" transform="translate(-140 -140)"/><path class="cls-1" d="M761.86,373.35a10,10,0,0,0,9.66-7.42,9.9,9.9,0,0,0-1-7.57,10,10,0,1,0-8.67,15Z" transform="translate(-140 -140)"/><path class="cls-1" d="M799.84,378.9h0a10,10,0,1,0,0-20,10.08,10.08,0,0,0-5,1.33,10,10,0,0,0,5,18.68Z" transform="translate(-140 -140)"/><path class="cls-1" d="M500,140c-198.5,0-360,161.49-360,360S301.5,860,500,860,860,698.5,860,500,698.51,140,500,140ZM678.75,500a8.39,8.39,0,1,1,8.39,8.38A8.4,8.4,0,0,1,678.75,500Zm-18.35,0a26.9,26.9,0,0,0,17,24.85c-11,78.58-73.94,141.56-152.51,152.51a26.69,26.69,0,0,0-49.7,0c-78.58-11-141.57-73.93-152.52-152.51a26.69,26.69,0,0,0,0-49.71c10.95-78.58,73.94-141.56,152.51-152.51a26.69,26.69,0,0,0,49.71,0c78.57,10.95,141.55,73.93,152.51,152.51A26.93,26.93,0,0,0,660.4,500ZM500,678.75a8.39,8.39,0,1,1-8.38,8.39A8.4,8.4,0,0,1,500,678.75ZM321.25,500a8.39,8.39,0,1,1-8.39-8.38A8.41,8.41,0,0,1,321.25,500ZM491.6,312.85a8.4,8.4,0,1,1,8.4,8.4A8.41,8.41,0,0,1,491.6,312.85Zm44-5.3,184.5-72.7A343.41,343.41,0,0,1,844.59,500a349.33,349.33,0,0,1-2.36,40.45L670.49,403.87A196,196,0,0,0,535.58,307.55Zm-14.31-10.86A26.7,26.7,0,0,0,474.18,306a194.68,194.68,0,0,0-123,67l29.3-196.21A343.15,343.15,0,0,1,500,155.41c75.26,0,146.29,23.62,206.13,68.44ZM363.93,183.31,331.51,400.37A193.2,193.2,0,0,0,306,474.18a26.71,26.71,0,0,0,0,51.64,194.86,194.86,0,0,0,9.49,39.56L160.29,441.94C179.77,327.25,257.1,229.28,363.93,183.31ZM157.77,459.55,329.5,596.12a196,196,0,0,0,134.92,96.32L279.91,765.15A343.45,343.45,0,0,1,155.41,500,348.42,348.42,0,0,1,157.77,459.55Zm321,243.75A26.71,26.71,0,0,0,525.82,694a194.79,194.79,0,0,0,123.06-67L619.57,823.26A343.27,343.27,0,0,1,500,844.59c-75.27,0-146.3-23.62-206.14-68.44ZM636.07,816.68l32.41-217.06A193.15,193.15,0,0,0,694,525.81a26.71,26.71,0,0,0,0-51.64,194,194,0,0,0-9.5-39.55L839.7,558.06C820.23,672.74,742.89,770.71,636.07,816.68Z" transform="translate(-140 -140)"/></svg>